<svg width="256" height="83" viewBox="0 0 256 83" fill="none" xmlns="http://www.w3.org/2000/svg">
<path fill-rule="evenodd" clip-rule="evenodd" d="M139.596 16.5833L134.808 14.5018L130.031 20.56H134.282L139.596 16.5833ZM159.308 58.6294V64.4686H159.319C159.319 65.5312 159.621 66.342 160.226 66.9007C160.83 67.4595 161.669 67.7442 162.732 67.7442C163.862 67.7442 164.689 67.5689 165.215 67.2073V65.1369C164.678 65.4108 164.119 65.5423 163.526 65.5423C162.933 65.5423 162.497 65.3998 162.206 65.1149C161.915 64.8302 161.77 64.3919 161.77 63.7785V58.6294H165.294V56.5151H161.77V53.3271H159.308V56.5151H156.914V58.6294H159.308ZM126.574 67.7442C124.583 67.7442 123.028 67.3718 121.909 66.6268V64.3591C123.218 65.2355 124.728 65.6736 126.462 65.6736C127.234 65.6736 127.838 65.5641 128.274 65.3341C128.711 65.104 128.923 64.7863 128.923 64.3809C128.923 64.0304 128.7 63.7346 128.241 63.5154C128.04 63.4278 127.693 63.3183 127.167 63.1759L125.78 62.8363C124.46 62.5077 123.509 62.0914 122.916 61.5764C122.323 61.0616 122.032 60.3495 122.032 59.4291C122.032 58.4323 122.446 57.6544 123.285 57.0738C124.113 56.5042 125.276 56.2193 126.764 56.2193C128.476 56.2193 129.852 56.5479 130.881 57.2054V59.4073C129.527 58.6624 128.185 58.2898 126.854 58.2898C126.115 58.2898 125.545 58.3995 125.153 58.6185C124.762 58.8376 124.56 59.1225 124.56 59.4949C124.56 59.8345 124.795 60.1303 125.265 60.3604C125.321 60.3932 125.679 60.5029 126.339 60.7L127.637 60.963C130.188 61.5106 131.463 62.661 131.463 64.4139C131.463 65.4108 131.015 66.2105 130.12 66.824C129.225 67.4374 128.051 67.7333 126.596 67.7333L126.574 67.7442ZM100.541 67.4485H103.003V60.7439C103.271 60.1522 103.741 59.6483 104.412 59.232C105.072 58.8158 105.822 58.6075 106.661 58.6075C106.84 58.6075 107.075 58.6185 107.343 58.6514V56.2413C107.299 56.2193 107.231 56.2193 107.12 56.2193C106.269 56.2193 105.464 56.4275 104.703 56.8328C103.954 57.2382 103.383 57.7641 103.003 58.3995V56.5042H100.541V67.4485ZM110.375 57.8736C109.323 58.958 108.786 60.3165 108.786 61.9708L108.764 61.9927C108.764 63.7018 109.357 65.0821 110.543 66.1557C111.762 67.2184 113.228 67.7551 114.94 67.7551C116.651 67.7551 118.027 67.3937 119.056 66.6816V64.6549C117.938 65.3013 116.741 65.6299 115.465 65.6299C114.313 65.6299 113.362 65.367 112.613 64.852C111.863 64.3372 111.416 63.6142 111.259 62.6938H119.817V62.0694C119.817 59.8674 119.023 58.2131 117.445 57.1177C116.64 56.526 115.667 56.2302 114.514 56.2302C112.836 56.2302 111.449 56.778 110.375 57.8736ZM117.322 60.8752H111.281C111.348 60.1303 111.673 59.5058 112.243 59.0129C112.814 58.5199 113.485 58.268 114.391 58.268C115.298 58.268 116.013 58.5308 116.528 59.0677C117.032 59.5935 117.289 60.1961 117.322 60.8752ZM135.177 66.068C136.33 67.1855 137.806 67.7442 139.596 67.7442C141.364 67.7442 142.829 67.1855 143.993 66.068C145.145 64.9397 145.727 63.5703 145.727 61.9708C145.727 60.3713 145.145 59.0129 143.993 57.8954C142.818 56.778 141.386 56.2193 139.596 56.2193C137.806 56.2193 136.33 56.778 135.177 57.8954C134.014 59.0019 133.443 60.3495 133.443 61.9708C133.443 63.5921 134.025 64.9506 135.177 66.068ZM142.214 64.5782C141.498 65.2792 140.625 65.6299 139.596 65.6299C138.545 65.6299 137.672 65.2792 136.956 64.5782C136.251 63.8989 135.904 63.0115 135.904 61.9708C135.904 60.93 136.262 60.0646 136.956 59.3854C137.672 58.6842 138.567 58.3337 139.596 58.3337C140.625 58.3337 141.498 58.6842 142.214 59.3854C142.919 60.0646 143.266 60.9191 143.266 61.9708C143.266 63.0225 142.908 63.8989 142.214 64.5782ZM150.884 67.4485H148.423V56.5042H150.884V58.3995C151.264 57.7641 151.835 57.2382 152.585 56.8328C153.345 56.4275 154.151 56.2193 155.001 56.2193C155.113 56.2193 155.18 56.2193 155.225 56.2413V58.6514C154.956 58.6185 154.721 58.6075 154.542 58.6075C153.703 58.6075 152.954 58.8158 152.294 59.232C151.622 59.6483 151.153 60.1522 150.884 60.7439V67.4485ZM120.298 34.013C120.298 27.6169 125.486 22.6005 132.107 22.5976C138.805 22.6005 143.848 27.4855 143.848 33.9582V34.013C143.848 40.4109 138.746 45.4285 132.045 45.4285C125.344 45.4285 120.298 40.5424 120.298 34.0679V34.013ZM124.885 34.013C124.885 38.2199 127.984 41.3968 132.101 41.3968C136.173 41.3968 139.25 38.2418 139.25 34.0679V34.013C139.25 29.8061 136.106 26.6292 132.034 26.6292C127.962 26.6292 124.885 29.7843 124.885 33.9582V34.013ZM194.739 35.8974H205.824V31.9645H194.739V26.8921H207.234V22.9592H190.352V45.0778H207.391V41.1449H194.739V35.8974ZM220.884 34.1992V34.1883C223.614 34.1883 225.985 35.0977 227.753 36.8176C229.699 38.7238 230.818 41.5941 230.818 44.6943V45.045H226.556V44.6943C226.556 42.6895 225.895 40.9039 224.743 39.7755C223.792 38.8333 222.495 38.3622 220.895 38.3622C216.811 38.3732 216.095 42.339 215.972 44.0589V45.0778H211.553V26.936H208.946V22.9483H215.962V33.4215L226.053 22.9483H231.657L221.924 32.7531L220.469 34.1992H220.884ZM237.676 22.8058V26.7936H240.35L232.15 45.0778H236.725L239.008 39.8741H249.054L251.335 45.0778H256L246.156 22.8058H237.676ZM240.651 35.9302L244.008 28.3382L247.364 35.9302H240.651ZM163.056 41.0682C163.593 40.882 164.13 40.5752 164.633 40.159L164.611 40.1699L164.891 39.9398L167.632 43.1388L167.352 43.3688C166.457 44.1028 165.484 44.6615 164.454 45.0122C163.615 45.3079 162.754 45.4503 161.904 45.4503C160.438 45.4503 159.051 45.0122 157.887 44.1904C155.93 42.8101 154.744 40.4548 154.531 37.5297H151.667V45.0887H147.248V22.9592H157.317C160.08 22.9592 162.351 23.7371 163.884 25.205C165.092 26.3992 165.763 28.1081 165.763 30.0473V30.102C165.763 33.531 163.794 35.9411 160.214 36.8943H160.181L158.793 37.1134C158.905 38.8333 159.465 40.1371 160.404 40.7944C161.132 41.3092 162.071 41.4079 163.056 41.0682ZM161.333 30.2774V30.2226H161.322C161.322 28.1302 159.756 26.9251 157.026 26.9251H151.678V33.6077H157.059C159.655 33.6077 161.333 32.2931 161.333 30.2774ZM179.4 32.0631C175.093 30.9566 174.412 30.2007 174.455 28.7874V28.7326C174.5 27.3741 175.865 26.5086 177.857 26.5635C179.378 26.6074 180.877 27.0894 182.332 27.9877C182.69 28.2069 183.048 28.4588 183.394 28.7326L183.664 28.9408L186.381 25.8732L186.113 25.6433C185.733 25.3256 185.342 25.0188 184.939 24.756C182.948 23.4194 180.687 22.7291 178.036 22.6524C173.461 22.532 170.182 25.1065 170.07 28.9299V28.9845C169.947 33.1475 172.677 34.6812 177.442 35.9193C181.448 36.9491 182.13 37.7598 182.097 39.0634V39.1182C182.074 39.8303 181.728 40.4219 181.113 40.8272C180.452 41.2655 179.501 41.4845 178.394 41.4517C176.458 41.3968 174.803 40.8381 173.17 39.6988L172.912 39.5126L170.126 42.58L170.451 42.8101C172.722 44.4205 175.329 45.2751 178.193 45.3627H178.574C183.283 45.3627 186.381 42.854 186.494 38.8772V38.8224C186.594 35.3606 184.548 33.3886 179.412 32.0412L179.4 32.0631ZM112.937 22.9592H119.985V26.936H117.344V45.0778H112.937V35.9851H104.826V45.0778H100.407V26.936H97.8V22.9592H104.826V31.9315H112.937V22.9592Z" fill="white"/>
<path fill-rule="evenodd" clip-rule="evenodd" d="M41.8408 0.5C18.7277 0.5 0 18.8609 0 41.4945V55.6815C8.52478 55.9665 15.7966 57.7849 21.67 60.0418V28.2716H15.9979V17.1629H33.8418V36.466H48.8888V17.1629H66.7887V28.2716H61.0719V56.2842C67.0572 55.7692 73.68 55.7254 80.8512 56.3499C82.6748 51.7486 83.6816 46.7422 83.6816 41.4945C83.6816 18.8609 64.9539 0.5 41.8408 0.5ZM24.254 64.7524V25.7299H18.5821V19.6936H31.2684V38.9968H51.4729V19.6936H64.2041V25.7299H58.4874V64.7524H51.4729V45.1974H31.2684V64.7524H24.254ZM48.8892 47.7281H33.8534V63.3612C37.6794 61.3673 42.7473 59.4939 48.8892 58.1245V47.7281ZM0 66.2972V82.5H35.7548C28.8635 74.4808 13.5591 66.5711 0 66.2972ZM30.6198 67.2832H21.6811V62.7697C15.3491 60.2061 8.06609 58.497 0 58.2123V63.7556C15.3379 64.0405 32.3092 73.3194 39.0104 82.4891H41.8408C43.2728 82.4891 44.6935 82.4124 46.092 82.2809C43.1832 77.2525 37.8804 71.7529 30.6198 67.2832ZM79.7773 58.8038C78.7704 60.9183 77.5846 62.934 76.242 64.8291C71.1405 64.4129 65.9832 64.4347 61.0608 64.8621V58.8477C67.0684 58.3108 73.378 58.289 79.7773 58.8038ZM41.2922 72.2131C42.9815 73.8235 44.4919 75.4886 45.8007 77.1977C52.9271 74.5245 60.0647 73.4291 67.5491 73.8454C70.0886 71.9063 72.3932 69.6824 74.4068 67.2393C61.9441 66.4506 49.3247 68.3239 41.2922 72.2131ZM39.2569 70.3836C37.59 68.9593 35.7777 67.5899 33.8534 66.3082V66.2645C37.7355 64.0405 43.0158 62.1015 48.8892 60.743V66.856C45.2533 67.7761 41.9754 68.9593 39.2569 70.3836ZM47.3282 79.3538C47.3262 79.3508 47.3243 79.3479 47.3224 79.345V79.3559C47.3243 79.3552 47.3262 79.3545 47.3282 79.3538ZM47.3282 79.3538C47.8853 80.2053 48.3867 81.057 48.8439 81.9194C54.3257 81.0102 59.4384 79.071 63.9692 76.2994C58.288 76.365 52.8081 77.3723 47.3282 79.3538Z" fill="white"/>
</svg>
