<svg width="24" height="24" viewBox="0 0 24 24" fill="none" xmlns="http://www.w3.org/2000/svg">
<path d="M12.7778 9.6V8.656C13.68 8.32 14.3333 7.44 14.3333 6.4C14.3333 5.08 13.2833 4 12 4C10.7167 4 9.66667 5.08 9.66667 6.4C9.66667 7.44 10.32 8.32 11.2222 8.656V9.6H9.66667C9.23889 9.6 8.88889 9.96 8.88889 10.4C8.88889 10.84 9.23889 11.2 9.66667 11.2H11.2222V18.336C9.49556 18.072 7.65222 16.992 6.90556 15.64L7.79222 14.728C7.96333 14.552 7.94 14.272 7.75333 14.128L5.62222 12.48C5.56445 12.4354 5.49574 12.4083 5.42381 12.4016C5.35188 12.3949 5.27957 12.409 5.21497 12.4422C5.15038 12.4755 5.09605 12.5265 5.05808 12.5897C5.02011 12.6529 5 12.7257 5 12.8V14.4C5 17.504 8.82667 20 12 20C15.1733 20 19 17.504 19 14.4V12.8C19 12.7257 18.9799 12.6529 18.9419 12.5897C18.904 12.5265 18.8496 12.4755 18.785 12.4422C18.7204 12.409 18.6481 12.3949 18.5762 12.4016C18.5043 12.4083 18.4356 12.4354 18.3778 12.48L16.2467 14.12C16.06 14.264 16.0367 14.552 16.2078 14.72L17.0944 15.632C16.3478 16.984 14.5044 18.064 12.7778 18.328V11.2H14.3333C14.7611 11.2 15.1111 10.84 15.1111 10.4C15.1111 9.96 14.7611 9.6 14.3333 9.6H12.7778ZM12 5.6C12.4278 5.6 12.7778 5.96 12.7778 6.4C12.7778 6.84 12.4278 7.2 12 7.2C11.5722 7.2 11.2222 6.84 11.2222 6.4C11.2222 5.96 11.5722 5.6 12 5.6Z" fill="#4F2B9C"/>
</svg>
