<svg width="24" height="24" viewBox="0 0 24 24" fill="none" xmlns="http://www.w3.org/2000/svg">
<path fill-rule="evenodd" clip-rule="evenodd" d="M17.0071 6.42078C16.5938 5.40735 15.8979 4.54196 15.0071 3.93333C14.1162 3.32471 13.07 3 12 3C10.93 3 9.8838 3.32471 8.99293 3.93333C8.10206 4.54196 7.40624 5.40735 6.99287 6.42078C6.10338 6.84393 5.34958 7.51834 4.8196 8.36515C4.28961 9.21197 4.00534 10.1962 4.00002 11.2028C3.99216 14.05 6.24001 16.9775 9.01001 17.0508C9.64028 17.0677 10.2663 16.9649 10.8571 16.7494V21H13.1429V16.7467C13.7263 16.9548 14.3476 17.0508 14.99 17.0508C17.76 16.9775 20.0078 14.0515 20 11.2043C19.9952 10.1974 19.7112 9.2127 19.1811 8.36555C18.6511 7.5184 17.897 6.84382 17.0071 6.42078ZM12.5714 15.375V10.5392L15.7376 8.53566L15.1196 7.58934L12.5714 9.20183V6.375H11.4286V11.7644L8.31245 9.76118L7.68755 10.7031L11.4286 13.1081V15.375H12.5714Z" fill="#4F2B9C"/>
</svg>
