<svg width="58" height="58" viewBox="0 0 58 58" fill="none" xmlns="http://www.w3.org/2000/svg">
<rect x="13.5322" y="29" width="21.8322" height="21.8322" transform="rotate(-45 13.5322 29)" fill="#B80C35"/>
<g filter="url(#filter0_b_1412_31658)">
<rect x="6.34315" y="29" width="32" height="32" transform="rotate(-45 6.34315 29)" stroke="white" stroke-opacity="0.15" stroke-width="8"/>
</g>
<rect x="12" y="29" width="24" height="24" transform="rotate(-45 12 29)" fill="white"/>
<path d="M31.4 29.8H26.6V28.2H31.4V29.8ZM23.4 25V26.6H21.8V28.2C21.5878 28.2 21.3843 28.2843 21.2343 28.4343C21.0843 28.5843 21 28.7878 21 29C21 29.2122 21.0843 29.4157 21.2343 29.5657C21.3843 29.7157 21.5878 29.8 21.8 29.8V31.4H23.4V33H25.8V25H23.4ZM36.2 28.2V26.6H34.6V25H32.2V33H34.6V31.4H36.2V29.8C36.4122 29.8 36.6157 29.7157 36.7657 29.5657C36.9157 29.4157 37 29.2122 37 29C37 28.7878 36.9157 28.5843 36.7657 28.4343C36.6157 28.2843 36.4122 28.2 36.2 28.2Z" fill="#B80C35"/>
<defs>
<filter id="filter0_b_1412_31658" x="-15.3135" y="-15.2842" width="88.5684" height="88.5684" filterUnits="userSpaceOnUse" color-interpolation-filters="sRGB">
<feFlood flood-opacity="0" result="BackgroundImageFix"/>
<feGaussianBlur in="BackgroundImageFix" stdDeviation="8"/>
<feComposite in2="SourceAlpha" operator="in" result="effect1_backgroundBlur_1412_31658"/>
<feBlend mode="normal" in="SourceGraphic" in2="effect1_backgroundBlur_1412_31658" result="shape"/>
</filter>
</defs>
</svg>
