<svg width="28" height="28" viewBox="0 0 28 28" fill="none" xmlns="http://www.w3.org/2000/svg">
<path d="M28 25H16.0741V14.3922C16.0741 12.6868 16.3506 11.2202 16.9037 9.99225C17.4568 8.7416 18.1942 7.67287 19.116 6.78605C20.0609 5.87649 21.1556 5.1261 22.4 4.53488C23.6444 3.92093 24.958 3.4093 26.3407 3L27.9654 6.6155C26.9514 6.97933 26.0988 7.35452 25.4074 7.74109C24.7391 8.10491 24.186 8.52558 23.7481 9.0031C23.3333 9.45788 23.0337 9.99225 22.8494 10.6062C22.665 11.1974 22.5728 11.9023 22.5728 12.7209H28V25ZM11.9605 25H0V14.3922C0 12.6868 0.276543 11.2202 0.82963 9.99225C1.38272 8.7416 2.12016 7.67287 3.04198 6.78605C3.98683 5.87649 5.08148 5.1261 6.32593 4.53488C7.59342 3.92093 8.91852 3.4093 10.3012 3L11.9259 6.6155C10.9119 6.97933 10.0593 7.35452 9.3679 7.74109C8.69959 8.10491 8.1465 8.52558 7.70864 9.0031C7.29383 9.45788 6.99424 9.99225 6.80988 10.6062C6.62551 11.1974 6.53333 11.9023 6.53333 12.7209H11.9605V25Z" fill="#111820"/>
</svg>
