<svg width="24" height="24" viewBox="0 0 24 24" fill="none" xmlns="http://www.w3.org/2000/svg">
<g clip-path="url(#clip0_6944_12675)">
<path d="M20.28 4.85714C20.28 4.47826 20.1283 4.1149 19.8582 3.84699C19.5882 3.57908 19.2219 3.42857 18.84 3.42857H15.96V2H14.52V3.42857H8.76V2H7.32V3.42857H4.44C4.05809 3.42857 3.69182 3.57908 3.42177 3.84699C3.15171 4.1149 3 4.47826 3 4.85714V19.1429C3 19.5217 3.15171 19.8851 3.42177 20.153C3.69182 20.4209 4.05809 20.5714 4.44 20.5714H7.32V19.1429H4.44V4.85714H7.32V6.28571H8.76V4.85714H14.52V6.28571H15.96V4.85714H18.84V9.14286H20.28V4.85714Z" fill="black"/>
<path d="M15.24 11.2857L17.0753 14.8129L21 15.3779L18.12 18.1236L18.84 22L15.24 20.17L11.64 22L12.36 18.1236L9.48 15.3779L13.512 14.8129L15.24 11.2857Z" fill="black"/>
</g>
<defs>
<clipPath id="clip0_6944_12675">
<rect width="24" height="24" fill="white"/>
</clipPath>
</defs>
</svg>
