<svg width="20" height="20" viewBox="0 0 20 20" fill="none" xmlns="http://www.w3.org/2000/svg">
<g clip-path="url(#clip0_6882_19330)">
<path opacity="0.3" d="M4.22222 17V15.8889H6.44444V14.1667C5.99074 14.0648 5.58574 13.8728 5.22944 13.5906C4.87315 13.3083 4.61148 12.9541 4.44444 12.5278C3.75 12.4444 3.16907 12.1413 2.70167 11.6183C2.23426 11.0954 2.00037 10.4819 2 9.77778V8.11111H4.22222V7H9.77778V8.11111H12V9.77778C12 10.4815 11.7661 11.095 11.2983 11.6183C10.8306 12.1417 10.2496 12.4448 9.55556 12.5278C9.38889 12.9537 9.12741 13.308 8.77111 13.5906C8.41481 13.8731 8.00963 14.0652 7.55556 14.1667V15.8889H9.77778V17H4.22222ZM4.22222 11.3333V9.22222H3.11111V9.77778C3.11111 10.1296 3.21296 10.4469 3.41667 10.7294C3.62037 11.012 3.88889 11.2133 4.22222 11.3333ZM9.77778 11.3333C10.1111 11.213 10.3796 11.0115 10.5833 10.7289C10.787 10.4463 10.8889 10.1293 10.8889 9.77778V9.22222H9.77778V11.3333Z" fill="black"/>
<path d="M6.11111 17V15.4444H9.22222V13.0333C8.58704 12.8907 8.02004 12.6219 7.52122 12.2268C7.02241 11.8317 6.65607 11.3357 6.42222 10.7389C5.45 10.6222 4.6367 10.1978 3.98233 9.46567C3.32796 8.73352 3.00052 7.87459 3 6.88889V4.55556H6.11111V3H13.8889V4.55556H17V6.88889C17 7.87407 16.6726 8.733 16.0177 9.46567C15.3628 10.1983 14.5495 10.6227 13.5778 10.7389C13.3444 11.3352 12.9784 11.8311 12.4796 12.2268C11.9807 12.6224 11.4135 12.8913 10.7778 13.0333V15.4444H13.8889V17H6.11111ZM6.11111 9.06667V6.11111H4.55556V6.88889C4.55556 7.38148 4.69815 7.82559 4.98333 8.22122C5.26852 8.61685 5.64444 8.89867 6.11111 9.06667ZM13.8889 9.06667C14.3556 8.89815 14.7315 8.61607 15.0167 8.22044C15.3019 7.82481 15.4444 7.38096 15.4444 6.88889V6.11111H13.8889V9.06667Z" fill="black"/>
</g>
<defs>
<clipPath id="clip0_6882_19330">
<rect width="15" height="14" fill="white" transform="translate(2 3)"/>
</clipPath>
</defs>
</svg>
