<svg width="24" height="24" viewBox="0 0 24 24" fill="none" xmlns="http://www.w3.org/2000/svg">
<path fill-rule="evenodd" clip-rule="evenodd" d="M6 2C5.46957 2 4.96086 2.21071 4.58579 2.58579C4.21071 2.96086 4 3.46957 4 4V20C4 20.5304 4.21071 21.0391 4.58579 21.4142C4.96086 21.7893 5.46957 22 6 22H18C18.5304 22 19.0391 21.7893 19.4142 21.4142C19.7893 21.0391 20 20.5304 20 20V9.82779C19.9998 9.03225 19.6836 8.26925 19.121 7.70679L14.2931 2.87889C13.7306 2.31631 12.9675 2.00017 12.172 2H6ZM6 20L6 4H11V9C11 9.53043 11.2107 10.0391 11.5858 10.4142C11.9609 10.7893 12.4696 11 13 11H18V20H6ZM17.5858 9L13 4.41421V9H17.5858Z" fill="black"/>
</svg>
