<svg width="24" height="24" viewBox="0 0 24 24" fill="none" xmlns="http://www.w3.org/2000/svg">
<path fill-rule="evenodd" clip-rule="evenodd" d="M3.89769 8.26329C5.78926 6.67257 8.58347 5 12 5C15.4165 5 18.2107 6.67257 20.1023 8.26329C21.0554 9.06482 21.8024 9.86452 22.3119 10.4644C22.5672 10.7649 22.7643 11.017 22.8991 11.1962C22.9666 11.2859 23.0186 11.3575 23.0547 11.408C23.0629 11.4196 23.0703 11.4301 23.0769 11.4394C23.0847 11.4505 23.0913 11.4599 23.0967 11.4677L23.1087 11.485L23.1124 11.4904L23.1146 11.4935L23.5 12.0608L23.0543 12.5855L23.0531 12.587L23.0491 12.5917L23.0354 12.6075L23.0212 12.6239L22.9861 12.6641C22.9435 12.7126 22.8818 12.7821 22.8022 12.8697C22.643 13.0446 22.4118 13.2919 22.1189 13.5876C21.5341 14.1777 20.6974 14.9659 19.6903 15.7564C17.7171 17.3052 14.9182 19 12 19C9.08179 19 6.28293 17.3052 4.30974 15.7564C3.30259 14.9659 2.46592 14.1777 1.88113 13.5876C1.58819 13.2919 1.35704 13.0446 1.19784 12.8697C1.1182 12.7821 1.05646 12.7126 1.0139 12.6641C0.992613 12.6399 0.976111 12.6209 0.964552 12.6075L0.950937 12.5917L0.946944 12.587L0.945657 12.5855L0.5 12.0608L0.886336 11.4922L0.887609 11.4904L0.891305 11.485L0.903269 11.4677C0.912019 11.4551 0.923866 11.4382 0.938767 11.4173L0.94534 11.408C0.981385 11.3575 1.03339 11.2859 1.10086 11.1962C1.23572 11.017 1.43278 10.7649 1.68805 10.4644C2.19757 9.86452 2.94457 9.06482 3.89769 8.26329ZM2.85878 11.9466C2.96267 12.0562 3.08201 12.1798 3.21563 12.3146C3.76181 12.8658 4.5408 13.5993 5.47245 14.3305C7.37684 15.8253 9.74809 17.1739 12 17.1739C14.2519 17.1739 16.6232 15.8253 18.5276 14.3305C19.4592 13.5993 20.2382 12.8658 20.7844 12.3146C20.918 12.1798 21.0373 12.0562 21.1412 11.9466C21.0647 11.8515 20.9782 11.7466 20.8821 11.6334C20.4222 11.092 19.7474 10.37 18.891 9.64976C18.4593 9.2867 17.9871 8.92876 17.4781 8.59604C17.875 9.3051 18.1007 10.1194 18.1007 10.9855C18.1007 13.7309 15.8323 15.9565 13.034 15.9565C10.2358 15.9565 7.96731 13.7309 7.96731 10.9855C7.96731 9.40557 8.71857 7.99778 9.88974 7.08725C8.00719 7.55306 6.38202 8.57918 5.10897 9.64976C4.25255 10.37 3.57777 11.092 3.1179 11.6334C3.02179 11.7466 2.93532 11.8515 2.85878 11.9466ZM13.034 7.84058C11.2637 7.84058 9.82855 9.24861 9.82855 10.9855C9.82855 12.7224 11.2637 14.1304 13.034 14.1304C14.8044 14.1304 16.2395 12.7224 16.2395 10.9855C16.2395 9.24861 14.8044 7.84058 13.034 7.84058Z" fill="black"/>
</svg>
