<svg width="24" height="24" viewBox="0 0 24 24" fill="none" xmlns="http://www.w3.org/2000/svg">
<path fill-rule="evenodd" clip-rule="evenodd" d="M9.80001 9.42682V2.2H2.20001V3C2.20001 6.29039 3.09171 9.29984 4.57639 11.897C6.3855 15.0617 9.07341 17.6127 12.1055 19.3313C14.8922 20.9107 17.9925 21.8 21 21.8H21.8V14.2H14.5793L12.2645 17.5659C9.92872 16.1194 7.85701 14.1328 6.34858 11.7407L9.80001 9.42682ZM20.2 20.1769C18.0157 20.0515 15.7706 19.4191 13.6653 18.3527L15.4208 15.8H20.2V20.1769ZM8.20001 8.57318L5.55725 10.3449C4.56004 8.37422 3.93478 6.17345 3.8194 3.8H8.20001V8.57318Z" fill="black"/>
</svg>
