<svg width="24" height="24" viewBox="0 0 24 24" fill="none" xmlns="http://www.w3.org/2000/svg">
<path d="M11.2 18V9.99999H12.8V18H11.2Z" fill="black"/>
<path d="M13 7.99999V5.99999H11V7.99999H13Z" fill="black"/>
<path fill-rule="evenodd" clip-rule="evenodd" d="M2.29999 12C2.29999 6.64283 6.64283 2.29999 12 2.29999C17.3572 2.29999 21.7 6.64283 21.7 12C21.7 17.3572 17.3572 21.7 12 21.7C6.64283 21.7 2.29999 17.3572 2.29999 12ZM12 3.69999C7.41602 3.69999 3.69999 7.41602 3.69999 12C3.69999 16.584 7.41602 20.3 12 20.3C16.584 20.3 20.3 16.584 20.3 12C20.3 7.41602 16.584 3.69999 12 3.69999Z" fill="black"/>
</svg>
