<svg width="24" height="24" viewBox="0 0 24 24" fill="none" xmlns="http://www.w3.org/2000/svg">
<path d="M14 12C14 10.8954 13.1046 10 12 10C10.8954 10 10 10.8954 10 12C10 13.1046 10.8954 14 12 14C13.1046 14 14 13.1046 14 12Z" fill="black"/>
<path fill-rule="evenodd" clip-rule="evenodd" d="M12 4C8.32245 4 5.29244 6.19795 2.48874 11.1435L2 12L2.48874 12.8565C5.24464 17.5676 8.41215 20 12 20C15.5878 20 18.7554 17.5676 21.5113 12.8565L22 12L21.5113 11.1435C18.7554 6.43241 15.5878 4 12 4ZM3.79155 11.8869L3.72704 12L3.7875 12.1059C6.43568 16.63 9.20449 18.5 12 18.5C14.7955 18.5 17.5643 16.63 20.2125 12.106L20.273 12L20.2125 11.8941C17.5643 7.36996 14.7955 5.5 12 5.5C9.09762 5.5 6.47174 7.15927 3.79364 11.8833L3.79155 11.8869Z" fill="black"/>
</svg>
