<svg width="24" height="24" viewBox="0 0 24 24" fill="none" xmlns="http://www.w3.org/2000/svg">
<path d="M15.4343 16.5657L12 13.1314L8.56567 16.5657L7.4343 15.4343L10.8686 12L7.4343 8.56569L8.56567 7.43432L12 10.8686L15.4343 7.43432L16.5657 8.56569L13.1314 12L16.5657 15.4343L15.4343 16.5657Z" fill="black"/>
<path fill-rule="evenodd" clip-rule="evenodd" d="M12 2.3C6.64283 2.3 2.29999 6.64284 2.29999 12C2.29999 17.3572 6.64283 21.7 12 21.7C17.3572 21.7 21.7 17.3572 21.7 12C21.7 6.64284 17.3572 2.3 12 2.3ZM3.69999 12C3.69999 7.41604 7.41602 3.7 12 3.7C16.584 3.7 20.3 7.41604 20.3 12C20.3 16.584 16.584 20.3 12 20.3C7.41602 20.3 3.69999 16.584 3.69999 12Z" fill="black"/>
</svg>
