<svg width="24" height="24" viewBox="0 0 24 24" fill="none" xmlns="http://www.w3.org/2000/svg">
<path d="M12 12C13.1046 12 14 11.1046 14 9.99999C14 8.89542 13.1046 7.99999 12 7.99999C10.8954 7.99999 9.99999 8.89542 9.99999 9.99999C9.99999 11.1046 10.8954 12 12 12Z" fill="black"/>
<path fill-rule="evenodd" clip-rule="evenodd" d="M12 2.29999C7.19614 2.29999 3.29999 6.18848 3.29999 10.9875C3.29999 12.5942 4.05766 14.2834 5.43588 16.0209C6.819 17.7645 8.87497 19.6181 11.5917 21.5686L12 21.8617L12.4082 21.5686C15.125 19.6181 17.181 17.7645 18.5641 16.0209C19.9423 14.2834 20.7 12.5942 20.7 10.9875C20.7 6.18848 16.8038 2.29999 12 2.29999ZM4.69999 10.9875C4.69999 6.96374 7.96728 3.69999 12 3.69999C16.0327 3.69999 19.3 6.96374 19.3 10.9875C19.3 12.1523 18.7452 13.5397 17.4673 15.1508C16.2603 16.6724 14.4502 18.3397 12 20.1353C9.5498 18.3397 7.7397 16.6724 6.53271 15.1508C5.25473 13.5397 4.69999 12.1523 4.69999 10.9875Z" fill="black"/>
</svg>
