<svg width="24" height="24" viewBox="0 0 24 24" fill="none" xmlns="http://www.w3.org/2000/svg">
<path d="M13.7357 13.7357C12.3214 15.195 12.225 17.0143 12.0964 21C15.8121 21 18.3771 20.9871 19.7014 19.7014C20.9871 18.3771 21 15.69 21 12.0964C17.0143 12.225 15.195 12.3214 13.7357 13.7357Z" fill="black"/>
<path d="M11.9036 21C8.18786 21 5.62286 20.9871 4.29857 19.7014C3.01286 18.3771 3 15.69 3 12.0964C6.98571 12.225 8.805 12.3214 10.2643 13.7357C11.6786 15.195 11.775 17.0143 11.9036 21Z" fill="black"/>
<path d="M10.2643 10.2643C8.805 11.6786 6.98571 11.775 3 11.9036C3 8.31 3.01286 5.62286 4.29857 4.29857C5.62286 3.01286 8.19429 3 11.9036 3C11.775 6.98571 11.6786 8.805 10.2643 10.2643Z" fill="black"/>
<path d="M12.0964 3C12.2186 6.98571 12.3214 8.805 13.7357 10.2643C15.195 11.6786 17.0143 11.775 21 11.9036C21 8.31 20.9871 5.62286 19.7014 4.29857C18.3771 3.01286 15.8121 3 12.0964 3Z" fill="black"/>
</svg>
