<svg width="24" height="24" viewBox="0 0 24 24" fill="none" xmlns="http://www.w3.org/2000/svg">
<path fill-rule="evenodd" clip-rule="evenodd" d="M15.217 2.023C14.4875 2.00554 13.7577 1.9982 13.028 2.001L10.972 2C10.2426 1.99824 9.51318 2.00657 8.784 2.025L8.59 2.03L7.878 2.06C6.813 2.11 6.088 2.278 5.45 2.525C4.78296 2.77657 4.1789 3.17075 3.68 3.68C3.16997 4.17845 2.77537 4.78262 2.524 5.45C2.277 6.088 2.109 6.813 2.059 7.878C2.047 8.144 2.037 8.366 2.029 8.59L2.022 8.784C2.00454 9.5132 1.99721 10.2426 2 10.972V13.028C1.99823 13.7577 2.00656 14.4875 2.025 15.217L2.03 15.411C2.03886 15.6484 2.04886 15.8857 2.06 16.123C2.11 17.187 2.278 17.913 2.525 18.55C2.77623 19.2176 3.17005 19.8223 3.679 20.322C4.17824 20.8308 4.78268 21.2243 5.45 21.475C6.088 21.721 6.814 21.891 7.878 21.941C8.11527 21.9524 8.35261 21.9624 8.59 21.971L8.784 21.977C9.51353 21.9948 10.2433 22.0025 10.973 22H12.282L13.028 21.999C13.7577 22.0014 14.4875 21.9938 15.217 21.976L15.411 21.97C15.628 21.9623 15.8422 21.9526 16.0981 21.9411L16.123 21.94C17.187 21.89 17.913 21.722 18.55 21.475C19.2173 21.2238 19.822 20.8303 20.322 20.322C20.8311 19.8226 21.2246 19.2178 21.475 18.55C21.721 17.913 21.891 17.187 21.941 16.123L21.9421 16.0975C21.9536 15.8418 21.9633 15.6278 21.971 15.411L21.977 15.217C21.9948 14.4875 22.0025 13.7577 22 13.028V11.718L21.999 10.972C22.0014 10.2426 21.9938 9.51319 21.976 8.784L21.97 8.59C21.962 8.366 21.952 8.144 21.94 7.878C21.89 6.814 21.722 6.087 21.475 5.45C21.2238 4.78295 20.8304 4.17861 20.322 3.679C19.766 3.123 19.21 2.779 18.55 2.525C17.913 2.278 17.187 2.11 16.123 2.06L16.0985 2.0589C15.8424 2.04739 15.6281 2.03776 15.411 2.03L15.217 2.023ZM10.065 7.36107C10.6798 7.11403 11.3375 6.99163 12 7.001C13.3261 7.001 14.5979 7.52679 15.5355 8.46447C16.4732 9.40215 17 10.6739 17 12C17 13.3261 16.4732 14.5979 15.5355 15.5355C14.5979 16.4732 13.3261 17 12 17C11.3375 17.0094 10.6798 16.887 10.065 16.6399C9.4502 16.3929 8.89065 16.0261 8.41885 15.5609C7.94704 15.0958 7.5724 14.5415 7.31669 13.9302C7.06098 13.319 6.92929 12.6631 6.92929 12.0005C6.92929 11.3379 7.06098 10.682 7.31669 10.0708C7.5724 9.45954 7.94704 8.90523 8.41885 8.44006C8.89065 7.97488 9.4502 7.60811 10.065 7.36107ZM16.3986 5.88397C16.6223 5.65115 16.9274 5.51391 17.25 5.501V5.499C17.5815 5.499 17.8995 5.6307 18.1339 5.86512C18.3683 6.09954 18.5 6.41748 18.5 6.749C18.5 7.08052 18.3683 7.39846 18.1339 7.63288C17.8995 7.86731 17.5815 7.999 17.25 7.999C16.9274 7.98609 16.6223 7.84885 16.3986 7.61603C16.1749 7.38321 16.05 7.07287 16.05 6.75C16.05 6.42714 16.1749 6.11679 16.3986 5.88397Z" fill="black"/>
<path d="M12 9.001C12.3985 8.99366 12.7945 9.0658 13.1648 9.21321C13.5351 9.36062 13.8723 9.58034 14.1568 9.85955C14.4412 10.1387 14.6672 10.4718 14.8214 10.8393C14.9757 11.2069 15.0552 11.6014 15.0553 12C15.0553 12.3986 14.976 12.7932 14.8218 13.1607C14.6677 13.5283 14.4418 13.8614 14.1575 14.1407C13.8731 14.42 13.536 14.6399 13.1657 14.7874C12.7955 14.9349 12.3995 15.0072 12.001 15C11.2054 15 10.4423 14.6839 9.87968 14.1213C9.31707 13.5587 9.001 12.7957 9.001 12C9.001 11.2044 9.31707 10.4413 9.87968 9.87868C10.4423 9.31607 11.2054 9 12.001 9L12 9.001Z" fill="black"/>
</svg>
