<svg width="24" height="24" viewBox="0 0 24 24" fill="none" xmlns="http://www.w3.org/2000/svg">
<path fill-rule="evenodd" clip-rule="evenodd" d="M17.0824 2.54105C13.7351 1.81965 10.2639 1.81965 6.91657 2.54105L6.55589 2.61798C5.61433 2.82094 4.74956 3.27159 4.05764 3.91986C3.36572 4.56812 2.87375 5.38863 2.63637 6.29024C1.78788 9.51375 1.78788 12.8905 2.63637 16.114C2.86275 16.9739 3.32091 17.7608 3.9644 18.3949C4.6079 19.029 5.41385 19.4878 6.30055 19.7247L6.79528 22.5723C6.81107 22.6627 6.85172 22.7474 6.91298 22.8175C6.97425 22.8877 7.0539 22.9407 7.14364 22.971C7.23337 23.0014 7.32991 23.008 7.4232 22.9902C7.5165 22.9724 7.60313 22.9308 7.67409 22.8698L10.5797 20.3638C12.7608 20.4921 14.9499 20.324 17.0824 19.8643L17.4442 19.7873C18.3857 19.5844 19.2505 19.1337 19.9424 18.4854C20.6343 17.8372 21.1263 17.0167 21.3637 16.1151C22.2121 12.8915 22.2121 9.51478 21.3637 6.29127C21.1262 5.38953 20.6341 4.56893 19.942 3.92065C19.2499 3.27237 18.3849 2.8218 17.4431 2.61901L17.0824 2.54105ZM7.81453 6.20715C7.61679 6.1794 7.41516 6.21778 7.24319 6.31588H7.2283C6.82932 6.54155 6.46971 6.82569 6.1633 7.16009C5.90796 7.44423 5.76965 7.73145 5.73347 8.0084C5.71219 8.17253 5.72709 8.3387 5.77709 8.49564L5.79625 8.5059C6.08351 9.31934 6.45801 10.102 6.9155 10.8385C7.5054 11.873 8.23133 12.8297 9.07528 13.685L9.10082 13.7199L9.14125 13.7486L9.16572 13.7763L9.19551 13.8009C10.0857 14.6171 11.0804 15.3203 12.1554 15.8935C13.3842 16.5387 14.13 16.8434 14.5779 16.9706V16.9767C14.7088 17.0157 14.828 17.0331 14.9482 17.0331C15.3297 17.0059 15.6907 16.8564 15.9738 16.6085C16.3196 16.313 16.6122 15.9653 16.8399 15.5786V15.5714C17.0537 15.1816 16.9814 14.8144 16.6728 14.5651C16.0531 14.043 15.3829 13.5793 14.6716 13.1803C14.1949 12.9311 13.7108 13.0819 13.5151 13.3342L13.0969 13.843C12.882 14.0953 12.4926 14.0604 12.4926 14.0604L12.482 14.0666C9.5764 13.3516 8.80079 10.5154 8.80079 10.5154C8.80079 10.5154 8.76462 10.1297 9.03379 9.93275L9.55725 9.52654C9.80833 9.3296 9.98282 8.8639 9.71364 8.40435C9.30255 7.71787 8.82254 7.07195 8.28053 6.4759C8.16231 6.33563 7.99653 6.24009 7.8124 6.20613L7.81453 6.20715ZM12.7235 4.97418C12.5824 4.97418 12.4471 5.02821 12.3474 5.1244C12.2476 5.22058 12.1915 5.35104 12.1915 5.48706C12.1915 5.62309 12.2476 5.75354 12.3474 5.84973C12.4471 5.94591 12.5824 5.99995 12.7235 5.99995C14.0694 5.99995 15.1865 6.42359 16.0706 7.236C16.5249 7.68016 16.8792 8.20638 17.1112 8.78286C17.3442 9.36037 17.4506 9.97686 17.4229 10.5944C17.42 10.6617 17.4308 10.729 17.4548 10.7923C17.4789 10.8556 17.5156 10.9137 17.5629 10.9633C17.6585 11.0636 17.7914 11.1231 17.9325 11.1288C18.0736 11.1345 18.2113 11.086 18.3152 10.9938C18.4192 10.9017 18.4809 10.7735 18.4868 10.6375C18.5198 9.87785 18.389 9.11992 18.1027 8.41153C17.8152 7.69979 17.3792 7.05251 16.8218 6.50976L16.8111 6.4995C15.7142 5.48911 14.3258 4.97418 12.7235 4.97418ZM12.6873 6.66054C12.5462 6.66054 12.4109 6.71458 12.3112 6.81076C12.2114 6.90695 12.1554 7.0374 12.1554 7.17343C12.1554 7.30945 12.2114 7.43991 12.3112 7.53609C12.4109 7.63228 12.5462 7.68631 12.6873 7.68631H12.7054C13.6757 7.75299 14.3822 8.06482 14.8769 8.57668C15.3844 9.10393 15.6472 9.75939 15.627 10.5698C15.6237 10.7058 15.6767 10.8375 15.7741 10.9359C15.8716 11.0343 16.0056 11.0913 16.1467 11.0944C16.2878 11.0976 16.4244 11.0465 16.5264 10.9526C16.6285 10.8586 16.6877 10.7294 16.6909 10.5933C16.7164 9.52962 16.3611 8.61156 15.6568 7.87916V7.87711C14.9365 7.1324 13.9481 6.7385 12.7586 6.66157L12.7405 6.65952L12.6873 6.66054ZM12.6671 8.37871C12.5959 8.37265 12.5242 8.38049 12.4562 8.40175C12.3882 8.42301 12.3254 8.45726 12.2714 8.50245C12.2175 8.54765 12.1736 8.60286 12.1422 8.66479C12.1109 8.72672 12.0928 8.79411 12.0891 8.86292C12.0854 8.93173 12.0961 9.00056 12.1206 9.0653C12.1451 9.13003 12.1828 9.18935 12.2316 9.2397C12.2804 9.29006 12.3392 9.33042 12.4045 9.35838C12.4698 9.38633 12.5403 9.40132 12.6118 9.40243C13.0565 9.42499 13.3406 9.55424 13.5193 9.72759C13.6991 9.90198 13.8332 10.182 13.8577 10.62C13.859 10.6888 13.8747 10.7567 13.9038 10.8196C13.9329 10.8824 13.9748 10.939 14.0271 10.9859C14.0794 11.0328 14.1409 11.0691 14.208 11.0926C14.2751 11.1161 14.3464 11.1263 14.4177 11.1226C14.489 11.119 14.5589 11.1015 14.623 11.0713C14.6872 11.0411 14.7444 10.9988 14.7912 10.9468C14.838 10.8948 14.8735 10.8343 14.8955 10.7688C14.9176 10.7033 14.9257 10.6342 14.9195 10.5656C14.8854 9.95019 14.6854 9.40653 14.2758 9.00648C13.864 8.60643 13.3034 8.41153 12.6671 8.37871Z" fill="black"/>
</svg>
