<svg width="20" height="20" viewBox="0 0 20 20" fill="none" xmlns="http://www.w3.org/2000/svg">
<path d="M9.3614 9.9084H10.7385C11.0503 9.9084 11.305 9.86514 11.5024 9.77862C11.7034 9.68877 11.8506 9.56232 11.9442 9.39926C12.0412 9.23287 12.0897 9.0382 12.0897 8.81524C12.0897 8.59894 12.0412 8.40427 11.9442 8.23122C11.8506 8.05818 11.7068 7.92008 11.5128 7.81692C11.3223 7.71376 11.0798 7.66218 10.7853 7.66218H9.3614V9.9084Z" fill="black"/>
<path fill-rule="evenodd" clip-rule="evenodd" d="M10 17C13.866 17 17 13.866 17 10C17 6.13401 13.866 3 10 3C6.13401 3 3 6.13401 3 10C3 13.866 6.13401 17 10 17ZM9.3614 11.1413H10.7853C11.3846 11.138 11.8991 11.0415 12.3287 10.8518C12.7618 10.6621 13.0943 10.3909 13.3265 10.0382C13.5621 9.68545 13.6781 9.27281 13.6746 8.80027C13.6781 8.34769 13.5655 7.94171 13.3369 7.58231C13.1082 7.22292 12.7774 6.9384 12.3443 6.72875C11.9147 6.5191 11.395 6.41428 10.7853 6.41428H7.78162V9.9084H6.67472V11.1413H7.78162V11.6305H6.67472V12.8634H7.78162V13.8518H9.3614V12.8634H11.0503V11.6305H9.3614V11.1413Z" fill="black"/>
</svg>
