<svg width="20" height="20" viewBox="0 0 20 20" fill="none" xmlns="http://www.w3.org/2000/svg">
<path d="M9.58118 2.35548C9.65925 1.88151 10.3408 1.88151 10.4188 2.35548L10.6986 4.05386C11.1422 6.74701 13.253 8.85782 15.9461 9.30143L17.6445 9.58118C18.1185 9.65925 18.1185 10.3408 17.6445 10.4188L15.9461 10.6986C13.253 11.1422 11.1422 13.253 10.6986 15.9461L10.4188 17.6445C10.3408 18.1185 9.65925 18.1185 9.58118 17.6445L9.30143 15.9461C8.85782 13.253 6.74701 11.1422 4.05386 10.6986L2.35548 10.4188C1.88151 10.3408 1.88151 9.65925 2.35548 9.58118L4.05386 9.30143C6.74701 8.85782 8.85782 6.74701 9.30143 4.05386L9.58118 2.35548Z" fill="black"/>
</svg>
