<svg width="24" height="24" viewBox="0 0 24 24" fill="none" xmlns="http://www.w3.org/2000/svg">
<path d="M11.5236 4.35322C11.6684 3.88226 12.3316 3.88226 12.4764 4.35322L14.01 9.34224C14.0745 9.55225 14.2677 9.69547 14.4863 9.69547H19.5004C19.9774 9.69547 20.1821 10.3039 19.8031 10.5949L15.7043 13.7426C15.5382 13.8701 15.4689 14.0882 15.5306 14.2889L17.0859 19.3485C17.2293 19.8148 16.6927 20.191 16.3069 19.8948L12.3027 16.8197C12.124 16.6825 11.876 16.6825 11.6973 16.8197L7.69308 19.8948C7.30734 20.191 6.77074 19.8148 6.91406 19.3485L8.46941 14.2889C8.5311 14.0882 8.46176 13.8701 8.29572 13.7426L4.19688 10.5949C3.81791 10.3039 4.02264 9.69547 4.49955 9.69547H9.51366C9.73232 9.69547 9.92546 9.55225 9.99002 9.34224L11.5236 4.35322Z" fill="black"/>
</svg>
