<?xml version="1.0" standalone="no"?>
<!DOCTYPE svg PUBLIC "-//W3C//DTD SVG 1.1//EN" "http://www.w3.org/Graphics/SVG/1.1/DTD/svg11.dtd" >
<svg xmlns="http://www.w3.org/2000/svg">
<metadata>Generated by IcoMoon</metadata>
<defs>
<font id="icomoon" horiz-adv-x="1024">
<font-face units-per-em="1024" ascent="960" descent="-64" />
<missing-glyph horiz-adv-x="1024" />
<glyph unicode="&#x20;" horiz-adv-x="512" d="" />
<glyph unicode="&#xe900;" glyph-name="ic-map-bar" d="M810.667 707.647v81.687h-597.333v-81.687l266.697-314.798v-211.059h-126.568v-75.123h317.075v75.123h-126.549v211.059l266.679 314.798zM298.003 714.211h427.919l-57.579-67.968h-312.762l-57.579 67.968z" />
<glyph unicode="&#xe901;" glyph-name="ic-map-beach" d="M710.763 710.906c-135.65 80.425-320.741 11.988-369.688-75.074l200.78-119.044-92.173-151.45 2.394-1.536c-132.922-5.431-238.741-99.375-238.741-214.468h501.798c0 95.59-72.994 176.593-173.884 204.407l73.079 120.077 217.967-129.229c48.947 87.061 14.114 285.892-121.532 366.317z" />
<glyph unicode="&#xe902;" glyph-name="ic-map-beauty" d="M768 448c0-188.663-114.748-341.333-256-341.333s-256 152.67-256 341.333c0 188.354 114.748 341.333 256 341.333s256-152.979 256-341.333zM496.917 719.084l-128.001-128 30.17-30.17 128 128-30.17 30.17zM582.251 676.417l-234.668-234.668 30.17-30.17 234.667 234.667-30.17 30.17z" />
<glyph unicode="&#xe903;" glyph-name="ic-map-billiards" d="M512 149.333c-164.949 0-298.667 133.717-298.667 298.667s133.718 298.667 298.667 298.667c164.949 0 298.667-133.718 298.667-298.667s-133.717-298.667-298.667-298.667zM512 362.667c47.13 0 85.333 38.204 85.333 85.333s-38.204 85.333-85.333 85.333c-47.13 0-85.333-38.204-85.333-85.333s38.204-85.333 85.333-85.333z" />
<glyph unicode="&#xe904;" glyph-name="ic-map-bowling" d="M512 746.667c39.223 0 78.059-7.725 114.295-22.735s69.158-37.009 96.892-64.743c27.738-27.734 49.737-60.659 64.747-96.895 15.006-36.236 22.733-75.071 22.733-114.295 0-79.211-31.467-155.179-87.479-211.187-56.009-56.013-131.977-87.479-211.187-87.479-39.223 0-78.059 7.727-114.295 22.733-36.236 15.010-69.161 37.009-96.895 64.747-56.011 56.009-87.477 131.977-87.477 211.187s31.467 155.178 87.477 211.189c56.011 56.011 131.979 87.477 211.189 87.477zM526.933 477.867c-11.883 0-23.275-4.719-31.68-13.12-8.401-8.405-13.12-19.797-13.12-31.68s4.719-23.275 13.12-31.68c8.405-8.401 19.797-13.12 31.68-13.12s23.275 4.719 31.68 13.12c8.401 8.405 13.12 19.797 13.12 31.68s-4.719 23.275-13.12 31.68c-8.405 8.401-19.797 13.12-31.68 13.12zM512 657.067c-15.842 0-31.036-6.293-42.236-17.495-11.204-11.202-17.498-26.396-17.498-42.238s6.293-31.036 17.498-42.238c11.2-11.202 26.394-17.495 42.236-17.495s31.036 6.293 42.236 17.495c11.204 11.202 17.498 26.396 17.498 42.238s-6.293 31.036-17.498 42.238c-11.2 11.202-26.394 17.495-42.236 17.495zM330.709 552.533c-16.427-28.373-6.571-64.811 21.803-81.237 28.672-16.725 65.109-6.869 81.835 21.504 16.427 28.971 6.571 65.408-22.101 81.835-28.373 16.427-64.512 6.869-81.536-22.101z" />
<glyph unicode="&#xe905;" glyph-name="ic-map-food" d="M223.763 106.667l-53.096 53.094 388.74 388.743c-11.379 26.548-12.958 56.573-4.74 90.074s26.231 63.526 54.046 90.074c33.502 33.501 70.793 53.096 111.881 58.785s74.586-4.425 100.501-30.341c25.92-25.916 36.032-59.417 30.345-100.503-5.692-41.086-25.284-78.38-58.786-111.881-26.547-27.813-56.572-45.827-90.074-54.045s-63.526-6.639-90.074 4.74l-47.411-47.407 288.239-288.239-53.094-53.094-288.239 286.34-288.237-286.34zM335.645 430.933l-113.778 113.778c-34.133 34.133-51.2 74.903-51.2 122.311s17.067 88.178 51.2 122.311l235.14-237.037-121.362-121.363z" />
<glyph unicode="&#xe906;" glyph-name="ic-map-massage" d="M426.667 704h-213.333v-85.333h213.333v85.333zM810.667 576h-597.333v-128h42.667v-256h85.333v256h341.333v-256h85.333v256h42.667v128z" />
<glyph unicode="&#xe907;" glyph-name="ic-map-medicine" d="M567.467 746.667h-119.467v-256h-234.663v-128h234.663v-213.333h119.467v213.333h243.2v128h-243.2v256z" />
<glyph unicode="&#xe908;" glyph-name="ic-map-movie" d="M597.333 576h42.667v85.333h170.667v-128c-47.13 0-85.333-38.204-85.333-85.333s38.204-85.333 85.333-85.333v-128h-170.667v85.333h-42.667v-85.333h-384v128c47.128 0 85.333 38.204 85.333 85.333s-38.205 85.333-85.333 85.333v128h384v-85.333zM640 490.667h-42.667v-85.333h42.667v85.333z" />
<glyph unicode="&#xe909;" glyph-name="ic-map-mriya" d="M330.505 361.007c-35.027 3.042-70.348-1.109-103.435-12.156l-13.737-4.826 8.454-11.153c60.473-80.866 189.782-119.181 290.23-86.613 100.446-32.567 229.845 5.747 290.227 86.613l8.422 11.153-13.888 4.826c-33.088 11.046-68.407 15.198-103.437 12.156 51.328 47.1 85.534 107.861 93.594 168.209l1.843 13.634-14.763-1.673c-53.653-6.107-124.147-32.014-177.677-86.026 9.148 83.209-14.4 155.991-74.782 236.858l-9.058 11.991-0.576-0.669-0.572 0.669-9.058-11.991c-60.471-80.701-83.841-153.649-74.782-236.858-53.53 54.012-124.027 79.919-177.677 86.026l-14.764 1.673 1.841-13.634c8.061-60.348 42.268-121.109 93.593-168.209z" />
<glyph unicode="&#xe90a;" glyph-name="ic-map-park" d="M725.636 686.038c37.969-18.050 70.144-46.832 92.757-82.977 22.618-36.145 34.735-78.159 34.94-121.12 0.333-121.481-95.573-246.323-213.76-249.451-27.409 0-53.918 4.096-78.81 12.975v-181.474h-97.527v181.359c-25.207-9.195-51.918-13.581-78.809-12.86-118.187 3.127-214.095 128.034-213.76 249.515 0.227 42.948 12.356 84.942 34.969 121.073s54.775 64.905 92.726 82.96c17.637 43.24 47.325 80.163 85.336 106.131s82.648 39.822 128.302 39.822c45.653 0 90.291-13.854 128.303-39.822 38.007-25.968 67.699-62.892 85.333-106.131zM536.38 303.991v206.323l135.091 85.488-26.368 40.376-108.723-68.8v120.611h-48.759v-229.947l-132.956 85.47-26.662-40.188 159.618-102.613v-96.721h48.759z" />
<glyph unicode="&#xe90b;" glyph-name="ic-map-parking" d="M683.699 513.532c0-92.16-71.68-163.157-169.984-163.157h-62.123v-158.379h-98.988v484.692h161.111c98.304 0 169.984-70.997 169.984-163.156zM587.443 513.532c0 40.276-29.355 70.313-75.093 70.313h-60.757v-140.628h60.757c45.739 0 75.093 30.037 75.093 70.315z" />
<glyph unicode="&#xe90c;" glyph-name="ic-map-pool" d="M397.653 405.333c-21.973-0.452-41.456 8.457-59.733 19.913l113.493 110.339c-45.246 49.889-105.667 73.702-171.52 85.452v82.963c174.754-41.453 298.923-134.292 406.187-278.754-18.278-11.499-37.739-20.378-59.733-19.913-39.795 0.841-72.606 33.186-114.347 33.186-41.737 0-74.56-32.367-114.347-33.186zM672.427 538.074c-23.893 0-44.087 8.020-60.587 24.059s-24.747 35.674-24.747 58.903c0 22.677 8.247 42.179 24.747 58.506s36.693 24.48 60.587 24.457c23.893 0 44.087-8.163 60.587-24.491s24.747-35.818 24.747-58.473c0-23.229-8.247-42.864-24.747-58.903s-36.693-24.059-60.587-24.059zM170.667 322.372c39.052 0 71.755 32.862 112.64 33.182 26.633 0.213 40.666-8.849 66.15-16.593 19.047-5.781 28.291-16.533 48.196-16.589 38.95-0.111 73.459 33.182 114.347 33.182 40.909 0 75.362-33.182 114.347-33.182 39.057 0 73.348 33.442 114.347 33.182 40.922-0.256 73.562-33.182 112.64-33.182v-130.372h-682.667v130.372z" />
<glyph unicode="&#xe90d;" glyph-name="ic-map-rooms" d="M853.333 704h-682.667v-213.333h85.333v128h213.333v-128h85.333v128h213.333v-128h85.333v213.333zM170.667 448h682.667v-256h-85.333v85.333h-512v-85.333h-85.333v256z" />
<glyph unicode="&#xe90e;" glyph-name="ic-map-sauna" d="M401.751 663.514c-21.060 31.051-21.060 71.504 0 102.555l-35.501 23.264c-30.614-45.139-30.614-103.944 0-149.083 21.060-31.051 21.060-71.504 0-102.555l35.501-23.263c30.612 45.138 30.612 103.944 0 149.082zM298.667 568.003h-85.333v-461.336h597.333v461.336h-85.333v-125.818h-426.667v125.818zM529.749 766.069c-21.060-31.051-21.060-71.504 0-102.555 30.613-45.139 30.613-103.945 0-149.082l-35.499 23.263c21.060 31.052 21.060 71.504 0 102.555-30.613 45.139-30.613 103.944 0 149.083l35.499-23.264zM657.749 663.514c-21.060 31.051-21.060 71.504 0 102.555l-35.499 23.264c-30.613-45.139-30.613-103.944 0-149.083 21.060-31.051 21.060-71.504 0-102.555l35.499-23.263c30.613 45.138 30.613 103.944 0 149.082z" />
<glyph unicode="&#xe90f;" glyph-name="ic-map-sea-offers" d="M545.186 550.4v40.277c38.494 14.336 66.368 51.883 66.368 96.256 0 56.32-44.8 102.4-99.554 102.4s-99.555-46.080-99.555-102.4c0-44.373 27.875-81.92 66.369-96.256v-40.277h-66.369c-18.252 0-33.185-15.36-33.185-34.133s14.933-34.133 33.185-34.133h66.369v-304.469c-73.67 11.264-152.319 57.344-184.177 115.029l37.831 38.912c7.301 7.509 6.305 19.456-1.659 25.6l-90.927 70.315c-2.465 1.903-5.396 3.059-8.465 3.345s-6.154-0.316-8.911-1.732c-2.756-1.421-5.074-3.597-6.694-6.293s-2.478-5.803-2.478-8.973v-68.267c0-132.437 163.271-238.933 298.667-238.933 135.394 0 298.667 106.496 298.667 238.933v68.267c0 3.17-0.858 6.276-2.479 8.973-1.617 2.697-3.938 4.873-6.694 6.293-2.756 1.417-5.841 2.018-8.909 1.732s-5.999-1.442-8.465-3.345l-90.927-69.973c-7.966-6.144-8.96-18.432-1.66-25.6l37.828-38.912c-31.855-57.685-110.507-103.765-184.175-115.029v304.128h66.368c18.253 0 33.186 15.36 33.186 34.133s-14.933 34.133-33.186 34.133h-66.368zM512 721.067c18.253 0 33.186-15.36 33.186-34.133s-14.933-34.133-33.186-34.133c-18.253 0-33.186 15.36-33.186 34.133s14.933 34.133 33.186 34.133z" />
<glyph unicode="&#xe910;" glyph-name="ic-map-shop" d="M341.333 746.667h341.333v-170.667h42.667l42.667-426.667h-512l42.667 426.667h42.667v170.667zM597.333 576v85.333h-170.667v-85.333h170.667z" />
<glyph unicode="&#xe911;" glyph-name="ic-map-spa" d="M631.467 528.896c-6.485 95.232-45.056 188.075-117.419 260.437-69.995-69.734-113.044-161.997-121.515-260.437 44.032-23.211 84.309-53.248 119.467-89.771 34.948 35.913 75.251 66.193 119.467 89.771zM512 330.24c-73.387 111.957-198.656 186.027-341.333 186.027 0-341.333 318.123-405.845 341.333-409.6 23.211 4.096 341.333 68.267 341.333 409.6-142.677 0-267.947-74.069-341.333-186.027z" />
<glyph unicode="&#xe912;" glyph-name="ic-map-sport" d="M614.4 413.867h-204.8v68.267h204.8v-68.267zM273.067 618.667v-68.267h-68.267v-68.267c-9.053 0-17.735-3.597-24.136-9.997s-9.997-15.083-9.997-24.137c0-9.054 3.596-17.737 9.997-24.137s15.084-9.997 24.136-9.997v-68.267h68.267v-68.267h102.4v341.333h-102.4zM819.2 482.133v68.267h-68.267v68.267h-102.4v-341.333h102.4v68.267h68.267v68.267c9.054 0 17.737 3.597 24.137 9.997s9.997 15.083 9.997 24.137c0 9.054-3.597 17.737-9.997 24.137s-15.083 9.997-24.137 9.997z" />
<glyph unicode="&#xe913;" glyph-name="ic-map-tennis" d="M213.459 484.386c8.079 66.655 38.289 128.682 85.804 176.172s109.591 77.702 176.312 85.809c1.579 0.189 3.183 0.049 4.706-0.408s2.935-1.225 4.151-2.253c1.212-1.028 2.202-2.295 2.901-3.722s1.101-2.982 1.173-4.57c1.429-35.030-4.42-69.975-17.182-102.635-12.757-32.659-32.154-62.322-56.964-87.121-24.809-24.797-54.491-44.193-87.176-56.963s-67.665-18.637-102.732-17.229c-1.592 0.068-3.153 0.465-4.585 1.165s-2.703 1.685-3.735 2.897c-1.032 1.212-1.802 2.624-2.263 4.151-0.46 1.523-0.6 3.123-0.411 4.706zM799.433 424.563c-3.243 0-6.451 0.201-9.694 0.201-34.27 0.043-68.194-6.835-99.733-20.228-31.539-13.389-60.041-33.015-83.793-57.694-23.748-24.678-42.257-53.901-54.413-85.909-12.151-32.009-17.698-66.142-16.307-100.348 0.073-1.587 0.474-3.145 1.173-4.57s1.69-2.692 2.901-3.721c1.216-1.028 2.628-1.796 4.151-2.253s3.127-0.597 4.706-0.41c66.726 8.111 128.806 38.327 176.32 85.82 47.514 47.497 77.722 109.53 85.798 176.192 0.188 1.591 0.043 3.2-0.422 4.732-0.469 1.532-1.25 2.953-2.291 4.164-1.045 1.216-2.334 2.202-3.776 2.893-1.446 0.691-3.021 1.075-4.621 1.131zM576.981 383.091c27.874 27.994 61.030 50.189 97.553 65.301 36.518 15.108 75.678 22.835 115.204 22.729h8.939c1.66-0.060 3.315 0.239 4.847 0.875 1.536 0.631 2.914 1.591 4.045 2.803 1.131 1.216 1.984 2.658 2.509 4.233s0.7 3.243 0.521 4.89c-7.974 66.902-38.242 129.178-85.931 176.82-47.684 47.642-110.025 77.882-176.994 85.857-1.651 0.179-3.324 0.002-4.898-0.521s-3.021-1.377-4.237-2.507c-1.216-1.129-2.172-2.507-2.807-4.039s-0.934-3.183-0.875-4.841c1.314-40.985-5.803-81.804-20.911-119.931s-37.884-72.753-66.927-101.737c-27.865-28.015-61.018-50.231-97.539-65.361s-75.683-22.874-115.22-22.784h-8.94c-1.659 0.060-3.312-0.239-4.846-0.875-1.534-0.631-2.913-1.591-4.044-2.803-1.131-1.216-1.987-2.658-2.51-4.233s-0.701-3.243-0.521-4.89c7.977-66.901 38.242-129.178 85.929-176.819s110.028-77.884 176.996-85.858c1.651-0.179 3.324-0.004 4.898 0.521 1.574 0.521 3.021 1.378 4.237 2.505 1.216 1.131 2.172 2.509 2.807 4.041s0.934 3.183 0.875 4.843c-1.331 41.003 5.777 81.843 20.885 119.991s37.897 72.794 66.953 101.79z" />
<glyph unicode="&#xe914;" glyph-name="ic-map-wine" d="M384 106.667h256v426.667c0 47.128-38.204 85.333-85.333 85.333v170.667h-85.333v-170.667c-47.128 0-85.333-38.205-85.333-85.333v-426.667z" />
<glyph unicode="&#xe915;" glyph-name="ic-map-winepark" d="M591.236 474.411c0-35.755-29.257-65.015-65.015-65.015s-65.015 29.261-65.015 65.015c0 35.759 29.257 65.018 65.015 65.018s65.015-29.259 65.015-65.018zM363.683 539.429c-35.759 0-65.016-29.259-65.016-65.018 0-35.755 29.257-65.015 65.016-65.015s65.015 29.261 65.015 65.015c0 35.759-29.257 65.018-65.015 65.018zM688.764 539.429c-35.759 0-65.020-29.259-65.020-65.018 0-35.755 29.261-65.015 65.020-65.015s65.015 29.261 65.015 65.015c0 35.759-29.257 65.018-65.015 65.018zM607.492 669.46c-35.759 0-65.015-29.257-65.015-65.016s29.257-65.016 65.015-65.016c35.759 0 65.015 29.257 65.015 65.016s-29.257 65.016-65.015 65.016zM444.954 669.46c-35.76 0-65.017-29.257-65.017-65.016s29.257-65.016 65.017-65.016c35.759 0 65.015 29.257 65.015 65.016s-29.257 65.016-65.015 65.016zM607.492 409.395c-35.759 0-65.015-29.257-65.015-65.015s29.257-65.015 65.015-65.015c35.759 0 65.015 29.257 65.015 65.015s-29.257 65.015-65.015 65.015zM444.954 409.395c-35.76 0-65.017-29.257-65.017-65.015s29.257-65.015 65.017-65.015c35.759 0 65.015 29.257 65.015 65.015s-29.257 65.015-65.015 65.015zM526.221 279.364c-35.759 0-65.015-29.257-65.015-65.015s29.257-65.015 65.015-65.015c35.759 0 65.015 29.257 65.015 65.015s-29.257 65.015-65.015 65.015zM604.241 792.99l-26.005 39.010c-71.518-32.508-78.020-149.536-78.020-162.54h48.764c3.251 26.006 13.001 107.276 55.262 123.53z" />
<glyph unicode="&#xe916;" glyph-name="ic-section-a" d="M256 219.307l208.896 484.693h88.064l209.579-484.693h-103.765l-47.104 110.592h-206.848l-46.421-110.592h-102.4zM508.587 573.611l-66.901-157.013h133.12l-66.219 157.013z" />
<glyph unicode="&#xe917;" glyph-name="ic-section-b" d="M341.333 219.307v484.693h177.493c81.92 0 144.043-64.171 144.043-140.629 0-37.547-14.336-65.536-38.229-86.699 43.008-21.163 71.68-60.075 71.68-114.688 0-80.555-64.171-142.677-150.187-142.677h-204.8zM440.32 310.101h98.987c37.547 0 60.757 23.211 60.757 55.296s-23.211 55.979-60.757 55.979h-98.987v-111.275zM440.32 505.344h68.949c34.816 0 57.344 23.893 57.344 53.931 0 29.355-22.528 54.613-57.344 54.613h-68.949v-108.544z" />
<glyph unicode="&#xe918;" glyph-name="ic-section-c" d="M506.539 202.923c-138.581 0-250.539 111.957-250.539 250.539s111.957 250.539 250.539 250.539c98.304 0 182.272-51.883 223.915-129.024l-86.016-47.787c-29.355 49.835-75.093 81.237-137.899 81.237-84.651 0-150.869-70.315-150.869-154.965s66.219-154.965 150.869-154.965c62.805 0 108.544 31.403 137.899 81.237l86.016-47.787c-41.643-78.507-124.928-129.024-223.915-129.024z" />
<glyph unicode="&#xe919;" glyph-name="ic-section-d" d="M298.667 219.307v484.693h159.744c139.264 0 249.173-107.179 249.173-242.347s-109.909-242.347-249.173-242.347h-159.744zM397.653 310.101h60.757c89.429 0 149.504 67.584 149.504 151.552s-60.075 151.552-149.504 151.552h-60.757v-303.104z" />
<glyph unicode="&#xe91a;" glyph-name="ic-section-e" d="M341.333 219.307v484.693h301.739v-94.208h-202.752v-99.669h161.792v-94.208h-161.792v-102.4h202.752v-94.208h-301.739z" />
<glyph unicode="&#xe91b;" glyph-name="FooterSend" d="M32 544v320l906.667-392.887v-46.225l-906.667-392.887v320l608 91.2v9.6l-608 91.2z" />
<glyph unicode="&#xe91c;" glyph-name="HeaderCalendar" d="M268.8 776.533v98.133h59.733v-98.133h366.934v98.133h59.733v-98.133h170.667v-742.4h-827.734v742.4h170.667zM268.8 716.8h-110.933v-196.267h708.267v196.267h-110.933v-98.133h-59.733v98.133h-366.934v-98.133h-59.733v98.133zM866.133 460.8h-708.267v-366.933h708.267v366.933z" />
<glyph unicode="&#xe91d;" glyph-name="HeroSliderLeft" d="M128 448l336 384h120l-288-336h600v-96h-600l288-336h-120l-336 384z" />
<glyph unicode="&#xe91e;" glyph-name="HeroSliderRight" d="M896 448l-336 384h-120l288-336h-600v-96h600l-288-336h120l336 384z" />
<glyph unicode="&#xe91f;" glyph-name="ic-lg-arrow-down" d="M786.53 386.803l-274.53-274.53-274.53 274.53-48.272-48.273 298.665-298.667h48.273l298.667 298.667-48.273 48.273zM477.867 277.333v554.667h68.267v-554.667h-68.267z" />
<glyph unicode="&#xe920;" glyph-name="ic-lg-arrow-left" d="M450.803 722.531l-274.531-274.531 274.531-274.53-48.272-48.273-298.667 298.667v48.273l298.667 298.666 48.272-48.272zM341.334 413.867h554.666v68.267h-554.666v-68.267z" />
<glyph unicode="&#xe921;" glyph-name="ic-lg-arrow-right" d="M573.197 722.531l274.53-274.531-274.53-274.53 48.273-48.273 298.667 298.667v48.273l-298.667 298.666-48.273-48.272zM682.667 413.867h-554.667v68.267h554.667v-68.267z" />
<glyph unicode="&#xe922;" glyph-name="ic-lg-arrow-up" d="M512 783.728l274.53-274.531 48.273 48.273-298.667 298.667h-48.273l-298.665-298.667 48.272-48.273 274.53 274.531zM477.867 64v554.667h68.267v-554.667h-68.267z" />
<glyph unicode="&#xe923;" glyph-name="ic-lg-check" d="M922.842 725.579l-53.679 42.176-445.565-567.081-271.461 271.462-48.272-48.273 325.874-325.871 493.103 627.586z" />
<glyph unicode="&#xe924;" glyph-name="ic-lg-chevron-down" d="M146.531 594.531l341.332-341.334h48.273l341.333 341.334-48.273 48.272-317.197-317.196-317.197 317.196-48.272-48.272z" />
<glyph unicode="&#xe925;" glyph-name="ic-lg-chevron-left" d="M274.531 472.137l341.332 341.333 48.273-48.272-317.198-317.198 317.198-317.197-48.273-48.273-341.332 341.333v48.273z" />
<glyph unicode="&#xe926;" glyph-name="ic-lg-chevron-right" d="M749.47 472.137l-341.333 341.333-48.272-48.272 317.196-317.198-317.196-317.197 48.272-48.273 341.333 341.333v48.273z" />
<glyph unicode="&#xe927;" glyph-name="ic-lg-chevron-up" d="M146.531 301.47l341.332 341.333h48.273l341.333-341.333-48.273-48.273-317.197 317.198-317.197-317.198-48.272 48.273z" />
<glyph unicode="&#xe928;" glyph-name="ic-lg-close" d="M410.867 499.721l-240.201 240.203 49.41 49.41 240.203-240.201-49.412-49.412zM853.333 718.087l-611.42-611.42-49.41 49.412 611.418 611.418 49.412-49.41zM634.97 374.443l218.364-218.364-49.412-49.412-218.364 218.364 49.412 49.412z" />
<glyph unicode="&#xe929;" glyph-name="ic-lg-email" d="M93.867 780.8v-665.6h836.266v665.6h-836.266zM512 451.004l-294.222 261.529h588.447l-294.225-261.529zM534.677 379.823l327.189 290.833v-487.19h-699.733v487.19l327.189-290.833h45.355z" />
<glyph unicode="&#xe92a;" glyph-name="ic-lg-external_link" d="M605.867 866.133h290.133l34.133-34.133v-290.133h-68.267v207.728l-435.2-435.201-48.272 48.273 435.199 435.2h-207.727v68.267zM98.133 733.866h401.067v-59.733h-341.334v-580.266h580.267v341.333h59.733v-401.067h-699.734v699.733z" />
<glyph unicode="&#xe92b;" glyph-name="ic-lg-file" d="M611.473 866.133h-432.273v-836.267h665.6v602.938l-233.327 233.328zM588.8 792.262l182.127-182.128h-182.127v182.128zM247.467 98.133v699.733h273.066v-256h256v-443.733h-529.066z" />
<glyph unicode="&#xe92c;" glyph-name="ic-lg-file-add" d="M611.473 866.133h-432.273v-836.267h247.466v68.267h-179.2v699.733h273.066v-256h324.267v90.938l-233.327 233.328zM588.8 792.262l182.127-182.128h-182.127v182.128zM691.2 21.333v179.2h-179.2v68.267h179.2v179.2h68.267v-179.2h179.2v-68.267h-179.2v-179.2h-68.267z" />
<glyph unicode="&#xe92d;" glyph-name="ic-lg-filter" d="M213.334 823.466l-26.222-55.985 205.422-246.508v-243.639l11.657-25.69 170.666-149.333 56.61 25.69v392.973l205.423 246.508-26.223 55.985h-597.333zM452.89 555.185l-166.679 200.015h451.582l-166.682-200.015-7.91-21.851v-330.112l-102.4 89.6v240.512l-7.91 21.851z" />
<glyph unicode="&#xe92e;" glyph-name="ic-lg-info" d="M477.867 192v341.334h68.267v-341.334h-68.267zM554.667 618.667v85.333h-85.333v-85.333h85.333zM98.133 448c0 228.573 185.295 413.867 413.867 413.867 228.574 0 413.867-185.295 413.867-413.867 0-228.574-185.293-413.867-413.867-413.867s-413.867 185.293-413.867 413.867zM512 802.134c-195.583 0-354.134-158.551-354.134-354.134s158.551-354.133 354.134-354.133c195.584 0 354.133 158.549 354.133 354.133s-158.549 354.134-354.133 354.134z" />
<glyph unicode="&#xe92f;" glyph-name="ic-lg-link" d="M844.8 746.667l-34.133 34.133h-597.333v-68.267h514.927l-539.062-539.063 48.272-48.273 539.063 539.065v-514.928h68.267v597.333z" />
<glyph unicode="&#xe930;" glyph-name="ic-lg-map" d="M512 448c47.13 0 85.333 38.204 85.333 85.334 0 47.128-38.204 85.333-85.333 85.333s-85.334-38.205-85.334-85.333c0-47.13 38.204-85.334 85.334-85.334zM512 861.867c-204.965 0-371.2-165.909-371.2-370.667 0-68.553 32.327-140.625 91.131-214.758 59.013-74.394 146.735-153.481 262.648-236.702l17.421-12.506 17.417 12.506c115.917 83.221 203.639 162.308 262.652 236.702 58.803 74.133 91.132 146.206 91.132 214.758 0 204.758-166.238 370.667-371.2 370.667zM200.533 491.2c0 171.68 139.404 310.934 311.467 310.934s311.467-139.253 311.467-310.934c0-49.698-23.671-108.894-78.195-177.634-51.499-64.922-128.73-136.060-233.271-212.672-104.542 76.612-181.773 147.75-233.271 212.672-54.527 68.74-78.196 127.936-78.196 177.634z" />
<glyph unicode="&#xe931;" glyph-name="ic-lg-menu" d="M85.333 669.867h853.333v68.267h-853.333v-68.267zM938.667 413.867h-682.667v68.267h682.667v-68.267zM938.667 157.867h-512v68.267h512v-68.267z" />
<glyph unicode="&#xe932;" glyph-name="ic-lg-minus" d="M170.667 413.867h682.667v68.267h-682.667v-68.267z" />
<glyph unicode="&#xe933;" glyph-name="ic-lg-phone" d="M418.134 557.789v308.344h-324.267v-34.133c0-140.39 38.046-268.793 101.392-379.605 77.189-135.027 191.873-243.87 321.242-317.197 118.899-67.388 251.179-105.331 379.499-105.331h34.133v324.267h-308.083l-98.765-143.612c-99.66 61.717-188.053 146.479-252.413 248.542l147.261 98.726zM861.867 99.119c-93.197 5.35-188.988 32.333-278.814 77.833l74.901 108.915h203.913v-186.748zM349.867 594.211l-112.758-75.593c-42.548 84.082-69.225 177.982-74.148 279.249h186.906v-203.656z" />
<glyph unicode="&#xe934;" glyph-name="ic-lg-play" d="M256 789.333v-682.667l597.333 341.333-597.333 341.333zM721.502 448l-399.075-228.041v456.082l399.075-228.041z" />
<glyph unicode="&#xe935;" glyph-name="ic-lg-play-filled" d="M853.333 448l-597.333 341.333v-682.667l597.333 341.333z" />
<glyph unicode="&#xe936;" glyph-name="ic-lg-plus" d="M546.133 533.333v256h-68.267v-256h68.267zM477.867 362.667v-256h68.267v256h-68.267zM170.667 413.867h682.667v68.267h-682.667v-68.267z" />
<glyph unicode="&#xe937;" glyph-name="ic-lg-remove" d="M658.53 253.197l-146.53 146.53-146.531-146.53-48.272 48.273 146.53 146.53-146.53 146.531 48.272 48.272 146.531-146.529 146.53 146.529 48.273-48.272-146.53-146.531 146.53-146.53-48.273-48.273zM512 861.867c-228.573 0-413.867-185.295-413.867-413.867 0-228.574 185.295-413.867 413.867-413.867 228.574 0 413.867 185.293 413.867 413.867 0 228.572-185.293 413.867-413.867 413.867zM157.866 448c0 195.582 158.551 354.133 354.134 354.133s354.133-158.551 354.133-354.133c0-195.584-158.549-354.133-354.133-354.133s-354.134 158.549-354.134 354.133z" />
<glyph unicode="&#xe938;" glyph-name="ic-lg-sort-down" d="M375.466 225.975v520.691h-68.267v-520.691l-156.366 140.727-45.668-50.739 213.333-192h45.668l213.335 192-45.67 50.739-156.365-140.727zM640 584.533h341.333v68.267h-341.333v-68.267zM640 413.867h256v68.267h-256v-68.267zM640 243.2h170.667v68.267h-170.667v-68.267z" />
<glyph unicode="&#xe939;" glyph-name="ic-lg-sort-up" d="M318.499 772.038l-213.333-192 45.668-50.74 156.366 140.728v-520.692h68.267v520.692l156.365-140.728 45.67 50.74-213.335 192h-45.668zM640 584.533h170.667v68.267h-170.667v-68.267zM640 413.867h256v68.267h-256v-68.267zM981.333 243.2v68.267h-341.333v-68.267h341.333z" />
<glyph unicode="&#xe93a;" glyph-name="ic-lg-unfold-more" d="M322.803 594.531l189.197 189.197 189.197-189.197 48.273 48.272-213.333 213.333h-48.273l-213.332-213.333 48.272-48.272zM322.803 301.47l189.197-189.197 189.197 189.197 48.273-48.273-213.333-213.333h-48.273l-213.332 213.333 48.272 48.273z" />
<glyph unicode="&#xe93b;" glyph-name="ic-lg-view" d="M597.333 448c0 47.13-38.204 85.333-85.333 85.333s-85.333-38.204-85.333-85.333c0-47.13 38.204-85.333 85.333-85.333s85.333 38.204 85.333 85.333zM512 789.333c153.079 0 288.23-103.783 405.815-304.789l20.851-36.544-20.851-36.544c-117.585-201.007-252.736-304.789-405.815-304.789-153.082 0-288.229 103.782-405.814 304.789l-20.853 36.544 20.853 36.544c119.625 211.010 248.905 304.789 405.814 304.789zM161.773 452.826l-2.752-4.826 2.58-4.518c112.989-193.028 231.125-272.815 350.4-272.815s237.41 79.787 350.4 272.811l2.581 4.523-2.581 4.518c-112.99 193.030-231.125 272.815-350.4 272.815-123.835 0-235.872-70.796-350.138-272.354l-0.089-0.154z" />
<glyph unicode="&#xe93c;" glyph-name="ic-lg-warning" d="M477.867 362.667v256h68.267v-256h-68.267zM554.667 192v85.333h-85.333v-85.333h85.333zM58.903 77.909l426.669 810.668h52.855l426.667-810.668-26.428-43.776h-853.333l-26.43 43.776zM889.195 93.867l-377.195 716.673-377.197-716.673h754.391z" />
<glyph unicode="&#xe93d;" glyph-name="ic-socials-dzen" d="M586.057 373.943c-60.343-62.263-64.457-139.887-69.943-309.943 158.537 0 267.977 0.55 324.48 55.407 54.857 56.503 55.407 171.153 55.407 324.48-170.057-5.487-247.68-9.6-309.943-69.943zM507.887 64c-158.538 0-267.978 0.55-324.481 55.407-54.857 56.503-55.406 171.153-55.406 324.48 170.057-5.487 247.68-9.6 309.943-69.943 60.343-62.263 64.457-139.887 69.943-309.943zM437.943 522.057c-62.263-60.343-139.887-64.457-309.943-69.943 0 153.327 0.549 267.978 55.406 324.481 56.503 54.857 166.217 55.406 324.481 55.406-5.487-170.057-9.6-247.68-69.943-309.943zM516.113 832c5.214-170.057 9.6-247.68 69.943-309.943 62.263-60.343 139.887-64.457 309.943-69.943 0 153.327-0.55 267.978-55.407 324.481-56.503 54.857-165.943 55.406-324.48 55.406z" />
<glyph unicode="&#xe93e;" glyph-name="ic-socials-facebook" d="M645.12 733.013h80.213v135.68c-38.835 4.038-77.858 6.032-116.907 5.973-116.053 0-195.413-70.827-195.413-200.533v-111.787h-130.987v-151.893h130.987v-389.12h157.013v389.12h130.56l19.627 151.893h-150.187v96.853c0 44.8 11.947 73.813 75.093 73.813z" />
<glyph unicode="&#xe93f;" glyph-name="ic-socials-instagram" d="M649.259 873.685c-31.125 0.745-62.263 1.058-93.397 0.939l-87.723 0.043c-31.121 0.075-62.243-0.28-93.355-1.067l-8.277-0.213-30.379-1.28c-45.44-2.133-76.373-9.301-103.595-19.84-28.46-10.734-54.234-27.552-75.52-49.28-21.761-21.267-38.598-47.045-49.323-75.52-10.539-27.221-17.707-58.155-19.84-103.595-0.512-11.349-0.939-20.821-1.28-30.379l-0.299-8.277c-0.745-31.113-1.058-62.234-0.939-93.355v-87.723c-0.076-31.134 0.28-62.272 1.067-93.397l0.213-8.277c0.378-10.129 0.805-20.254 1.28-30.379 2.133-45.397 9.301-76.373 19.84-103.552 10.719-28.484 27.522-54.285 49.237-75.605 21.301-21.709 47.090-38.498 75.563-49.195 27.221-10.496 58.197-17.749 103.595-19.883 10.124-0.486 20.25-0.913 30.379-1.28l8.277-0.256c31.127-0.759 62.263-1.088 93.397-0.981l87.68 0.043c31.134-0.102 62.272 0.222 93.397 0.981l8.277 0.256c9.259 0.329 18.398 0.742 29.316 1.233l1.062 0.047c45.397 2.133 76.373 9.301 103.552 19.84 28.471 10.718 54.272 27.507 75.605 49.195 21.722 21.308 38.511 47.113 49.195 75.605 10.496 27.179 17.749 58.155 19.883 103.552l0.047 1.088c0.491 10.91 0.905 20.041 1.233 29.291l0.256 8.277c0.759 31.125 1.088 62.263 0.981 93.397v55.893l-0.043 31.829c0.102 31.121-0.222 62.243-0.981 93.355l-0.256 8.277c-0.341 9.557-0.768 19.029-1.28 30.379-2.133 45.397-9.301 76.416-19.84 103.595-10.718 28.461-27.503 54.246-49.195 75.563-23.723 23.723-47.445 38.4-75.605 49.237-27.179 10.539-58.155 17.707-103.552 19.84l-1.045 0.047c-10.927 0.491-20.070 0.902-29.333 1.233l-8.277 0.299zM429.44 645.928c26.231 10.54 54.293 15.763 82.56 15.363 56.58 0 110.844-22.434 150.848-62.441 40.009-40.008 62.485-94.269 62.485-150.849s-22.477-110.844-62.485-150.848c-40.004-40.009-94.268-62.485-150.848-62.485-28.267-0.401-56.329 4.821-82.56 15.364-26.231 10.539-50.106 26.189-70.236 46.037-20.131 19.844-36.115 43.494-47.025 69.577-10.91 26.078-16.529 54.063-16.529 82.334s5.619 56.256 16.529 82.334c10.91 26.080 26.895 49.731 47.025 69.578s44.004 35.497 70.236 46.037zM699.674 708.951c9.545 9.934 22.562 15.789 36.326 16.34v0.085c14.144 0 27.712-5.619 37.713-15.621s15.62-23.567 15.62-37.712c0-14.145-5.619-27.71-15.62-37.712s-23.569-15.621-37.713-15.621c-13.764 0.551-26.782 6.406-36.326 16.34s-14.874 23.175-14.874 36.951c0 13.775 5.329 27.017 14.874 36.951zM512 575.957c17.003 0.313 33.899-2.765 49.698-9.054s30.187-15.664 42.325-27.577c12.134-11.91 21.777-26.123 28.356-41.803 6.583-15.684 9.975-32.516 9.98-49.523 0-17.007-3.383-33.843-9.963-49.523-6.575-15.684-16.213-29.897-28.343-41.813-12.134-11.917-26.517-21.299-42.317-27.593-15.795-6.293-32.691-9.378-49.694-9.071-33.946 0-66.505 13.487-90.51 37.491s-37.49 56.559-37.49 90.509c0 33.946 13.486 66.505 37.49 90.51s56.564 37.49 90.51 37.49l-0.043-0.043z" />
<glyph unicode="&#xe940;" glyph-name="ic-socials-odnoklassniki" d="M760.747 416.427c-11.947 24.32-45.653 44.8-90.453 10.24-61.013-48.64-158.293-48.64-158.293-48.64s-97.28 0-158.293 48.64c-44.8 34.56-78.507 14.080-90.453-10.24-21.333-42.667 2.56-63.573 56.747-98.133 46.507-29.867 110.080-40.96 151.040-45.227l-34.133-34.133c-48.64-48.213-95.573-94.72-127.573-127.147-19.2-19.627-19.2-50.773 0-69.12l5.973-6.827c19.2-19.2 50.773-19.2 69.973 0l126.72 127.147c49.067-48.213 95.573-94.72 128-127.147 19.2-19.2 50.347-19.2 69.973 0l5.547 6.827c19.627 18.347 19.627 49.493 0 69.12l-127.147 127.147-33.707 34.56c40.533 3.84 103.253 15.36 149.333 44.8 54.187 34.56 78.080 55.467 56.747 98.133zM512 765.013c58.88 0 106.667-47.787 106.667-106.24 0-58.88-47.787-106.24-106.667-106.24s-106.667 47.36-106.667 106.24c0 58.453 47.787 106.24 106.667 106.24zM512 442.88c119.467 0 215.893 96.427 215.893 215.893 0 57.259-22.746 112.172-63.232 152.66-40.491 40.488-95.403 63.234-152.661 63.234s-112.172-22.746-152.66-63.234c-40.488-40.488-63.234-95.401-63.234-152.66 0-119.467 96.427-215.893 215.893-215.893z" />
<glyph unicode="&#xe941;" glyph-name="ic-socials-telegram" d="M850.274 784.371c10.492 4.394 21.978 5.909 33.259 4.388s21.943-6.022 30.882-13.035c8.939-7.013 15.825-16.282 19.942-26.842s5.312-22.025 3.465-33.201l-96.29-581.154c-9.344-56.060-71.159-88.209-122.829-60.284-43.221 23.36-107.418 59.354-165.158 96.909-28.873 18.799-117.308 78.997-106.441 121.83 9.34 36.629 157.939 174.259 242.854 256.087 33.327 32.148 18.129 50.693-21.227 21.122-97.779-73.42-254.659-185.071-306.541-216.503-45.769-27.712-69.629-32.444-98.161-27.712-52.052 8.619-100.326 21.969-139.726 38.234-53.241 21.965-50.651 94.793-0.043 116.002l726.013 304.158z" />
<glyph unicode="&#xe942;" glyph-name="ic-socials-viber" d="M728.849 851.582l15.39-3.326c40.183-8.652 77.090-27.877 106.62-55.537s50.526-62.672 60.659-101.146c36.198-137.536 36.198-281.61 0-419.15-10.129-38.468-31.121-73.476-60.642-101.133-29.521-27.661-66.419-46.891-106.59-55.548l-15.437-3.285c-90.987-19.614-184.388-26.786-277.449-21.312l-123.973-106.923c-3.028-2.603-6.724-4.378-10.705-5.137s-8.099-0.478-11.928 0.819c-3.829 1.293-7.227 3.554-9.841 6.549-2.614 2.991-4.348 6.605-5.022 10.462l-21.108 121.498c-37.833 10.108-72.22 29.683-99.676 56.738s-47.004 60.629-56.663 97.318c-36.202 137.536-36.202 281.611 0 419.147 10.128 38.469 31.119 73.477 60.641 101.136s66.419 46.887 106.592 55.547l15.389 3.282c142.819 30.78 290.924 30.78 433.742 0zM333.42 695.162c-8.437 1.184-17.040-0.454-24.377-4.639h-0.635c-17.023-9.629-32.367-21.752-45.44-36.020-10.895-12.123-16.796-24.378-18.339-36.195-0.908-7.003-0.272-14.093 1.861-20.789l0.817-0.438c12.256-34.707 28.235-68.1 47.755-99.524 25.169-44.139 56.142-84.958 92.151-121.451l1.090-1.489 1.725-1.225 1.044-1.182 1.271-1.050c37.981-34.825 80.422-64.828 126.289-89.284 52.429-27.529 84.25-40.529 103.36-45.956v-0.26c5.585-1.664 10.671-2.406 15.799-2.406 16.277 1.161 31.68 7.539 43.759 18.116 14.754 12.608 27.238 27.443 36.954 43.942v0.307c9.122 16.631 6.037 32.299-7.13 42.935-26.441 22.276-55.036 42.061-85.385 59.085-20.339 10.633-40.994 4.198-49.344-6.566l-17.843-21.709c-9.169-10.765-25.783-9.276-25.783-9.276l-0.452-0.265c-123.972 30.507-157.065 151.518-157.065 151.518s-1.543 16.457 9.941 24.86l22.334 17.332c10.713 8.403 18.158 28.273 6.673 47.88-17.54 29.29-38.020 56.849-61.146 82.281-5.044 5.985-12.117 10.061-19.974 11.51l0.091-0.044zM542.869 747.768c-6.020 0-11.793-2.305-16.047-6.409-4.258-4.104-6.652-9.67-6.652-15.473s2.394-11.37 6.652-15.474c4.254-4.104 10.027-6.409 16.047-6.409 57.425 0 105.088-18.075 142.81-52.738 19.383-18.951 34.5-41.403 44.399-65.999 9.941-24.64 14.481-50.944 13.299-77.292-0.124-2.871 0.337-5.743 1.361-8.444 1.028-2.701 2.594-5.18 4.612-7.296 4.079-4.279 9.749-6.818 15.77-7.061s11.895 1.826 16.329 5.76c4.437 3.93 7.070 9.399 7.322 15.202 1.408 32.412-4.173 64.75-16.388 94.975-12.267 30.368-30.869 57.985-54.652 81.142l-0.457 0.438c-46.801 43.11-106.039 65.080-174.404 65.080zM541.325 675.817c-6.020 0-11.793-2.306-16.047-6.409-4.258-4.104-6.647-9.67-6.647-15.474s2.389-11.37 6.647-15.473c4.254-4.104 10.027-6.409 16.047-6.409h0.772c41.399-2.845 71.543-16.15 92.651-37.989 21.653-22.496 32.866-50.462 32.004-85.040-0.141-5.803 2.121-11.422 6.276-15.62 4.16-4.198 9.877-6.63 15.898-6.763 6.020-0.137 11.849 2.044 16.201 6.050 4.356 4.011 6.882 9.523 7.019 15.33 1.088 45.384-14.071 84.554-44.122 115.803v0.087c-30.733 31.774-72.905 48.581-123.657 51.863l-0.772 0.087-2.27-0.044zM540.463 602.508c-3.038 0.259-6.097-0.076-8.998-0.983s-5.581-2.368-7.885-4.297c-2.3-1.929-4.173-4.284-5.513-6.927-1.335-2.642-2.108-5.518-2.266-8.454s0.299-5.873 1.344-8.635c1.045-2.762 2.654-5.293 4.736-7.441s4.591-3.871 7.377-5.064c2.786-1.193 5.794-1.832 8.845-1.879 18.974-0.963 31.095-6.477 38.72-13.873 7.671-7.441 13.393-19.388 14.438-38.076 0.055-2.935 0.725-5.833 1.967-8.516 1.242-2.679 3.029-5.094 5.261-7.095s4.855-3.55 7.718-4.553c2.863-1.003 5.905-1.438 8.947-1.28 3.042 0.154 6.025 0.9 8.759 2.189 2.739 1.289 5.18 3.093 7.177 5.312s3.511 4.8 4.45 7.595c0.943 2.795 1.289 5.743 1.024 8.67-1.455 26.257-9.988 49.454-27.465 66.522-17.57 17.069-41.489 25.385-68.638 26.785z" />
<glyph unicode="&#xe943;" glyph-name="ic-socials-vk" d="M917.461 175.744h-97.323c-36.821 0-47.915 29.824-113.92 95.872-57.685 55.595-82.048 62.507-96.64 62.507-20.181 0-25.685-5.547-25.685-33.323v-87.552c0-23.68-7.68-37.547-69.547-37.547-60.019 4.032-118.223 22.268-169.815 53.197-51.592 30.933-95.098 73.681-126.932 124.723-75.589 94.080-128.183 204.498-153.6 322.475 0 14.592 5.547 27.819 33.365 27.819h97.28c25.003 0 34.005-11.136 43.819-36.864 47.232-139.008 127.829-259.925 160.555-259.925 12.544 0 18.005 5.547 18.005 36.821v143.189c-4.139 65.323-38.827 70.827-38.827 94.464 0.439 6.236 3.291 12.055 7.952 16.222s10.762 6.352 17.008 6.092h152.917c20.907 0 27.819-10.411 27.819-35.413v-193.28c0-20.864 8.96-27.776 15.275-27.776 12.544 0 22.187 6.912 45.184 29.867 49.297 60.118 89.57 127.097 119.552 198.827 3.068 8.612 8.87 15.984 16.521 20.991s16.725 7.375 25.847 6.742h97.323c29.184 0 35.371-14.592 29.184-35.413-35.396-79.293-79.198-154.56-130.645-224.512-10.496-16-14.677-24.32 0-43.093 9.643-14.592 43.776-43.093 66.688-70.187 33.365-33.28 61.056-71.765 82.005-113.92 8.363-27.136-5.589-41.003-33.365-41.003z" />
<glyph unicode="&#xe944;" glyph-name="ic-socials-whatsapp" d="M512.043 874.667c235.648 0 426.667-191.019 426.667-426.667s-191.019-426.667-426.667-426.667c-75.401-0.124-149.476 19.831-214.613 57.813l-211.883-57.813 57.685 211.968c-38.012 65.156-57.982 139.264-57.856 214.699 0 235.648 191.019 426.667 426.667 426.667zM366.635 648.533l-8.533-0.341c-5.524-0.337-10.924-1.788-15.872-4.267-4.628-2.621-8.853-5.897-12.544-9.728-5.12-4.821-8.021-9.003-11.136-13.056-15.782-20.518-24.279-45.709-24.149-71.595 0.085-20.907 5.547-41.259 14.080-60.288 17.451-38.485 46.165-79.232 84.053-116.992 9.131-9.088 18.091-18.219 27.733-26.709 47.078-41.451 103.181-71.339 163.84-87.296l24.235-3.712c7.893-0.427 15.787 0.171 23.723 0.555 12.425 0.64 24.559 4.006 35.541 9.856 5.589 2.88 11.042 6.012 16.341 9.387 0 0 1.835 1.195 5.333 3.84 5.76 4.267 9.301 7.296 14.080 12.288 3.541 3.669 6.613 7.979 8.96 12.885 3.328 6.955 6.656 20.224 8.021 31.275 1.024 8.448 0.725 13.056 0.597 15.915-0.171 4.565-3.968 9.301-8.107 11.307l-24.832 11.136c0 0-37.12 16.171-59.819 26.496-2.377 1.037-4.919 1.63-7.509 1.749-2.918 0.299-5.871-0.030-8.649-0.964-2.782-0.934-5.333-2.453-7.479-4.454-0.213 0.085-3.072-2.347-33.92-39.723-1.771-2.381-4.211-4.177-7.006-5.167-2.795-0.986-5.824-1.118-8.695-0.38-2.778 0.747-5.504 1.685-8.149 2.816-5.291 2.219-7.125 3.072-10.752 4.608-24.486 10.688-47.159 25.126-67.2 42.795-5.376 4.693-10.368 9.813-15.488 14.763-16.785 16.077-31.415 34.261-43.52 54.101l-2.517 4.053c-1.808 2.722-3.27 5.662-4.352 8.747-1.621 6.272 2.603 11.307 2.603 11.307s10.368 11.349 15.189 17.493c4.693 5.973 8.661 11.776 11.221 15.915 5.035 8.107 6.613 16.427 3.968 22.869-11.947 29.184-24.32 58.24-37.035 87.083-2.517 5.717-9.984 9.813-16.768 10.624-2.304 0.256-4.608 0.512-6.912 0.683-5.73 0.285-11.472 0.228-17.195-0.171l8.576 0.341 0.043-0.043z" />
<glyph unicode="&#xe945;" glyph-name="ic-socials-youtube" d="M426.667 320l221.44 128-221.44 128v-256zM919.893 654.080c5.547-20.053 9.387-46.933 11.947-81.067 2.987-34.133 4.267-63.573 4.267-89.173l2.56-35.84c0-93.44-6.827-162.133-18.773-206.080-10.667-38.4-35.413-63.147-73.813-73.813-20.053-5.547-56.747-9.387-113.067-11.947-55.467-2.987-106.24-4.267-153.173-4.267l-67.84-2.56c-178.773 0-290.133 6.827-334.080 18.773-38.4 10.667-63.147 35.413-73.813 73.813-5.547 20.053-9.387 46.933-11.947 81.067-2.987 34.133-4.267 63.573-4.267 89.173l-2.56 35.84c0 93.44 6.827 162.133 18.773 206.080 10.667 38.4 35.413 63.147 73.813 73.813 20.053 5.547 56.747 9.387 113.067 11.947 55.467 2.987 106.24 4.267 153.173 4.267l67.84 2.56c178.773 0 290.133-6.827 334.080-18.773 38.4-10.667 63.147-35.413 73.813-73.813z" />
<glyph unicode="&#xe946;" glyph-name="SelectDown" d="M512 320l-170.667 213.333h341.333l-170.667-213.333z" />
<glyph unicode="&#xe947;" glyph-name="SelectUp" d="M512 576l-170.667-213.333h341.333l-170.667 213.333z" />
<glyph unicode="&#xe948;" glyph-name="ic24-search" d="M469.333 874.667c212.079 0 384-171.923 384-384 0-90.658-31.415-173.978-83.955-239.667l156.791-156.83c16.661-16.661 16.661-43.678 0-60.339-15.381-15.381-39.582-16.563-56.32-3.55l-4.019 3.55-156.83 156.791c-65.69-52.54-149.009-83.955-239.667-83.955-212.077 0-384 171.921-384 384 0 212.077 171.923 384 384 384zM469.333 789.333c-164.949 0-298.667-133.718-298.667-298.667s133.718-298.667 298.667-298.667c164.949 0 298.667 133.717 298.667 298.667s-133.717 298.667-298.667 298.667z" />
</font>
</defs>
</svg>
