<?xml version="1.0" standalone="no"?>
<!DOCTYPE svg PUBLIC "-//W3C//DTD SVG 1.1//EN" "http://www.w3.org/Graphics/SVG/1.1/DTD/svg11.dtd" >
<svg xmlns="http://www.w3.org/2000/svg">
<metadata>Generated by IcoMoon</metadata>
<defs>
<font id="icomoon" horiz-adv-x="1024">
<font-face units-per-em="1024" ascent="960" descent="-64" />
<missing-glyph horiz-adv-x="1024" />
<glyph unicode="&#x20;" horiz-adv-x="512" d="" />
<glyph unicode="&#xe900;" glyph-name="arrow-l" d="M128 448l337.779 341.333 47.625-48.128-256.035-259.072h723.965v-68.267h-723.965l256.035-259.072-47.625-48.128-337.779 341.333z" />
<glyph unicode="&#xe901;" glyph-name="arrow-r" d="M896 448l-337.779 341.333-47.625-48.128 256.034-259.072h-723.964v-68.267h723.964l-256.034-259.072 47.625-48.128 337.779 341.333z" />
<glyph unicode="&#xe902;" glyph-name="blockquote" d="M1024 45.714h-436.147v387.942c0 62.369 10.112 116.005 30.34 160.912 20.228 45.738 47.195 84.823 80.907 117.255 34.556 33.264 74.591 60.707 120.101 82.329 45.509 22.453 93.55 41.164 144.117 56.133l59.418-132.224c-37.083-13.306-68.264-27.027-93.55-41.164-24.441-13.305-44.668-28.69-60.683-46.154-15.17-16.632-26.127-36.175-32.867-58.628-6.744-21.621-10.116-47.4-10.116-77.338h198.48v-449.064zM437.413 45.714h-437.413v387.942c0 62.369 10.114 116.005 30.341 160.912 20.227 45.738 47.197 84.823 80.909 117.255 34.555 33.264 74.587 60.707 120.099 82.329 46.354 22.453 94.815 41.164 145.381 56.133l59.418-132.224c-37.083-13.306-68.264-27.027-93.55-41.164-24.441-13.305-44.668-28.69-60.682-46.154-15.17-16.632-26.127-36.175-32.869-58.628-6.743-21.621-10.114-47.4-10.114-77.338h198.479v-449.064z" />
<glyph unicode="&#xe903;" glyph-name="burger" d="M0 832h1024v-85.333h-1024v85.333zM0 490.667h1024v-85.333h-1024v85.333zM0 149.333h1024v-85.333h-1024v85.333z" />
<glyph unicode="&#xe904;" glyph-name="calendar" d="M810.667 149.333h-597.333v469.333h597.333zM682.667 917.333v-85.333h-341.333v85.333h-85.333v-85.333h-42.667c-47.36 0-85.333-37.973-85.333-85.333v-597.333c0-22.63 8.99-44.335 24.994-60.339s37.708-24.994 60.34-24.994h597.333c22.63 0 44.335 8.99 60.339 24.994s24.994 37.709 24.994 60.339v597.333c0 22.632-8.99 44.337-24.994 60.34s-37.709 24.994-60.339 24.994h-42.667v85.333zM725.333 448h-213.333v-213.333h213.333v213.333z" />
<glyph unicode="&#xe905;" glyph-name="calendar-star" d="M865.28 752.762c0 16.166-6.473 31.669-17.997 43.1-11.52 11.431-27.149 17.853-43.443 17.853h-122.88v60.952h-61.44v-60.952h-245.76v60.952h-61.44v-60.952h-122.88c-16.295 0-31.922-6.422-43.444-17.853s-17.996-26.934-17.996-43.1v-609.526c0-16.162 6.473-31.667 17.996-43.098s27.15-17.852 43.444-17.852h122.88v60.949h-122.88v609.526h122.88v-60.952h61.44v60.952h245.76v-60.952h61.44v60.952h122.88v-182.857h61.44v182.857zM650.24 478.477l78.306-150.494 167.454-24.107-122.88-117.15 30.72-165.393-153.6 78.080-153.6-78.080 30.72 165.393-122.88 117.15 172.032 24.107 73.728 150.494z" />
<glyph unicode="&#xe906;" glyph-name="check" d="M405.333 106.667l-320 327.526 50.275 51.456 269.725-276.032 483.059 494.383 50.274-51.458-533.333-545.876z" />
<glyph unicode="&#xe907;" glyph-name="chevron-down" d="M512 294.4l204.8 307.2h-409.6l204.8-307.2z" />
<glyph unicode="&#xe908;" glyph-name="chevron-down2" d="M938.667 652.344l-426.667-417.677-426.667 417.677 53.522 51.656 373.145-365.282 373.146 365.282 53.521-51.656z" />
<glyph unicode="&#xe909;" glyph-name="chevron-L" d="M588.343 21.333l-417.677 426.667 417.677 426.667 51.657-53.522-365.283-373.145 365.283-373.146-51.657-53.521z" />
<glyph unicode="&#xe90a;" d="M216.178 89.6v56.888h113.778v88.177c-23.229 5.217-43.965 15.048-62.208 29.496-18.242 14.454-31.64 32.589-40.192 54.415-35.555 4.27-65.299 19.789-89.23 46.566-23.931 26.772-35.907 58.184-35.926 94.235v85.334h113.778v56.889h284.445v-56.889h113.778v-85.334c0-36.030-11.976-67.442-35.927-94.235-23.946-26.798-53.693-42.317-89.228-46.566-8.534-21.806-21.921-39.946-40.164-54.415-18.243-14.464-38.988-24.3-62.236-29.496v-88.177h113.778v-56.888h-284.445zM216.178 379.735v108.087h-56.889v-28.445c0-18.013 5.215-34.259 15.645-48.723 10.429-14.469 24.178-24.776 41.244-30.92zM500.622 379.735c17.066 6.159 30.813 16.476 41.243 30.945s15.647 30.7 15.647 48.697v28.445h-56.889v-108.087z" />
<glyph unicode="&#xe90b;" d="M312.889 89.6v79.647h159.289v123.448c-32.521 7.301-61.552 21.064-87.091 41.293s-44.296 45.624-56.269 76.18c-49.778 5.975-91.419 27.704-124.922 65.189s-50.269 81.463-50.295 131.931v119.466h159.289v79.645h398.223v-79.645h159.288v-119.466c0-50.441-16.763-94.418-50.294-131.931-33.531-37.511-75.172-59.24-124.923-65.189-11.95-30.531-30.689-55.921-56.228-76.18-25.544-20.255-54.584-34.022-87.132-41.293v-123.448h159.288v-79.647h-398.223zM312.889 495.786v151.325h-79.644v-39.822c0-25.221 7.301-47.959 21.902-68.215s33.849-34.685 57.742-43.287zM711.112 495.786c23.895 8.628 43.141 23.071 57.743 43.327s21.898 42.981 21.898 68.175v39.822h-79.642v-151.325z" />
<glyph unicode="&#xe90c;" glyph-name="cursor" d="M678.524 422.677l179.081 77.841c11.797 5.231 21.739 13.905 28.514 24.887 6.78 10.98 10.082 23.753 9.472 36.643s-5.103 25.295-12.89 35.587c-7.782 10.291-18.496 17.989-30.737 22.083l-640.319 209.080c-11.205 3.667-23.206 4.158-34.673 1.418s-21.949-8.603-30.286-16.94c-8.336-8.336-14.2-18.819-16.94-30.286s-2.249-23.468 1.418-34.672l209.080-640.321c3.94-12.356 11.583-23.202 21.892-31.074s22.789-12.382 35.748-12.924h3.12c12.43-0.043 24.598 3.571 34.989 10.389 10.389 6.822 18.547 16.546 23.45 27.968l77.841 179.081 198.682-198.677c5.943-5.948 12.996-10.662 20.766-13.879 7.765-3.217 16.085-4.873 24.495-4.873 8.405 0 16.73 1.655 24.495 4.873s14.818 7.932 20.762 13.879l50.722 50.718c5.943 5.943 10.658 13.001 13.875 20.766s4.877 16.090 4.877 24.495c0 8.405-1.66 16.73-4.877 24.495s-7.932 14.822-13.875 20.766l-198.682 198.677zM781.205 128l-198.682 198.677c-7.373 7.39-16.439 12.86-26.415 15.94-9.971 3.081-20.548 3.674-30.805 1.728-10.253-1.946-19.878-6.37-28.032-12.885s-14.588-14.929-18.748-24.503l-77.639-178.637-208.92 639.679 639.48-208.8-178.598-77.68c-9.574-4.16-17.988-10.594-24.503-18.748s-10.94-17.779-12.885-28.032c-1.946-10.257-1.353-20.83 1.728-30.805 3.081-9.971 8.55-19.042 15.94-26.415l198.839-198.758-50.761-50.761z" />
<glyph unicode="&#xe90d;" glyph-name="document" d="M256 874.667c-22.632 0-44.337-8.99-60.34-24.994s-24.994-37.708-24.994-60.34v-682.667c0-22.63 8.99-44.335 24.994-60.339s37.708-24.994 60.34-24.994h512c22.63 0 44.335 8.99 60.339 24.994s24.994 37.709 24.994 60.339v434.014c-0.009 33.943-13.5 66.498-37.504 90.496l-205.99 205.99c-24 24.003-56.559 37.492-90.5 37.499h-263.339zM256 106.667v682.667h213.333v-213.333c0-22.632 8.99-44.335 24.994-60.339s37.709-24.994 60.339-24.994h213.333v-384h-512zM750.327 576l-195.661 195.66v-195.66h195.661z" />
<glyph unicode="&#xe90e;" glyph-name="dzen" d="M1004.494 442.672v10.655c-220.265 7.107-320.805 12.434-401.452 90.595-78.158 80.644-83.842 181.185-90.592 401.449h-10.658c-7.104-220.264-12.434-320.805-90.592-401.449-80.644-78.16-181.186-83.842-401.45-90.595v-10.655c220.264-7.107 320.806-12.434 401.45-90.595 78.158-80.644 83.842-181.184 90.592-401.449h10.658c7.107 220.265 12.434 320.805 90.592 401.449 80.647 78.16 181.187 83.842 401.452 90.595z" />
<glyph unicode="&#xe90f;" glyph-name="external" d="M810.667 405.333v-256c0-22.63-8.99-44.335-24.994-60.339s-37.709-24.994-60.339-24.994h-512c-22.632 0-44.337 8.99-60.34 24.994s-24.994 37.709-24.994 60.339v512c0 22.632 8.99 44.337 24.994 60.34s37.708 24.994 60.34 24.994h256v-85.333h-256v-512h512v256h85.333zM554.667 832v-85.333h195.669l-332.501-332.501 60.331-60.331 332.501 332.501v-195.669h85.333v341.333h-341.333z" />
<glyph unicode="&#xe910;" glyph-name="eye" d="M166.301 607.433c80.707 67.871 199.927 139.234 345.699 139.234 145.771 0 264.99-71.363 345.698-139.234 40.666-34.199 72.538-68.319 94.276-93.914 10.893-12.821 19.302-23.578 25.054-31.223 2.88-3.827 5.099-6.882 6.639-9.037 0.35-0.495 0.666-0.943 0.947-1.34 0.333-0.474 0.614-0.875 0.845-1.207l0.512-0.738 0.158-0.23 0.094-0.132 16.444-24.205-20.429-24.026-1.498-1.715c-1.818-2.069-4.45-5.035-7.846-8.772-6.793-7.462-16.657-18.014-29.154-30.63-24.951-25.178-60.651-58.807-103.62-92.535-84.19-66.082-203.61-138.394-328.119-138.394s-243.928 72.311-328.118 138.394c-42.972 33.728-78.67 67.358-103.621 92.535-12.499 12.617-22.361 23.168-29.154 30.63-3.398 3.738-6.032 6.703-7.848 8.772-0.908 1.033-1.612 1.843-2.106 2.415l-0.581 0.674-0.17 0.201-0.055 0.064-19.015 22.387 17.206 25.305c0.373 0.538 0.879 1.259 1.515 2.15l0.28 0.397c1.538 2.155 3.757 5.21 6.636 9.037 5.754 7.646 14.162 18.402 25.053 31.223 21.74 25.595 53.612 59.715 94.278 93.914zM121.975 450.278c4.433-4.676 9.524-9.95 15.226-15.701 23.304-23.518 56.541-54.814 96.291-86.012 81.254-63.778 182.427-121.318 278.509-121.318s197.257 57.54 278.511 121.318c39.748 31.198 72.986 62.494 96.29 86.012 5.7 5.751 10.79 11.025 15.223 15.701-3.264 4.058-6.955 8.533-11.055 13.363-19.622 23.1-48.414 53.905-84.954 84.635-18.419 15.491-38.566 30.763-60.284 44.959 16.934-30.253 26.564-64.997 26.564-101.95 0-117.137-96.785-212.096-216.179-212.096-119.39 0-216.179 94.959-216.179 212.096 0 67.41 32.054 127.476 82.024 166.325-80.322-19.875-149.663-63.656-203.98-109.334-36.541-30.73-65.331-61.536-84.952-84.635-4.101-4.83-7.79-9.306-11.056-13.363zM556.117 625.469c-75.533 0-136.766-60.076-136.766-134.183s61.233-134.182 136.766-134.182c75.537 0 136.768 60.075 136.768 134.182s-61.231 134.183-136.768 134.183z" />
<glyph unicode="&#xe911;" glyph-name="filter" d="M204.8 601.6h614.4v-76.8h-614.4v76.8zM358.4 448h307.2v-76.8h-307.2v76.8zM435.2 294.4h153.6v-76.8h-153.6v76.8z" />
<glyph unicode="&#xe912;" glyph-name="hourse" d="M819.2 607.289v-318.577l-115.2-39.823-118.656 219.023c-9.984 18.318-38.016 9.159-34.944-12.345l38.4-365.966-384 159.288 44.16 320.968c9.080 65.644 40.672 125.694 88.985 169.14s110.108 67.377 174.055 67.404h307.2l-60.672-94.378c36.096-20.31 60.672-59.335 60.672-104.733z" />
<glyph unicode="&#xe913;" glyph-name="location" d="M753.348 733.172c62.665-61.94 98.505-145.544 99.938-233.132 1.438-87.59-31.642-172.301-92.241-236.215l-7.697-7.872-160.917-159.036c-20.416-20.173-47.825-31.915-76.676-32.858-28.851-0.939-56.986 8.998-78.703 27.797l-5.461 5.060-160.951 159.074c-64.011 63.279-99.972 149.103-99.972 238.588 0 89.491 35.961 175.315 99.972 238.593s150.829 98.828 241.353 98.828c90.526 0 177.344-35.549 241.357-98.828zM511.991 607.054c-14.938 0-29.734-2.909-43.537-8.561s-26.347-13.937-36.911-24.381c-10.566-10.444-18.947-22.843-24.664-36.489s-8.661-28.272-8.661-43.043c0-14.767 2.943-29.393 8.661-43.038 5.717-13.649 14.098-26.048 24.664-36.489 10.564-10.445 23.108-18.731 36.911-24.384 13.803-5.649 28.599-8.559 43.537-8.559 30.178 0 59.115 11.849 80.452 32.943 21.338 21.090 33.323 49.698 33.323 79.526 0 29.833-11.985 58.439-33.323 79.532s-50.274 32.943-80.452 32.943z" />
<glyph unicode="&#xe914;" glyph-name="plus" d="M546.135 755.2h-68.269v-273.066h-273.066v-68.269h273.066v-273.065h68.269v273.065h273.065v68.269h-273.065v273.066z" />
<glyph unicode="&#xe915;" glyph-name="price" d="M479.304 452.69h70.508c15.964 0 29.005 2.215 39.112 6.645 10.291 4.6 17.828 11.075 22.62 19.423 4.966 8.519 7.45 18.486 7.45 29.902 0 11.075-2.483 21.042-7.45 29.902-4.792 8.86-12.155 15.93-22.088 21.212-9.754 5.282-22.17 7.923-37.248 7.923h-72.904v-115.006zM512 89.6c-197.939 0-358.4 160.461-358.4 358.4s160.461 358.4 358.4 358.4c197.939 0 358.4-160.461 358.4-358.4s-160.461-358.4-358.4-358.4zM479.304 389.565h72.904c30.684 0.169 57.027 5.11 79.022 14.822 22.175 9.713 39.199 23.598 51.087 41.656 12.063 18.061 18.002 39.188 17.823 63.382 0.179 23.172-5.586 43.958-17.29 62.36-11.709 18.401-28.646 32.968-50.821 43.702-21.996 10.734-48.604 16.101-79.821 16.101h-153.788v-178.899h-56.673v-63.124h56.673v-25.047h-56.673v-63.124h56.673v-50.606h80.885v50.606h86.472v63.124h-86.472v25.047z" />
<glyph unicode="&#xe916;" glyph-name="shevron-R" d="M435.657 874.667l417.677-426.667-417.677-426.667-51.657 53.521 365.282 373.146-365.282 373.145 51.657 53.522z" />
<glyph unicode="&#xe917;" glyph-name="star" d="M490.556 839.399c3.997 24.267 38.893 24.267 42.886 0l14.326-86.957c22.712-137.889 130.785-245.963 268.672-268.676l86.958-14.323c24.269-3.997 24.269-38.893 0-42.886l-86.958-14.326c-137.887-22.712-245.96-130.785-268.672-268.672l-14.326-86.958c-3.994-24.269-38.889-24.269-42.886 0l-14.323 86.958c-22.713 137.887-130.786 245.96-268.676 268.672l-86.957 14.326c-24.267 3.994-24.267 38.889 0 42.886l86.957 14.323c137.889 22.713 245.963 130.786 268.676 268.676l14.323 86.957z" />
<glyph unicode="&#xe918;" glyph-name="star2" d="M491.674 774.263c6.178 20.094 34.475 20.094 40.653 0l65.434-212.865c2.752-8.96 10.995-15.071 20.322-15.071h213.935c20.352 0 29.086-25.96 12.915-38.376l-174.882-134.302c-7.087-5.44-10.044-14.746-7.411-23.309l66.359-215.876c6.118-19.895-16.777-35.947-33.237-23.309l-170.846 131.204c-7.625 5.854-18.206 5.854-25.83 0l-170.847-131.204c-16.458-12.638-39.353 3.413-33.238 23.309l66.362 215.876c2.632 8.563-0.326 17.869-7.411 23.309l-174.884 134.302c-16.169 12.416-7.434 38.376 12.914 38.376h213.935c9.329 0 17.57 6.111 20.325 15.071l65.433 212.865z" />
<glyph unicode="&#xe919;" glyph-name="trophy" d="M896 789.333h-128v42.667c0 11.316-4.497 22.168-12.497 30.17s-18.854 12.497-30.17 12.497h-426.667c-11.316 0-22.168-4.495-30.17-12.497s-12.497-18.854-12.497-30.17v-42.667h-128c-11.316 0-22.168-4.495-30.17-12.497s-12.497-18.854-12.497-30.17v-128c0-183.893 76.757-294.827 205.611-299.179 18.863-32.418 44.619-60.297 75.444-81.664 30.826-21.363 65.97-35.699 102.945-41.984v-89.173h-85.333v-85.333h256v85.333h-85.333v89.173c36.966 6.31 72.102 20.655 102.921 42.018 30.822 21.363 56.585 49.229 75.469 81.63 128.853 4.352 205.611 115.285 205.611 299.179v128c0 11.316-4.497 22.168-12.497 30.17s-18.854 12.497-30.17 12.497zM170.667 618.667v85.333h85.333v-291.413c-76.117 32.085-85.333 150.656-85.333 206.080zM512 277.333c-94.123 0-170.667 76.544-170.667 170.667v341.333h341.333v-341.333c0-94.123-76.544-170.667-170.667-170.667zM768 412.587v291.413h85.333v-85.333c0-55.424-9.216-173.995-85.333-206.080z" />
<glyph unicode="&#xe91a;" glyph-name="close" d="M838.835 724.556l-50.283 50.283-276.557-276.556-276.556 276.556-50.283-50.283 276.557-276.556-276.557-276.561 50.283-50.283 276.556 276.557 276.557-276.557 50.283 50.283-276.557 276.561 276.557 276.556z" />
<glyph unicode="&#xe93e;" glyph-name="ic-socials-facebook" d="M645.12 733.013h80.213v135.68c-38.835 4.038-77.858 6.032-116.907 5.973-116.053 0-195.413-70.827-195.413-200.533v-111.787h-130.987v-151.893h130.987v-389.12h157.013v389.12h130.56l19.627 151.893h-150.187v96.853c0 44.8 11.947 73.813 75.093 73.813z" />
<glyph unicode="&#xe93f;" glyph-name="ic-socials-instagram" d="M649.259 873.685c-31.125 0.745-62.263 1.058-93.397 0.939l-87.723 0.043c-31.121 0.075-62.243-0.28-93.355-1.067l-8.277-0.213-30.379-1.28c-45.44-2.133-76.373-9.301-103.595-19.84-28.46-10.734-54.234-27.552-75.52-49.28-21.761-21.267-38.598-47.045-49.323-75.52-10.539-27.221-17.707-58.155-19.84-103.595-0.512-11.349-0.939-20.821-1.28-30.379l-0.299-8.277c-0.745-31.113-1.058-62.234-0.939-93.355v-87.723c-0.076-31.134 0.28-62.272 1.067-93.397l0.213-8.277c0.378-10.129 0.805-20.254 1.28-30.379 2.133-45.397 9.301-76.373 19.84-103.552 10.719-28.484 27.522-54.285 49.237-75.605 21.301-21.709 47.090-38.498 75.563-49.195 27.221-10.496 58.197-17.749 103.595-19.883 10.124-0.486 20.25-0.913 30.379-1.28l8.277-0.256c31.127-0.759 62.263-1.088 93.397-0.981l87.68 0.043c31.134-0.102 62.272 0.222 93.397 0.981l8.277 0.256c9.259 0.329 18.398 0.742 29.316 1.233l1.062 0.047c45.397 2.133 76.373 9.301 103.552 19.84 28.471 10.718 54.272 27.507 75.605 49.195 21.722 21.308 38.511 47.113 49.195 75.605 10.496 27.179 17.749 58.155 19.883 103.552l0.047 1.088c0.491 10.91 0.905 20.041 1.233 29.291l0.256 8.277c0.759 31.125 1.088 62.263 0.981 93.397v55.893l-0.043 31.829c0.102 31.121-0.222 62.243-0.981 93.355l-0.256 8.277c-0.341 9.557-0.768 19.029-1.28 30.379-2.133 45.397-9.301 76.416-19.84 103.595-10.718 28.461-27.503 54.246-49.195 75.563-23.723 23.723-47.445 38.4-75.605 49.237-27.179 10.539-58.155 17.707-103.552 19.84l-1.045 0.047c-10.927 0.491-20.070 0.902-29.333 1.233l-8.277 0.299zM429.44 645.928c26.231 10.54 54.293 15.763 82.56 15.363 56.58 0 110.844-22.434 150.848-62.441 40.009-40.008 62.485-94.269 62.485-150.849s-22.477-110.844-62.485-150.848c-40.004-40.009-94.268-62.485-150.848-62.485-28.267-0.401-56.329 4.821-82.56 15.364-26.231 10.539-50.106 26.189-70.236 46.037-20.131 19.844-36.115 43.494-47.025 69.577-10.91 26.078-16.529 54.063-16.529 82.334s5.619 56.256 16.529 82.334c10.91 26.080 26.895 49.731 47.025 69.578s44.004 35.497 70.236 46.037zM699.674 708.951c9.545 9.934 22.562 15.789 36.326 16.34v0.085c14.144 0 27.712-5.619 37.713-15.621s15.62-23.567 15.62-37.712c0-14.145-5.619-27.71-15.62-37.712s-23.569-15.621-37.713-15.621c-13.764 0.551-26.782 6.406-36.326 16.34s-14.874 23.175-14.874 36.951c0 13.775 5.329 27.017 14.874 36.951zM512 575.957c17.003 0.313 33.899-2.765 49.698-9.054s30.187-15.664 42.325-27.577c12.134-11.91 21.777-26.123 28.356-41.803 6.583-15.684 9.975-32.516 9.98-49.523 0-17.007-3.383-33.843-9.963-49.523-6.575-15.684-16.213-29.897-28.343-41.813-12.134-11.917-26.517-21.299-42.317-27.593-15.795-6.293-32.691-9.378-49.694-9.071-33.946 0-66.505 13.487-90.51 37.491s-37.49 56.559-37.49 90.509c0 33.946 13.486 66.505 37.49 90.51s56.564 37.49 90.51 37.49l-0.043-0.043z" />
<glyph unicode="&#xe940;" glyph-name="ic-socials-odnoklassniki" d="M760.747 416.427c-11.947 24.32-45.653 44.8-90.453 10.24-61.013-48.64-158.293-48.64-158.293-48.64s-97.28 0-158.293 48.64c-44.8 34.56-78.507 14.080-90.453-10.24-21.333-42.667 2.56-63.573 56.747-98.133 46.507-29.867 110.080-40.96 151.040-45.227l-34.133-34.133c-48.64-48.213-95.573-94.72-127.573-127.147-19.2-19.627-19.2-50.773 0-69.12l5.973-6.827c19.2-19.2 50.773-19.2 69.973 0l126.72 127.147c49.067-48.213 95.573-94.72 128-127.147 19.2-19.2 50.347-19.2 69.973 0l5.547 6.827c19.627 18.347 19.627 49.493 0 69.12l-127.147 127.147-33.707 34.56c40.533 3.84 103.253 15.36 149.333 44.8 54.187 34.56 78.080 55.467 56.747 98.133zM512 765.013c58.88 0 106.667-47.787 106.667-106.24 0-58.88-47.787-106.24-106.667-106.24s-106.667 47.36-106.667 106.24c0 58.453 47.787 106.24 106.667 106.24zM512 442.88c119.467 0 215.893 96.427 215.893 215.893 0 57.259-22.746 112.172-63.232 152.66-40.491 40.488-95.403 63.234-152.661 63.234s-112.172-22.746-152.66-63.234c-40.488-40.488-63.234-95.401-63.234-152.66 0-119.467 96.427-215.893 215.893-215.893z" />
<glyph unicode="&#xe941;" glyph-name="ic-socials-telegram" d="M850.274 784.371c10.492 4.394 21.978 5.909 33.259 4.388s21.943-6.022 30.882-13.035c8.939-7.013 15.825-16.282 19.942-26.842s5.312-22.025 3.465-33.201l-96.29-581.154c-9.344-56.060-71.159-88.209-122.829-60.284-43.221 23.36-107.418 59.354-165.158 96.909-28.873 18.799-117.308 78.997-106.441 121.83 9.34 36.629 157.939 174.259 242.854 256.087 33.327 32.148 18.129 50.693-21.227 21.122-97.779-73.42-254.659-185.071-306.541-216.503-45.769-27.712-69.629-32.444-98.161-27.712-52.052 8.619-100.326 21.969-139.726 38.234-53.241 21.965-50.651 94.793-0.043 116.002l726.013 304.158z" />
<glyph unicode="&#xe942;" glyph-name="ic-socials-viber" d="M728.849 851.582l15.39-3.326c40.183-8.652 77.090-27.877 106.62-55.537s50.526-62.672 60.659-101.146c36.198-137.536 36.198-281.61 0-419.15-10.129-38.468-31.121-73.476-60.642-101.133-29.521-27.661-66.419-46.891-106.59-55.548l-15.437-3.285c-90.987-19.614-184.388-26.786-277.449-21.312l-123.973-106.923c-3.028-2.603-6.724-4.378-10.705-5.137s-8.099-0.478-11.928 0.819c-3.829 1.293-7.227 3.554-9.841 6.549-2.614 2.991-4.348 6.605-5.022 10.462l-21.108 121.498c-37.833 10.108-72.22 29.683-99.676 56.738s-47.004 60.629-56.663 97.318c-36.202 137.536-36.202 281.611 0 419.147 10.128 38.469 31.119 73.477 60.641 101.136s66.419 46.887 106.592 55.547l15.389 3.282c142.819 30.78 290.924 30.78 433.742 0zM333.42 695.162c-8.437 1.184-17.040-0.454-24.377-4.639h-0.635c-17.023-9.629-32.367-21.752-45.44-36.020-10.895-12.123-16.796-24.378-18.339-36.195-0.908-7.003-0.272-14.093 1.861-20.789l0.817-0.438c12.256-34.707 28.235-68.1 47.755-99.524 25.169-44.139 56.142-84.958 92.151-121.451l1.090-1.489 1.725-1.225 1.044-1.182 1.271-1.050c37.981-34.825 80.422-64.828 126.289-89.284 52.429-27.529 84.25-40.529 103.36-45.956v-0.26c5.585-1.664 10.671-2.406 15.799-2.406 16.277 1.161 31.68 7.539 43.759 18.116 14.754 12.608 27.238 27.443 36.954 43.942v0.307c9.122 16.631 6.037 32.299-7.13 42.935-26.441 22.276-55.036 42.061-85.385 59.085-20.339 10.633-40.994 4.198-49.344-6.566l-17.843-21.709c-9.169-10.765-25.783-9.276-25.783-9.276l-0.452-0.265c-123.972 30.507-157.065 151.518-157.065 151.518s-1.543 16.457 9.941 24.86l22.334 17.332c10.713 8.403 18.158 28.273 6.673 47.88-17.54 29.29-38.020 56.849-61.146 82.281-5.044 5.985-12.117 10.061-19.974 11.51l0.091-0.044zM542.869 747.768c-6.020 0-11.793-2.305-16.047-6.409-4.258-4.104-6.652-9.67-6.652-15.473s2.394-11.37 6.652-15.474c4.254-4.104 10.027-6.409 16.047-6.409 57.425 0 105.088-18.075 142.81-52.738 19.383-18.951 34.5-41.403 44.399-65.999 9.941-24.64 14.481-50.944 13.299-77.292-0.124-2.871 0.337-5.743 1.361-8.444 1.028-2.701 2.594-5.18 4.612-7.296 4.079-4.279 9.749-6.818 15.77-7.061s11.895 1.826 16.329 5.76c4.437 3.93 7.070 9.399 7.322 15.202 1.408 32.412-4.173 64.75-16.388 94.975-12.267 30.368-30.869 57.985-54.652 81.142l-0.457 0.438c-46.801 43.11-106.039 65.080-174.404 65.080zM541.325 675.817c-6.020 0-11.793-2.306-16.047-6.409-4.258-4.104-6.647-9.67-6.647-15.474s2.389-11.37 6.647-15.473c4.254-4.104 10.027-6.409 16.047-6.409h0.772c41.399-2.845 71.543-16.15 92.651-37.989 21.653-22.496 32.866-50.462 32.004-85.040-0.141-5.803 2.121-11.422 6.276-15.62 4.16-4.198 9.877-6.63 15.898-6.763 6.020-0.137 11.849 2.044 16.201 6.050 4.356 4.011 6.882 9.523 7.019 15.33 1.088 45.384-14.071 84.554-44.122 115.803v0.087c-30.733 31.774-72.905 48.581-123.657 51.863l-0.772 0.087-2.27-0.044zM540.463 602.508c-3.038 0.259-6.097-0.076-8.998-0.983s-5.581-2.368-7.885-4.297c-2.3-1.929-4.173-4.284-5.513-6.927-1.335-2.642-2.108-5.518-2.266-8.454s0.299-5.873 1.344-8.635c1.045-2.762 2.654-5.293 4.736-7.441s4.591-3.871 7.377-5.064c2.786-1.193 5.794-1.832 8.845-1.879 18.974-0.963 31.095-6.477 38.72-13.873 7.671-7.441 13.393-19.388 14.438-38.076 0.055-2.935 0.725-5.833 1.967-8.516 1.242-2.679 3.029-5.094 5.261-7.095s4.855-3.55 7.718-4.553c2.863-1.003 5.905-1.438 8.947-1.28 3.042 0.154 6.025 0.9 8.759 2.189 2.739 1.289 5.18 3.093 7.177 5.312s3.511 4.8 4.45 7.595c0.943 2.795 1.289 5.743 1.024 8.67-1.455 26.257-9.988 49.454-27.465 66.522-17.57 17.069-41.489 25.385-68.638 26.785z" />
<glyph unicode="&#xe943;" glyph-name="ic-socials-vk" d="M917.461 175.744h-97.323c-36.821 0-47.915 29.824-113.92 95.872-57.685 55.595-82.048 62.507-96.64 62.507-20.181 0-25.685-5.547-25.685-33.323v-87.552c0-23.68-7.68-37.547-69.547-37.547-60.019 4.032-118.223 22.268-169.815 53.197-51.592 30.933-95.098 73.681-126.932 124.723-75.589 94.080-128.183 204.498-153.6 322.475 0 14.592 5.547 27.819 33.365 27.819h97.28c25.003 0 34.005-11.136 43.819-36.864 47.232-139.008 127.829-259.925 160.555-259.925 12.544 0 18.005 5.547 18.005 36.821v143.189c-4.139 65.323-38.827 70.827-38.827 94.464 0.439 6.236 3.291 12.055 7.952 16.222s10.762 6.352 17.008 6.092h152.917c20.907 0 27.819-10.411 27.819-35.413v-193.28c0-20.864 8.96-27.776 15.275-27.776 12.544 0 22.187 6.912 45.184 29.867 49.297 60.118 89.57 127.097 119.552 198.827 3.068 8.612 8.87 15.984 16.521 20.991s16.725 7.375 25.847 6.742h97.323c29.184 0 35.371-14.592 29.184-35.413-35.396-79.293-79.198-154.56-130.645-224.512-10.496-16-14.677-24.32 0-43.093 9.643-14.592 43.776-43.093 66.688-70.187 33.365-33.28 61.056-71.765 82.005-113.92 8.363-27.136-5.589-41.003-33.365-41.003z" />
<glyph unicode="&#xe944;" glyph-name="ic-socials-whatsapp" d="M512.043 874.667c235.648 0 426.667-191.019 426.667-426.667s-191.019-426.667-426.667-426.667c-75.401-0.124-149.476 19.831-214.613 57.813l-211.883-57.813 57.685 211.968c-38.012 65.156-57.982 139.264-57.856 214.699 0 235.648 191.019 426.667 426.667 426.667zM366.635 648.533l-8.533-0.341c-5.524-0.337-10.924-1.788-15.872-4.267-4.628-2.621-8.853-5.897-12.544-9.728-5.12-4.821-8.021-9.003-11.136-13.056-15.782-20.518-24.279-45.709-24.149-71.595 0.085-20.907 5.547-41.259 14.080-60.288 17.451-38.485 46.165-79.232 84.053-116.992 9.131-9.088 18.091-18.219 27.733-26.709 47.078-41.451 103.181-71.339 163.84-87.296l24.235-3.712c7.893-0.427 15.787 0.171 23.723 0.555 12.425 0.64 24.559 4.006 35.541 9.856 5.589 2.88 11.042 6.012 16.341 9.387 0 0 1.835 1.195 5.333 3.84 5.76 4.267 9.301 7.296 14.080 12.288 3.541 3.669 6.613 7.979 8.96 12.885 3.328 6.955 6.656 20.224 8.021 31.275 1.024 8.448 0.725 13.056 0.597 15.915-0.171 4.565-3.968 9.301-8.107 11.307l-24.832 11.136c0 0-37.12 16.171-59.819 26.496-2.377 1.037-4.919 1.63-7.509 1.749-2.918 0.299-5.871-0.030-8.649-0.964-2.782-0.934-5.333-2.453-7.479-4.454-0.213 0.085-3.072-2.347-33.92-39.723-1.771-2.381-4.211-4.177-7.006-5.167-2.795-0.986-5.824-1.118-8.695-0.38-2.778 0.747-5.504 1.685-8.149 2.816-5.291 2.219-7.125 3.072-10.752 4.608-24.486 10.688-47.159 25.126-67.2 42.795-5.376 4.693-10.368 9.813-15.488 14.763-16.785 16.077-31.415 34.261-43.52 54.101l-2.517 4.053c-1.808 2.722-3.27 5.662-4.352 8.747-1.621 6.272 2.603 11.307 2.603 11.307s10.368 11.349 15.189 17.493c4.693 5.973 8.661 11.776 11.221 15.915 5.035 8.107 6.613 16.427 3.968 22.869-11.947 29.184-24.32 58.24-37.035 87.083-2.517 5.717-9.984 9.813-16.768 10.624-2.304 0.256-4.608 0.512-6.912 0.683-5.73 0.285-11.472 0.228-17.195-0.171l8.576 0.341 0.043-0.043z" />
<glyph unicode="&#xe945;" glyph-name="ic-socials-youtube" d="M426.667 320l221.44 128-221.44 128v-256zM919.893 654.080c5.547-20.053 9.387-46.933 11.947-81.067 2.987-34.133 4.267-63.573 4.267-89.173l2.56-35.84c0-93.44-6.827-162.133-18.773-206.080-10.667-38.4-35.413-63.147-73.813-73.813-20.053-5.547-56.747-9.387-113.067-11.947-55.467-2.987-106.24-4.267-153.173-4.267l-67.84-2.56c-178.773 0-290.133 6.827-334.080 18.773-38.4 10.667-63.147 35.413-73.813 73.813-5.547 20.053-9.387 46.933-11.947 81.067-2.987 34.133-4.267 63.573-4.267 89.173l-2.56 35.84c0 93.44 6.827 162.133 18.773 206.080 10.667 38.4 35.413 63.147 73.813 73.813 20.053 5.547 56.747 9.387 113.067 11.947 55.467 2.987 106.24 4.267 153.173 4.267l67.84 2.56c178.773 0 290.133-6.827 334.080-18.773 38.4-10.667 63.147-35.413 73.813-73.813z" />
</font>
</defs>
</svg>
