<svg width="24" height="24" viewBox="0 0 24 24" fill="none" xmlns="http://www.w3.org/2000/svg">
<path d="M9.32 13C8.80501 13.0106 8.34838 12.8018 7.92 12.5333L10.58 9.94722C9.51954 8.77795 8.10343 8.21982 6.56 7.94445V6C10.6558 6.97156 13.566 9.14748 16.08 12.5333C15.6516 12.8028 15.1955 13.0109 14.68 13C13.7473 12.9803 12.9783 12.2222 12 12.2222C11.0218 12.2222 10.2525 12.9808 9.32 13ZM15.76 9.88889C15.2 9.88889 14.7267 9.70093 14.34 9.325C13.9533 8.94907 13.76 8.48889 13.76 7.94445C13.76 7.41296 13.9533 6.95589 14.34 6.57322C14.7267 6.19056 15.2 5.99948 15.76 6C16.32 6 16.7933 6.19133 17.18 6.574C17.5667 6.95667 17.76 7.41348 17.76 7.94445C17.76 8.48889 17.5667 8.94907 17.18 9.325C16.7933 9.70093 16.32 9.88889 15.76 9.88889Z" fill="black"/>
<path d="M4 14.9444C4.91529 14.9444 5.68176 14.1742 6.64 14.1667C7.26421 14.1617 7.59312 14.3741 8.1904 14.5556C8.63681 14.6911 8.85346 14.9431 9.32 14.9444C10.2329 14.947 11.0417 14.1667 12 14.1667C12.9588 14.1667 13.7663 14.9444 14.68 14.9444C15.5954 14.9444 16.3991 14.1606 17.36 14.1667C18.3191 14.1727 19.0841 14.9444 20 14.9444V18H4V14.9444Z" fill="black"/>

</svg>
