<svg width="24" height="24" viewBox="0 0 24 24" fill="none" xmlns="http://www.w3.org/2000/svg">
<path d="M12 5C12.9193 5 13.8295 5.18106 14.6788 5.53284C15.5281 5.88463 16.2997 6.40024 16.9497 7.05025C17.5998 7.70026 18.1154 8.47194 18.4672 9.32122C18.8189 10.1705 19 11.0807 19 12C19 13.8565 18.2625 15.637 16.9497 16.9497C15.637 18.2625 13.8565 19 12 19C11.0807 19 10.1705 18.8189 9.32122 18.4672C8.47194 18.1154 7.70026 17.5998 7.05025 16.9497C5.7375 15.637 5 13.8565 5 12C5 10.1435 5.7375 8.36301 7.05025 7.05025C8.36301 5.7375 10.1435 5 12 5ZM12.35 11.3C12.0715 11.3 11.8045 11.4106 11.6075 11.6075C11.4106 11.8045 11.3 12.0715 11.3 12.35C11.3 12.6285 11.4106 12.8955 11.6075 13.0925C11.8045 13.2894 12.0715 13.4 12.35 13.4C12.6285 13.4 12.8955 13.2894 13.0925 13.0925C13.2894 12.8955 13.4 12.6285 13.4 12.35C13.4 12.0715 13.2894 11.8045 13.0925 11.6075C12.8955 11.4106 12.6285 11.3 12.35 11.3ZM12 7.1C11.6287 7.1 11.2726 7.2475 11.0101 7.51005C10.7475 7.7726 10.6 8.1287 10.6 8.5C10.6 8.8713 10.7475 9.2274 11.0101 9.48995C11.2726 9.7525 11.6287 9.9 12 9.9C12.3713 9.9 12.7274 9.7525 12.9899 9.48995C13.2525 9.2274 13.4 8.8713 13.4 8.5C13.4 8.1287 13.2525 7.7726 12.9899 7.51005C12.7274 7.2475 12.3713 7.1 12 7.1ZM7.751 9.55C7.366 10.215 7.597 11.069 8.262 11.454C8.934 11.846 9.788 11.615 10.18 10.95C10.565 10.271 10.334 9.417 9.662 9.032C8.997 8.647 8.15 8.871 7.751 9.55Z" fill="black"/>
</svg>
