<svg width="24" height="24" viewBox="0 0 24 24" fill="none" xmlns="http://www.w3.org/2000/svg">
<path fill-rule="evenodd" clip-rule="evenodd" d="M17.0071 6.42099C16.5938 5.40756 15.8979 4.54217 15.0071 3.93354C14.1162 3.32492 13.07 3.00021 12 3.00021C10.93 3.00021 9.8838 3.32492 8.99293 3.93354C8.10206 4.54217 7.40624 5.40756 6.99287 6.42099C6.10338 6.84414 5.34958 7.51854 4.8196 8.36536C4.28961 9.21218 4.00534 10.1964 4.00002 11.203C3.99216 14.0502 6.24001 16.9777 9.01001 17.051C9.64028 17.0679 10.2663 16.9651 10.8571 16.7496V21.0002H13.1429V16.7469C13.7263 16.955 14.3476 17.051 14.99 17.051C17.76 16.9777 20.0078 14.0517 20 11.2045C19.9952 10.1976 19.7112 9.21291 19.1811 8.36576C18.6511 7.51861 17.897 6.84403 17.0071 6.42099ZM12.5714 15.3752V10.5395L15.7376 8.53587L15.1196 7.58955L12.5714 9.20204V6.37521H11.4286V11.7646L8.31245 9.76139L7.68755 10.7033L11.4286 13.1083V15.3752H12.5714Z" fill="black"/>
</svg>
