<svg width="24" height="24" viewBox="0 0 24 24" fill="none" xmlns="http://www.w3.org/2000/svg">
<path d="M7.74622 14.0389C6.92527 13.9676 6.09743 14.0649 5.32196 14.3238L5 14.4369L5.19813 14.6983C6.61547 16.5936 9.64615 17.4916 12.0004 16.7283C14.3546 17.4916 17.3874 16.5936 18.8026 14.6983L19 14.4369L18.6745 14.3238C17.899 14.0649 17.0712 13.9676 16.2502 14.0389C17.4532 12.935 18.2549 11.5109 18.4438 10.0965L18.487 9.77695L18.141 9.81617C16.8835 9.9593 15.2313 10.5665 13.9767 11.8324C14.1911 9.88218 13.6392 8.17637 12.224 6.28103L12.0117 6L11.9982 6.01569L11.9848 6L11.7725 6.28103C10.3552 8.17245 9.80748 9.88218 10.0198 11.8324C8.76518 10.5665 7.11291 9.9593 5.8555 9.81617L5.50948 9.77695L5.55264 10.0965C5.74157 11.5109 6.54329 12.935 7.74622 14.0389Z" fill="black"/>
</svg>
