<svg width="24" height="24" viewBox="0 0 24 24" fill="none" xmlns="http://www.w3.org/2000/svg">
<path d="M5.00295 11.1472C5.19231 9.58498 5.90036 8.13122 7.01398 7.01817C8.12759 5.90513 9.58251 5.19704 11.1463 5.00701C11.1833 5.00259 11.2209 5.00585 11.2566 5.01658C11.2923 5.02732 11.3254 5.04529 11.3539 5.06938C11.3823 5.09347 11.4055 5.12317 11.4219 5.15661C11.4383 5.19004 11.4477 5.22651 11.4494 5.26372C11.4829 6.08473 11.3458 6.90377 11.0467 7.66922C10.7477 8.43466 10.2931 9.1299 9.7116 9.71112C9.13015 10.2923 8.43447 10.7469 7.66841 11.0462C6.90234 11.3455 6.08252 11.483 5.26062 11.45C5.2233 11.4484 5.18672 11.4391 5.15317 11.4227C5.11961 11.4063 5.08981 11.3832 5.06562 11.3548C5.04143 11.3264 5.02338 11.2933 5.01259 11.2575C5.00181 11.2218 4.99852 11.1843 5.00295 11.1472ZM18.7367 12.5493C18.6607 12.5493 18.5855 12.5446 18.5095 12.5446C17.7063 12.5436 16.9112 12.7048 16.172 13.0187C15.4328 13.3325 14.7648 13.7925 14.2081 14.3709C13.6515 14.9493 13.2177 15.6342 12.9328 16.3844C12.648 17.1346 12.518 17.9346 12.5506 18.7363C12.5523 18.7735 12.5617 18.81 12.5781 18.8434C12.5945 18.8768 12.6177 18.9065 12.6461 18.9306C12.6746 18.9547 12.7077 18.9727 12.7434 18.9834C12.7791 18.9941 12.8167 18.9974 12.8537 18.993C14.4176 18.8029 15.8726 18.0947 16.9862 16.9816C18.0998 15.8684 18.8078 14.4145 18.9971 12.8521C19.0015 12.8148 18.9981 12.7771 18.9872 12.7412C18.9762 12.7053 18.9579 12.672 18.9335 12.6436C18.909 12.6151 18.8788 12.592 18.845 12.5758C18.8111 12.5596 18.7742 12.5506 18.7367 12.5493ZM13.523 13.5213C14.1763 12.8652 14.9534 12.345 15.8094 11.9908C16.6653 11.6367 17.5831 11.4556 18.5095 11.4581H18.719C18.7579 11.4595 18.7967 11.4525 18.8326 11.4376C18.8686 11.4228 18.9009 11.4003 18.9274 11.3719C18.9539 11.3434 18.9739 11.3096 18.9862 11.2727C18.9985 11.2358 19.0026 11.1967 18.9984 11.1581C18.8115 9.59009 18.1021 8.13048 16.9844 7.01387C15.8668 5.89725 14.4057 5.18851 12.8361 5.00159C12.7974 4.99739 12.7582 5.00155 12.7213 5.01379C12.6844 5.02603 12.6505 5.04607 12.622 5.07254C12.5935 5.09901 12.5711 5.1313 12.5562 5.16721C12.5413 5.20312 12.5343 5.24181 12.5357 5.28066C12.5665 6.24124 12.3997 7.19793 12.0456 8.09154C11.6915 8.98515 11.1577 9.79669 10.477 10.476C9.82392 11.1326 9.04689 11.6533 8.19094 12.0079C7.33499 12.3625 6.41713 12.544 5.49048 12.5419H5.28096C5.24207 12.5405 5.20334 12.5475 5.16739 12.5624C5.13144 12.5772 5.09912 12.5997 5.07262 12.6281C5.04612 12.6566 5.02606 12.6904 5.0138 12.7273C5.00155 12.7642 4.99738 12.8033 5.00159 12.8419C5.18854 14.4099 5.89788 15.8695 7.01555 16.9861C8.13323 18.1027 9.59432 18.8115 11.1639 18.9984C11.2026 19.0026 11.2418 18.9985 11.2787 18.9862C11.3156 18.974 11.3495 18.9539 11.378 18.9275C11.4065 18.901 11.4289 18.8687 11.4438 18.8328C11.4587 18.7969 11.4657 18.7582 11.4643 18.7193C11.4331 17.7583 11.5997 16.8011 11.9538 15.907C12.3079 15.0129 12.842 14.2009 13.523 13.5213Z" fill="black"/>
</svg>
