<svg width="24" height="24" viewBox="0 0 24 24" fill="none" xmlns="http://www.w3.org/2000/svg">
<path d="M9.41603 6.94888C8.92244 6.22112 8.92244 5.27301 9.41603 4.54525L8.58397 4C7.86646 5.05794 7.86646 6.43619 8.58397 7.49413C9.07756 8.22189 9.07756 9.17 8.58397 9.89777L9.41603 10.443C10.1335 9.38508 10.1335 8.00682 9.41603 6.94888Z" fill="black"/>
<path d="M7 9.18743H5V20H19V9.18743H17V12.1363H7V9.18743Z" fill="black"/>
<path d="M12.416 4.54525C11.9224 5.27301 11.9224 6.22112 12.416 6.94888C13.1335 8.00682 13.1335 9.38508 12.416 10.443L11.584 9.89777C12.0776 9.17 12.0776 8.22189 11.584 7.49413C10.8665 6.43619 10.8665 5.05794 11.584 4L12.416 4.54525Z" fill="black"/>
<path d="M15.416 6.94888C14.9224 6.22112 14.9224 5.27301 15.416 4.54525L14.584 4C13.8665 5.05794 13.8665 6.43619 14.584 7.49413C15.0776 8.22189 15.0776 9.17 14.584 9.89777L15.416 10.443C16.1335 9.38508 16.1335 8.00682 15.416 6.94888Z" fill="black"/>

</svg>
