<svg width="24" height="24" viewBox="0 0 24 24" fill="none" xmlns="http://www.w3.org/2000/svg">
<path d="M5.24444 20L4 18.7556L13.1111 9.64444C12.8444 9.02222 12.8074 8.31852 13 7.53333C13.1926 6.74815 13.6148 6.04444 14.2667 5.42222C15.0519 4.63704 15.9259 4.17778 16.8889 4.04444C17.8519 3.91111 18.637 4.14815 19.2444 4.75556C19.8519 5.36296 20.0889 6.14815 19.9556 7.11111C19.8222 8.07407 19.363 8.94815 18.5778 9.73333C17.9556 10.3852 17.2519 10.8074 16.4667 11C15.6815 11.1926 14.9778 11.1556 14.3556 10.8889L13.2444 12L20 18.7556L18.7556 20L12 13.2889L5.24444 20ZM7.86667 12.4L5.2 9.73333C4.4 8.93333 4 7.97778 4 6.86667C4 5.75556 4.4 4.8 5.2 4L10.7111 9.55556L7.86667 12.4Z" fill="black"/>
</svg>
