<svg width="24" height="24" viewBox="0 0 24 24" fill="none" xmlns="http://www.w3.org/2000/svg">
<path d="M13.8571 11.381C13.8571 12.219 13.1714 12.9048 12.3333 12.9048C11.4952 12.9048 10.8095 12.219 10.8095 11.381C10.8095 10.5429 11.4952 9.85714 12.3333 9.85714C13.1714 9.85714 13.8571 10.5429 13.8571 11.381ZM8.52381 9.85714C7.68571 9.85714 7 10.5429 7 11.381C7 12.219 7.68571 12.9048 8.52381 12.9048C9.3619 12.9048 10.0476 12.219 10.0476 11.381C10.0476 10.5429 9.3619 9.85714 8.52381 9.85714ZM16.1429 9.85714C15.3048 9.85714 14.619 10.5429 14.619 11.381C14.619 12.219 15.3048 12.9048 16.1429 12.9048C16.981 12.9048 17.6667 12.219 17.6667 11.381C17.6667 10.5429 16.981 9.85714 16.1429 9.85714ZM14.2381 6.80952C13.4 6.80952 12.7143 7.49524 12.7143 8.33333C12.7143 9.17143 13.4 9.85714 14.2381 9.85714C15.0762 9.85714 15.7619 9.17143 15.7619 8.33333C15.7619 7.49524 15.0762 6.80952 14.2381 6.80952ZM10.4286 6.80952C9.59048 6.80952 8.90476 7.49524 8.90476 8.33333C8.90476 9.17143 9.59048 9.85714 10.4286 9.85714C11.2667 9.85714 11.9524 9.17143 11.9524 8.33333C11.9524 7.49524 11.2667 6.80952 10.4286 6.80952ZM14.2381 12.9048C13.4 12.9048 12.7143 13.5905 12.7143 14.4286C12.7143 15.2667 13.4 15.9524 14.2381 15.9524C15.0762 15.9524 15.7619 15.2667 15.7619 14.4286C15.7619 13.5905 15.0762 12.9048 14.2381 12.9048ZM10.4286 12.9048C9.59048 12.9048 8.90476 13.5905 8.90476 14.4286C8.90476 15.2667 9.59048 15.9524 10.4286 15.9524C11.2667 15.9524 11.9524 15.2667 11.9524 14.4286C11.9524 13.5905 11.2667 12.9048 10.4286 12.9048ZM12.3333 15.9524C11.4952 15.9524 10.8095 16.6381 10.8095 17.4762C10.8095 18.3143 11.4952 19 12.3333 19C13.1714 19 13.8571 18.3143 13.8571 17.4762C13.8571 16.6381 13.1714 15.9524 12.3333 15.9524ZM14.1619 3.91429L13.5524 3C11.8762 3.7619 11.7238 6.50476 11.7238 6.80952H12.8667C12.9429 6.2 13.1714 4.29524 14.1619 3.91429Z" fill="black"/>
</svg>
