<svg width="24" height="24" viewBox="0 0 24 24" fill="none" xmlns="http://www.w3.org/2000/svg">
<path d="M14.4 12.8H9.6V11.2H14.4V12.8ZM6.4 8V9.6H4.8V11.2C4.58783 11.2 4.38434 11.2843 4.23431 11.4343C4.08429 11.5843 4 11.7878 4 12C4 12.2122 4.08429 12.4157 4.23431 12.5657C4.38434 12.7157 4.58783 12.8 4.8 12.8V14.4H6.4V16H8.8V8H6.4ZM19.2 11.2V9.6H17.6V8H15.2V16H17.6V14.4H19.2V12.8C19.4122 12.8 19.6157 12.7157 19.7657 12.5657C19.9157 12.4157 20 12.2122 20 12C20 11.7878 19.9157 11.5843 19.7657 11.4343C19.6157 11.2843 19.4122 11.2 19.2 11.2Z" fill="black"/>
</svg>
