<svg width="24" height="24" viewBox="0 0 24 24" fill="none" xmlns="http://www.w3.org/2000/svg">
<path d="M8 17.36V6H12.16C14.08 6 15.536 7.504 15.536 9.296C15.536 10.176 15.2 10.832 14.64 11.328C15.648 11.824 16.32 12.736 16.32 14.016C16.32 15.904 14.816 17.36 12.8 17.36H8ZM10.32 15.232H12.64C13.52 15.232 14.064 14.688 14.064 13.936C14.064 13.184 13.52 12.624 12.64 12.624H10.32V15.232ZM10.32 10.656H11.936C12.752 10.656 13.28 10.096 13.28 9.392C13.28 8.704 12.752 8.112 11.936 8.112H10.32V10.656Z" fill="black"/>
</svg>
