<svg width="401" height="403" viewBox="0 0 401 403" fill="none" xmlns="http://www.w3.org/2000/svg">
<rect x="44.5" y="41.7739" width="319" height="319" rx="159.5" fill="#FCF8F3" stroke="#94583A"/>
<rect x="90.5" y="87.5" width="227" height="227" rx="113.5" fill="#FCF8F3" stroke="#94583A"/>
  <g class="arrow">
<path d="M204 26.9998L181.607 186.607L202.855 201L204 26.9998Z" fill="#94583A"/>
<path d="M378 201L226.393 186.607L202.855 201H378Z" fill="#94583A"/>
<path d="M30.0001 201L181.607 215.392L202.855 201H30.0001Z" fill="#94583A"/>
<path fill-rule="evenodd" clip-rule="evenodd" d="M204 26.9998L226.393 186.607L202.855 201L204 26.9998ZM226.393 215.392L378 201H202.855L181.607 186.607L30.0001 201H202.855L181.607 215.392L204 375L202.855 201L226.393 215.392Z" fill="#FCF8F3"/>
<path d="M204 375L226.393 215.392L202.855 201L204 375Z" fill="#94583A"/>
<path fill-rule="evenodd" clip-rule="evenodd" d="M181.607 186.607L204 26.9998L226.393 186.607L378 201L226.393 215.392L204 375L181.607 215.392L30.0001 201L181.607 186.607ZM180.597 216.449L29.8916 202.142L29.8916 199.857L180.597 185.55L202.863 26.8403L205.137 26.8403L227.403 185.55L378.109 199.857V202.142L227.403 216.449L205.137 375.159H202.863L180.597 216.449Z" fill="#94583A"/>

  </g>
<path d="M123.322 121.559L182.421 201.105L123.442 280.561L123.748 280.788L124.245 281.364L203.701 222.386L283.247 281.484L283.467 281.187L284.05 280.681L224.951 201.136L283.929 121.68L283.623 121.452L283.127 120.877L203.671 179.855L124.125 120.757L123.891 121.072L123.322 121.559ZM129.014 274.981L183.418 201.687L201.812 202.183L129.014 274.981ZM277.354 275.676L204.267 221.376L203.773 203.056L277.354 275.676ZM278.358 127.26L223.943 200.569L204.581 201.037L278.358 127.26ZM129.451 126.143L203.09 180.853L202.62 200.28L129.451 126.143Z" fill="#94583A" stroke="#94583A" stroke-width="1.14775"/>
<g filter="url(#filter0_ddddd_364_8894)">
<rect x="203.652" y="111.851" width="127.018" height="125.586" rx="62.7929" transform="rotate(45 203.652 111.851)" fill="#FCF8F3"/>
<rect x="203.652" y="112.558" width="126.018" height="124.586" rx="62.2929" transform="rotate(45 203.652 112.558)" stroke="#94583A"/>
</g>
<path d="M166.776 196V195.664L167.406 195.622C167.812 195.58 168.036 195.51 168.036 195.118V186.27C168.036 185.878 167.812 185.808 167.406 185.766L166.776 185.724V185.388H170.962C173.37 185.388 175.022 185.962 175.022 187.796C175.022 189.196 173.86 190.162 172.068 190.344V190.372C174.266 190.372 175.806 191.184 175.806 192.934C175.806 194.796 174.308 196 171.354 196H166.776ZM169.45 190.176H171.102C172.67 190.176 173.524 189.364 173.524 187.964C173.524 186.438 172.586 185.822 170.836 185.822H169.45V190.176ZM169.45 195.566H170.99C173.188 195.566 174.224 194.838 174.224 193.046C174.224 191.268 173.062 190.61 171.158 190.61H169.45V195.566ZM179.988 189.812H181.612C184.734 189.812 186.344 190.722 186.344 192.78C186.344 194.74 184.734 196 181.612 196H177.314V195.664L177.944 195.622C178.35 195.58 178.574 195.51 178.574 195.118V186.27C178.574 185.878 178.35 185.808 177.944 185.766L177.314 185.724V185.388H181.542V185.724L180.632 185.766C180.198 185.78 179.988 185.878 179.988 186.27V189.812ZM179.988 195.566H181.248C183.642 195.566 184.762 194.782 184.762 192.892C184.762 190.974 183.614 190.246 181.416 190.246H179.988V195.566ZM186.624 196V195.664L187.254 195.622C187.66 195.58 187.884 195.51 187.884 195.118V186.27C187.884 185.878 187.66 185.808 187.254 185.766L186.624 185.724V185.388H190.572V185.724L189.942 185.766C189.508 185.808 189.298 185.878 189.298 186.27V195.118C189.298 195.51 189.508 195.58 189.942 195.622L190.572 195.664V196H186.624ZM198.41 185.836H194.924V189.966H196.548C199.67 189.966 201.28 190.848 201.28 192.85C201.28 194.768 199.684 196 196.548 196H192.25V195.664L192.88 195.622C193.286 195.58 193.51 195.51 193.51 195.118V186.27C193.51 185.878 193.286 185.808 192.88 185.766L192.25 185.724V185.388H200.02L200.496 188.496H200.244L198.802 186.06C198.69 185.85 198.634 185.836 198.41 185.836ZM194.924 195.566H196.184C198.578 195.566 199.698 194.81 199.698 192.962C199.698 191.1 198.55 190.4 196.352 190.4H194.924V195.566ZM202.508 196V195.664L203.138 195.622C203.544 195.58 203.768 195.51 203.768 195.118V186.27C203.768 185.878 203.544 185.808 203.138 185.766L202.508 185.724V185.388H206.932C209.396 185.388 211.398 185.906 211.398 188.202C211.398 190.484 209.396 191.1 206.932 191.1H205.532V190.652H206.806C208.696 190.652 209.816 190.078 209.816 188.244C209.816 186.438 208.696 185.822 206.806 185.822H205.182V195.118C205.182 195.51 205.392 195.594 205.826 195.608L207.03 195.636V196H202.508ZM216.311 184.884L220.427 195.146C220.581 195.496 220.721 195.58 221.155 195.622L221.771 195.664V196H217.725V195.664L218.425 195.622C218.873 195.58 219.041 195.496 218.887 195.146L217.683 192.094H213.721L212.517 195.146C212.363 195.496 212.531 195.58 212.979 195.622L213.679 195.664V196H210.627V195.664L211.243 195.622C211.649 195.58 211.803 195.496 211.957 195.146L216.087 184.884H216.311ZM213.945 191.534H217.473L215.709 187.054L213.945 191.534ZM224.165 196V195.65L225.005 195.608C225.411 195.594 225.635 195.51 225.635 195.118V185.794H223.199C222.961 185.794 222.891 185.808 222.793 186.018L221.561 188.664H221.309L221.645 185.388H231.039L231.389 188.664H231.137L229.891 186.018C229.793 185.808 229.723 185.794 229.499 185.794H227.063V195.118C227.063 195.51 227.259 195.566 227.693 195.608L228.533 195.65V196H224.165ZM235.367 189.812H236.991C240.113 189.812 241.723 190.722 241.723 192.78C241.723 194.74 240.113 196 236.991 196H232.693V195.664L233.323 195.622C233.729 195.58 233.953 195.51 233.953 195.118V186.27C233.953 185.878 233.729 185.808 233.323 185.766L232.693 185.724V185.388H236.921V185.724L236.011 185.766C235.577 185.78 235.367 185.878 235.367 186.27V189.812ZM235.367 195.566H236.627C239.021 195.566 240.141 194.782 240.141 192.892C240.141 190.974 238.993 190.246 236.795 190.246H235.367V195.566ZM162.391 216V215.664L163.007 215.622C163.413 215.58 163.609 215.51 163.651 215.118L164.211 206.27C164.253 205.878 163.987 205.808 163.581 205.766L162.951 205.724V205.388H166.073L169.209 212.024L172.345 205.388H175.327V205.724L174.697 205.766C174.263 205.808 174.011 205.878 174.053 206.27L174.613 215.118C174.655 215.51 174.823 215.58 175.257 215.622L175.887 215.664V216H171.939V215.664L172.555 215.622C172.989 215.58 173.241 215.51 173.199 215.118L172.639 205.976L168.747 214.208H168.663L164.757 205.99L164.197 215.118C164.155 215.51 164.407 215.58 164.813 215.622L165.457 215.664V216H162.391ZM181.819 204.884L185.935 215.146C186.089 215.496 186.229 215.58 186.663 215.622L187.279 215.664V216H183.233V215.664L183.933 215.622C184.381 215.58 184.549 215.496 184.395 215.146L183.191 212.094H179.229L178.025 215.146C177.871 215.496 178.039 215.58 178.487 215.622L179.187 215.664V216H176.135V215.664L176.751 215.622C177.157 215.58 177.311 215.496 177.465 215.146L181.595 204.884H181.819ZM179.453 211.534H182.981L181.217 207.054L179.453 211.534ZM188.306 216V215.664L188.936 215.622C189.342 215.58 189.566 215.51 189.566 215.118V206.27C189.566 205.878 189.342 205.808 188.936 205.766L188.306 205.724V205.388H192.73C195.194 205.388 197.196 205.906 197.196 208.202C197.196 210.484 195.194 211.1 192.73 211.1H191.33V210.652H192.604C194.494 210.652 195.614 210.078 195.614 208.244C195.614 206.438 194.494 205.822 192.604 205.822H190.98V215.118C190.98 215.51 191.19 215.594 191.624 215.608L192.828 215.636V216H188.306ZM213.278 216H198.27V215.664L198.9 215.622C199.306 215.58 199.53 215.51 199.53 215.118V206.27C199.53 205.878 199.306 205.808 198.9 205.766L198.27 205.724V205.388H202.218V205.724L201.588 205.766C201.182 205.808 200.958 205.878 200.958 206.27V215.566H205.074V206.27C205.074 205.878 204.864 205.808 204.43 205.766L203.8 205.724V205.388H207.748V205.724L207.118 205.766C206.712 205.808 206.488 205.878 206.488 206.27V215.566H210.604V206.27C210.604 205.878 210.394 205.808 209.96 205.766L209.33 205.724V205.388H213.278V205.724L212.648 205.766C212.242 205.808 212.018 205.878 212.018 206.27V215.118C212.018 215.51 212.242 215.58 212.648 215.622L213.278 215.664V216ZM214.68 216V215.664L215.31 215.622C215.716 215.58 215.94 215.51 215.94 215.118V206.27C215.94 205.878 215.716 205.808 215.31 205.766L214.68 205.724V205.388H219.104C221.568 205.388 223.57 205.906 223.57 208.202C223.57 210.484 221.568 211.1 219.104 211.1H217.704V210.652H218.978C220.868 210.652 221.988 210.078 221.988 208.244C221.988 206.438 220.868 205.822 218.978 205.822H217.354V215.118C217.354 215.51 217.564 215.594 217.998 215.608L219.202 215.636V216H214.68ZM233.405 206.242L228.841 215.034C228.407 215.874 228.043 216.168 227.609 216.168C227.217 216.168 226.951 215.93 226.951 215.552C226.951 214.95 227.455 214.502 228.701 214.222L229.191 213.284L225.285 206.242C225.075 205.892 224.977 205.808 224.571 205.766L223.955 205.724V205.388H228.043V205.724L227.343 205.766C226.895 205.808 226.699 205.92 226.881 206.242L229.961 211.8L232.845 206.242C233.013 205.906 232.817 205.808 232.383 205.766L231.683 205.724V205.388H234.735V205.724L234.119 205.766C233.713 205.808 233.573 205.906 233.405 206.242ZM237.567 216V215.65L238.407 215.608C238.813 215.594 239.037 215.51 239.037 215.118V205.794H236.601C236.363 205.794 236.293 205.808 236.195 206.018L234.963 208.664H234.711L235.047 205.388H244.441L244.791 208.664H244.539L243.293 206.018C243.195 205.808 243.125 205.794 242.901 205.794H240.465V215.118C240.465 215.51 240.661 215.566 241.095 215.608L241.935 215.65V216H237.567Z" fill="#94583A"/>
<path d="M197.044 14V13.568L197.854 13.514C198.412 13.46 198.664 13.37 198.664 12.866V2.24596L197.026 0.391956V0.355957H199.402L208.762 10.832V1.48996C208.762 0.985956 208.492 0.895956 207.934 0.841957L207.124 0.787957V0.355957H211.084V0.787957L210.274 0.841957C209.716 0.895956 209.464 0.985956 209.464 1.48996V14.342H209.392L199.366 3.03796V12.866C199.366 13.37 199.636 13.46 200.194 13.514L200.986 13.568V14H197.044Z" fill="#94593C"/>
<path d="M7.82234 207.45L2.40434 194.454C2.20634 194.004 2.00834 193.896 1.48634 193.842L0.694336 193.788V193.356H5.86034V193.788L4.96034 193.842C4.38434 193.896 4.16834 194.004 4.36634 194.454L8.59634 204.75L11.4943 197.802L9.82034 193.356H14.5003V193.788L12.8443 193.842C12.2683 193.86 12.0703 194.004 12.2323 194.454L15.9043 204.75L20.1523 194.454C20.3503 194.004 20.1343 193.896 19.5583 193.842L18.6763 193.788V193.356H22.6003V193.788L21.8083 193.842C21.2503 193.896 21.0883 194.004 20.8903 194.454L15.4543 207.45H15.1483L11.8183 198.63L8.11034 207.45H7.82234Z" fill="#94593C"/>
<path d="M387.99 207V206.568L388.8 206.514C389.322 206.46 389.61 206.37 389.61 205.866V194.49C389.61 193.986 389.322 193.896 388.8 193.842L387.99 193.788V193.356H398.016L398.61 197.352H398.286L396.45 194.22C396.306 193.95 396.234 193.932 395.928 193.932H391.428V199.566H394.128C394.434 199.566 394.47 199.53 394.524 199.332L395.244 197.208H395.568V202.554H395.244L394.524 200.448C394.452 200.25 394.434 200.214 394.128 200.214H391.428V206.424H396.81C397.098 206.424 397.152 206.388 397.314 206.172L399.78 202.968H400.104L398.88 207H387.99Z" fill="#94593C"/>
<path d="M203.238 402.216C201.852 402.216 200.754 402.09 199.746 401.748L199.332 397.626H199.656L201.204 400.812C201.366 401.118 201.6 401.334 201.906 401.46C202.248 401.586 202.608 401.64 203.256 401.64C205.128 401.64 206.712 400.704 206.712 399.102C206.712 397.374 205.434 396.564 203.526 395.952L202.572 395.646C200.466 394.98 199.26 393.684 199.26 391.668C199.26 389.364 201.564 388.05 203.976 388.05C205.128 388.05 206.154 388.194 207.036 388.536L207.684 392.208H207.36L205.614 389.346C205.344 388.896 205.146 388.824 204.786 388.734C204.444 388.662 204.138 388.644 203.724 388.644C202.266 388.644 200.844 389.544 200.844 391.074C200.844 392.298 201.528 393.198 203.094 393.702L204.048 394.008C206.568 394.836 208.35 395.88 208.35 398.328C208.35 400.686 206.046 402.216 203.238 402.216Z" fill="#94593C"/>
<path d="M301.06 98L302.723 101.821L307 102.168L303.674 104.947L304.743 109L301.06 106.8L297.377 109L298.327 104.947L295 102.168L299.396 101.821L301.06 98Z" fill="#94583A"/>
<path d="M301.06 292L302.723 295.821L307 296.168L303.674 298.947L304.743 303L301.06 300.8L297.377 303L298.327 298.947L295 296.168L299.396 295.821L301.06 292Z" fill="#94583A"/>
<path d="M107.06 98L108.723 101.821L113 102.168L109.674 104.947L110.743 109L107.06 106.8L103.377 109L104.327 104.947L101 102.168L105.396 101.821L107.06 98Z" fill="#94583A"/>
<path d="M107.06 292L108.723 295.821L113 296.168L109.674 298.947L110.743 303L107.06 300.8L103.377 303L104.327 298.947L101 296.168L105.396 295.821L107.06 292Z" fill="#94583A"/>
<defs>
<filter id="filter0_ddddd_364_8894" x="118.859" y="132.861" width="170.599" height="209.599" filterUnits="userSpaceOnUse" color-interpolation-filters="sRGB">
<feFlood flood-opacity="0" result="BackgroundImageFix"/>
<feColorMatrix in="SourceAlpha" type="matrix" values="0 0 0 0 0 0 0 0 0 0 0 0 0 0 0 0 0 0 127 0" result="hardAlpha"/>
<feOffset/>
<feColorMatrix type="matrix" values="0 0 0 0 0.580392 0 0 0 0 0.345098 0 0 0 0 0.227451 0 0 0 0.1 0"/>
<feBlend mode="normal" in2="BackgroundImageFix" result="effect1_dropShadow_364_8894"/>
<feColorMatrix in="SourceAlpha" type="matrix" values="0 0 0 0 0 0 0 0 0 0 0 0 0 0 0 0 0 0 127 0" result="hardAlpha"/>
<feOffset dy="3"/>
<feGaussianBlur stdDeviation="4"/>
<feColorMatrix type="matrix" values="0 0 0 0 0.580392 0 0 0 0 0.345098 0 0 0 0 0.227451 0 0 0 0.1 0"/>
<feBlend mode="normal" in2="effect1_dropShadow_364_8894" result="effect2_dropShadow_364_8894"/>
<feColorMatrix in="SourceAlpha" type="matrix" values="0 0 0 0 0 0 0 0 0 0 0 0 0 0 0 0 0 0 127 0" result="hardAlpha"/>
<feOffset dy="14"/>
<feGaussianBlur stdDeviation="7"/>
<feColorMatrix type="matrix" values="0 0 0 0 0.580392 0 0 0 0 0.345098 0 0 0 0 0.227451 0 0 0 0.09 0"/>
<feBlend mode="normal" in2="effect2_dropShadow_364_8894" result="effect3_dropShadow_364_8894"/>
<feColorMatrix in="SourceAlpha" type="matrix" values="0 0 0 0 0 0 0 0 0 0 0 0 0 0 0 0 0 0 127 0" result="hardAlpha"/>
<feOffset dy="31"/>
<feGaussianBlur stdDeviation="9.5"/>
<feColorMatrix type="matrix" values="0 0 0 0 0.580392 0 0 0 0 0.345098 0 0 0 0 0.227451 0 0 0 0.05 0"/>
<feBlend mode="normal" in2="effect3_dropShadow_364_8894" result="effect4_dropShadow_364_8894"/>
<feColorMatrix in="SourceAlpha" type="matrix" values="0 0 0 0 0 0 0 0 0 0 0 0 0 0 0 0 0 0 127 0" result="hardAlpha"/>
<feOffset dy="56"/>
<feGaussianBlur stdDeviation="11"/>
<feColorMatrix type="matrix" values="0 0 0 0 0.580392 0 0 0 0 0.345098 0 0 0 0 0.227451 0 0 0 0.01 0"/>
<feBlend mode="normal" in2="effect4_dropShadow_364_8894" result="effect5_dropShadow_364_8894"/>
<feBlend mode="normal" in="SourceGraphic" in2="effect5_dropShadow_364_8894" result="shape"/>
</filter>
</defs>
</svg>
