<svg width="183" height="40" viewBox="0 0 183 40" fill="none" xmlns="http://www.w3.org/2000/svg">
  <path fill-rule="evenodd" clip-rule="evenodd" d="M77.9299 18.0856C77.2704 17.9757 77.0506 17.8658 76.8307 17.3162L70.6755 1.81818H70.3457L63.9706 17.3162C63.7508 17.8658 63.531 17.9757 62.8715 18.0856L61.9922 18.1955V18.7451H66.6086V18.1955L65.5095 18.0856C64.85 17.9757 64.6301 17.8658 64.85 17.3162L66.4987 12.6998H72.544L74.4126 17.3162C74.6324 17.8658 74.4126 17.9757 73.7531 18.0856L72.654 18.1955V18.7451H78.8092V18.1955L77.9299 18.0856ZM69.6862 5.11563L72.4341 11.9304H67.0483L69.6862 5.11563ZM0 18.1955L0.879322 18.0856C1.53881 17.9757 1.75864 17.8658 1.86856 17.3162L2.74788 3.90656C2.8578 3.35699 2.41814 3.24707 1.75864 3.13716H0.879322V2.58758H5.60568L10.332 12.5899L15.0584 2.58758H19.5649V3.13716H18.6856C18.0261 3.24707 17.6964 3.35699 17.6964 3.90656L18.5757 17.3162C18.6856 17.8658 18.9054 17.9757 19.5649 18.0856L20.5542 18.1955V18.7451H14.6187V18.1955L15.4981 18.0856C16.1575 17.9757 16.4873 17.8658 16.4873 17.3162L15.4981 3.4669L9.67254 15.9972H9.45271L3.6272 3.4669L2.74788 17.3162C2.63797 17.8658 3.07763 17.9757 3.6272 18.0856L4.61644 18.1955V18.7451H0V18.1955ZM22.8633 18.1956L23.8525 18.0856C24.512 17.9757 24.8418 17.8658 24.8418 17.3162V3.90657C24.8418 3.35699 24.512 3.24708 23.8525 3.13716L22.8633 3.02725V2.58759H28.9086C32.7557 2.58759 35.6135 3.46691 35.6135 6.54453C35.6135 8.96267 33.8548 10.1717 30.8871 10.5015L38.3613 18.6352H35.6135L28.469 10.7213H26.9301V17.3162C26.9301 17.8658 27.2599 17.9757 27.9194 18.0856L28.9086 18.1956V18.7451H22.9732V18.1956H22.8633ZM28.7987 10.0618C31.5466 10.0618 33.1953 9.1825 33.1953 6.65445C33.1953 4.1264 31.4367 3.24708 28.7987 3.24708H26.9301V10.0618H28.7987ZM40.5596 18.0856L39.5703 18.1956V18.855H45.5057V18.3055L44.5165 18.1956C43.857 18.0856 43.5273 17.9757 43.5273 17.4261V4.01648C43.5273 3.46691 43.857 3.35699 44.5165 3.24708L45.5057 3.13716V2.58759H39.5703V3.13716H40.5596C41.219 3.24708 41.5488 3.35699 41.5488 3.90657V17.3162C41.5488 17.8658 41.219 17.9757 40.5596 18.0856ZM52.0985 18.0856L53.4175 17.9757C54.077 17.9757 54.4067 17.8658 54.4067 17.2063V11.3808L49.1308 3.90657C48.8011 3.35699 48.6912 3.24708 48.0317 3.13716L47.1523 3.02725V2.58759H53.3076V3.13716L52.2084 3.24708C51.549 3.35699 51.2192 3.46691 51.549 4.01648L56.1654 10.6114L60.8918 3.90657C61.2215 3.35699 60.8917 3.24708 60.2323 3.13716L59.1331 3.02725V2.58759H63.7495V3.13716L62.8702 3.24708C62.2107 3.35699 62.1008 3.46691 61.7711 4.01648L56.4951 11.4907V17.4261C56.4951 17.9757 56.8249 18.0856 57.4844 18.1956L58.8034 18.3055V18.855H52.2084V18.0856H52.0985ZM84.9648 18.1956L85.9541 18.0856C86.6136 17.9757 86.9433 17.8658 86.9433 17.3162V3.90657C86.9433 3.35699 86.6136 3.24708 85.9541 3.13716L84.9648 3.02725V2.58759H91.0102C94.8572 2.58759 97.715 3.46691 97.715 6.54453C97.715 8.96267 95.9564 10.1717 92.9887 10.5015L100.463 18.6352H97.715L90.5705 10.7213H89.0317V17.3162C89.0317 17.8658 89.3615 17.9757 90.0209 18.0856L91.0102 18.1956V18.7451H85.0748V18.1956H84.9648ZM90.7903 10.0618C93.5382 10.0618 95.187 9.1825 95.187 6.65445C95.187 4.1264 93.4283 3.24708 90.7903 3.24708H89.0317V10.0618H90.7903ZM102.661 18.0856L101.672 18.1956V18.6352H114.422L115.851 13.9089H115.521L112.663 17.646C112.553 17.9757 112.444 17.9757 112.114 17.9757H105.739V10.6114H108.926C109.256 10.6114 109.256 10.7213 109.256 10.7213L110.135 13.2494H110.465V6.9842H110.135L109.256 9.51225C109.256 9.84199 109.146 9.84199 108.816 9.84199H105.629V3.24708H110.905C111.134 3.24708 111.244 3.24708 111.327 3.29377C111.404 3.33665 111.459 3.41893 111.564 3.57677L111.564 3.57682L113.763 7.31394H114.092L113.433 2.58759H101.672V3.02725L102.661 3.13716C103.321 3.24708 103.65 3.35699 103.65 3.90657V17.3162C103.65 17.8658 103.321 17.9757 102.661 18.0856ZM118.928 18.4154L118.489 13.5791H118.818L120.687 17.3162C120.907 17.646 121.127 17.9757 121.566 18.0856C122.006 18.1955 122.446 18.3055 123.105 18.3055C125.303 18.3055 127.172 17.2063 127.172 15.3377C127.172 13.2493 125.633 12.37 123.435 11.6006L122.336 11.2709C119.808 10.5015 118.379 8.96265 118.379 6.54452C118.379 3.79664 121.127 2.25782 123.984 2.25782C125.303 2.25782 126.512 2.47765 127.612 2.8074L128.381 7.09409H128.051L125.963 3.68672C125.633 3.13715 125.413 3.02723 124.974 2.91732H123.655C121.896 2.91732 120.247 4.01647 120.247 5.77511C120.247 7.20401 121.017 8.30316 122.885 8.85274L123.984 9.18248C126.952 10.1717 129.041 11.3808 129.041 14.2386C129.041 16.9865 126.293 18.855 122.995 18.855C121.456 18.9649 120.137 18.7451 118.928 18.4154ZM140.253 2.25781C135.636 2.25781 131.789 5.55527 131.789 10.6114C131.789 15.5576 135.636 18.9649 140.253 18.9649C144.869 18.9649 148.716 15.6675 148.716 10.6114C148.716 5.55527 144.869 2.25781 140.253 2.25781ZM140.253 2.9173C143.77 2.9173 146.298 5.66519 146.298 10.6114C146.298 15.4476 143.66 18.1955 140.253 18.1955C136.735 18.1955 134.207 15.4476 134.207 10.6114C134.207 5.66519 136.845 2.9173 140.253 2.9173ZM151.242 18.1956L152.231 18.0856C152.891 17.9757 153.221 17.8658 153.221 17.3162V3.90657C153.221 3.35699 152.891 3.24708 152.231 3.13716L151.242 3.02725V2.58759H157.288C161.135 2.58759 163.992 3.46691 163.992 6.54453C163.992 8.96267 162.234 10.1717 159.266 10.5015L166.74 18.6352H163.992L156.848 10.7213H155.309V17.3162C155.309 17.8658 155.639 17.9757 156.298 18.0856L157.288 18.1956V18.7451H151.352V18.1956H151.242ZM157.178 10.0618C159.925 10.0618 161.574 9.1825 161.574 6.65445C161.574 4.1264 159.816 3.24708 157.178 3.24708H155.309V10.0618H157.178ZM172.567 17.9757L171.248 18.0856H171.467V18.855H178.062V18.3055L176.743 18.1956C176.084 18.0856 175.754 17.9757 175.754 17.4261V3.24708H179.491C179.821 3.24708 179.931 3.24708 180.041 3.57682L181.909 7.53377H182.239L181.69 2.58759H167.511L166.961 7.53377H167.291L169.159 3.57682C169.379 3.24708 169.489 3.24708 169.819 3.24708H173.556V17.2063C173.556 17.8658 173.226 17.9757 172.567 17.9757Z" fill="currentColor"/>
  <path fill-rule="evenodd" clip-rule="evenodd" d="M54.2294 30.4282L55.6399 33.7532L59.2671 34.0554L56.446 36.4736L57.3528 40L54.2294 38.0856L51.1059 40L51.912 36.4736L49.0908 34.0554L52.8188 33.7532L54.2294 30.4282ZM72.6674 30.4282L74.078 33.7532L77.8059 34.0554L74.9848 36.4736L75.8916 40L72.6674 38.0857L69.544 40L70.4508 36.4736L67.6296 34.0554L71.2568 33.7532L72.6674 30.4282ZM92.6176 33.7532L91.207 30.4282L89.7964 33.7532L86.1692 34.0554L88.8896 36.4736L88.0836 40L91.207 38.0857L94.3304 40L93.5244 36.4736L96.2448 34.0554L92.6176 33.7532ZM109.746 30.4282L111.056 33.7532L114.784 34.0554L111.963 36.4736L112.87 40L109.746 38.0857L106.522 40L107.429 36.4736L104.608 34.0554L108.336 33.7532L109.746 30.4282ZM129.595 33.7532L128.184 30.4282L126.773 33.7532L123.146 34.0554L125.967 36.4736L125.061 40L128.184 38.0857L131.307 40L130.501 36.4736L133.222 34.0554L129.595 33.7532Z" fill="currentColor"/>
</svg>
