<svg width="128" height="28" viewBox="0 0 128 28" fill="none" xmlns="http://www.w3.org/2000/svg">
<path fill-rule="evenodd" clip-rule="evenodd" d="M54.5508 12.66C54.0892 12.5831 53.9353 12.5062 53.7814 12.1215L49.4728 1.27295H49.242L44.7794 12.1215C44.6256 12.5062 44.4717 12.5831 44.01 12.66L43.3945 12.737V13.1217H46.626V12.737L45.8566 12.66C45.395 12.5831 45.2411 12.5062 45.395 12.1215L46.5491 8.89H50.7808L52.0887 12.1215C52.2426 12.5062 52.0887 12.5831 51.6271 12.66L50.8577 12.737V13.1217H55.1663V12.737L54.5508 12.66ZM48.7803 3.58115L50.7038 8.35142H46.9338L48.7803 3.58115ZM0 12.7369L0.615519 12.6599C1.07716 12.583 1.23104 12.506 1.30798 12.1213L1.9235 2.73467C2.00044 2.34997 1.69268 2.27303 1.23104 2.19609H0.615519V1.81139H3.92393L7.23235 8.81292L10.5408 1.81139H13.6953V2.19609H13.0798C12.6181 2.27303 12.3873 2.34997 12.3873 2.73467L13.0028 12.1213C13.0798 12.506 13.2337 12.583 13.6953 12.6599L14.3878 12.7369V13.1216H10.233V12.7369L10.8485 12.6599C11.3102 12.583 11.541 12.506 11.541 12.1213L10.8485 2.42691L6.77071 11.1981H6.61683L2.53902 2.42691L1.9235 12.1213C1.84656 12.506 2.15432 12.583 2.53902 12.6599L3.23147 12.7369V13.1216H0V12.7369ZM16.0039 12.737L16.6964 12.66C17.158 12.5831 17.3888 12.5062 17.3888 12.1215V2.7348C17.3888 2.3501 17.158 2.27316 16.6964 2.19622L16.0039 2.11928V1.81152H20.2356C22.9285 1.81152 24.9289 2.42704 24.9289 4.58136C24.9289 6.27404 23.6979 7.12037 21.6205 7.35119L26.8524 13.0447H24.9289L19.9278 7.50507H18.8507V12.1215C18.8507 12.5062 19.0815 12.5831 19.5431 12.66L20.2356 12.737V13.1217H16.0808V12.737H16.0039ZM20.1587 7.04343C22.0822 7.04343 23.2363 6.42792 23.2363 4.6583C23.2363 2.88868 22.0052 2.27316 20.1587 2.27316H18.8507V7.04343H20.1587ZM28.3917 12.6599L27.6993 12.7368V13.1985H31.854V12.8138L31.1616 12.7368C30.6999 12.6599 30.4691 12.583 30.4691 12.1983V2.81161C30.4691 2.42691 30.6999 2.34997 31.1616 2.27303L31.854 2.19609V1.81139H27.6993V2.19609H28.3917C28.8534 2.27303 29.0842 2.34997 29.0842 2.73467V12.1213C29.0842 12.506 28.8534 12.583 28.3917 12.6599ZM36.4664 12.6599L37.3897 12.583C37.8513 12.583 38.0821 12.506 38.0821 12.0444V7.96658L34.389 2.73467C34.1582 2.34997 34.0813 2.27303 33.6196 2.19609L33.0041 2.11915V1.81139H37.3127V2.19609L36.5433 2.27303C36.0817 2.34997 35.8509 2.42691 36.0817 2.81161L39.3132 7.428L42.6216 2.73467C42.8524 2.34997 42.6216 2.27303 42.1599 2.19609L41.3905 2.11915V1.81139H44.622V2.19609L44.0065 2.27303C43.5449 2.34997 43.4679 2.42691 43.2371 2.81161L39.544 8.04352V12.1983C39.544 12.583 39.7748 12.6599 40.2364 12.7368L41.1597 12.8138V13.1985H36.5433V12.6599H36.4664ZM59.4767 12.7369L60.1691 12.6599C60.6308 12.583 60.8616 12.506 60.8616 12.1213V2.73467C60.8616 2.34997 60.6308 2.27303 60.1691 2.19609L59.4767 2.11915V1.81139H63.7084C66.4013 1.81139 68.4017 2.42691 68.4017 4.58123C68.4017 6.2739 67.1707 7.12024 65.0933 7.35106L70.3252 13.0446H68.4017L63.4006 7.50494H62.3234V12.1213C62.3234 12.506 62.5543 12.583 63.0159 12.6599L63.7084 12.7369V13.1216H59.5536V12.7369H59.4767ZM63.5545 7.0433C65.478 7.0433 66.6321 6.42778 66.6321 4.65817C66.6321 2.88855 65.401 2.27303 63.5545 2.27303H62.3234V7.0433H63.5545ZM71.8603 12.6599L71.1679 12.7369V13.0446H80.0929L81.0931 9.7362H80.8623L78.8619 12.3522C78.7849 12.583 78.708 12.583 78.4772 12.583H74.0146V7.428H76.2459C76.4767 7.428 76.4767 7.50494 76.4767 7.50494L77.0922 9.27456H77.3231V4.88898H77.0922L76.4767 6.6586C76.4767 6.88942 76.3998 6.88942 76.169 6.88942H73.9377V2.27303H77.6308C77.7912 2.27303 77.868 2.27303 77.9266 2.30571C77.9804 2.33573 78.0188 2.39334 78.0925 2.50385L79.6313 5.1198H79.8621L79.4004 1.81139H71.1679V2.11915L71.8603 2.19609C72.322 2.27303 72.5528 2.34997 72.5528 2.73467V12.1213C72.5528 12.506 72.322 12.583 71.8603 12.6599ZM83.248 12.8907L82.9402 9.50537H83.171L84.479 12.1213C84.6329 12.3521 84.7868 12.583 85.0945 12.6599C85.4023 12.7368 85.7101 12.8138 86.1717 12.8138C87.7105 12.8138 89.0185 12.0444 89.0185 10.7364C89.0185 9.27455 87.9413 8.65903 86.4025 8.12045L85.6331 7.88964C83.8635 7.35106 82.8633 6.2739 82.8633 4.58122C82.8633 2.65772 84.7868 1.58057 86.7872 1.58057C87.7105 1.58057 88.5568 1.73445 89.3262 1.96527L89.8648 4.96592H89.634L88.1721 2.58078C87.9413 2.19609 87.7874 2.11915 87.4797 2.04221H86.5564C85.3254 2.04221 84.1713 2.8116 84.1713 4.04264C84.1713 5.04286 84.7098 5.81226 86.0178 6.19696L86.7872 6.42778C88.8646 7.12024 90.3265 7.96658 90.3265 9.96701C90.3265 11.8905 88.403 13.1985 86.0948 13.1985C85.0176 13.2754 84.0943 13.1215 83.248 12.8907ZM98.1744 1.58057C94.9429 1.58057 92.25 3.88876 92.25 7.428C92.25 10.8903 94.9429 13.2754 98.1744 13.2754C101.406 13.2754 104.099 10.9672 104.099 7.428C104.099 3.88876 101.406 1.58057 98.1744 1.58057ZM98.1744 2.04221C100.636 2.04221 102.406 3.9657 102.406 7.428C102.406 10.8133 100.56 12.7368 98.1744 12.7368C95.7123 12.7368 93.9427 10.8133 93.9427 7.428C93.9427 3.9657 95.7892 2.04221 98.1744 2.04221ZM105.867 12.737L106.56 12.66C107.021 12.5831 107.252 12.5062 107.252 12.1215V2.7348C107.252 2.3501 107.021 2.27316 106.56 2.19622L105.867 2.11928V1.81152H110.099C112.792 1.81152 114.792 2.42704 114.792 4.58136C114.792 6.27404 113.561 7.12037 111.484 7.35119L116.716 13.0447H114.792L109.791 7.50507H108.714V12.1215C108.714 12.5062 108.945 12.5831 109.406 12.66L110.099 12.737V13.1217H105.944V12.737H105.867ZM110.022 7.04343C111.945 7.04343 113.1 6.42792 113.1 4.6583C113.1 2.88868 111.868 2.27316 110.022 2.27316H108.714V7.04343H110.022ZM120.795 12.5831L119.872 12.66H120.026V13.1986H124.642V12.8139L123.719 12.737C123.257 12.66 123.026 12.5831 123.026 12.1984V2.27316H125.642C125.873 2.27316 125.95 2.27316 126.027 2.50398L127.335 5.27382H127.566L127.181 1.81152H117.256L116.871 5.27382H117.102L118.41 2.50398C118.564 2.27316 118.641 2.27316 118.872 2.27316H121.487V12.0445C121.487 12.5062 121.257 12.5831 120.795 12.5831Z" fill="#945A3C"/>
<path fill-rule="evenodd" clip-rule="evenodd" d="M37.9592 21.3003L38.9466 23.6277L41.4857 23.8393L39.5109 25.532L40.1456 28.0005L37.9592 26.6604L35.7729 28.0005L36.3371 25.532L34.3623 23.8393L36.9718 23.6277L37.9592 21.3003ZM50.8675 21.3003L51.8549 23.6277L54.4644 23.8393L52.4896 25.532L53.1244 28.0005L50.8675 26.6604L48.6811 28.0005L49.3159 25.532L47.3411 23.8393L49.8801 23.6277L50.8675 21.3003ZM64.829 23.6277L63.8416 21.3003L62.8542 23.6277L60.3152 23.8393L62.2194 25.532L61.6552 28.0005L63.8416 26.6604L66.028 28.0005L65.4637 25.532L67.368 23.8393L64.829 23.6277ZM76.8206 21.3003L77.7375 23.6277L80.3471 23.8393L78.3723 25.532L79.007 28.0005L76.8206 26.6604L74.5637 28.0005L75.1985 25.532L73.2237 23.8393L75.8333 23.6277L76.8206 21.3003ZM90.7116 23.6277L89.7242 21.3003L88.7368 23.6277L86.1978 23.8393L88.1726 25.532L87.5378 28.0005L89.7242 26.6604L91.9106 28.0005L91.3464 25.532L93.2506 23.8393L90.7116 23.6277Z" fill="#945A3C"/>
</svg>
