<svg width="868" height="868" viewBox="0 0 868 868" fill="none" xmlns="http://www.w3.org/2000/svg">
<g clip-path="url(#clip0_364_8889)">
<path d="M868 0C793.202 80.6977 658.188 180.162 609.052 279.636C600.091 297.778 549.405 400.683 525.239 421.666C504.257 439.885 448.662 489.088 393.984 445.417C186.423 279.636 176.088 421.122 72.3076 372.536C47.587 360.963 5.56212 345.01 0 441.037" stroke="#94583A" stroke-opacity="0.3" stroke-dasharray="2 4 8 4"/>
<path d="M637 221L645 213L653 221L645 229L637 221Z" fill="#E2D0C4"/>
<path d="M674.936 219.216C674.936 221.466 673.244 223.194 670.58 223.194H668.15V228H666.782V215.22H670.58C673.244 215.22 674.936 216.966 674.936 219.216ZM673.55 219.216C673.55 217.686 672.524 216.498 670.58 216.498H668.15V221.916H670.58C672.524 221.916 673.55 220.746 673.55 219.216ZM680.396 228.18C677.66 228.18 675.698 226.074 675.698 223.5C675.698 220.926 677.66 218.82 680.396 218.82C683.132 218.82 685.094 220.926 685.094 223.5C685.094 226.074 683.132 228.18 680.396 228.18ZM680.396 227.01C682.448 227.01 683.798 225.426 683.798 223.5C683.798 221.574 682.448 219.99 680.396 219.99C678.326 219.99 676.994 221.574 676.994 223.5C676.994 225.426 678.326 227.01 680.396 227.01ZM691.022 228.18C688.286 228.18 686.324 226.074 686.324 223.5C686.324 220.926 688.286 218.82 691.022 218.82C692.894 218.82 694.352 219.756 695.144 221.178L694.046 221.808C693.488 220.728 692.444 219.99 691.022 219.99C688.952 219.99 687.62 221.574 687.62 223.5C687.62 225.426 688.952 227.01 691.022 227.01C692.444 227.01 693.488 226.272 694.046 225.192L695.144 225.822C694.352 227.244 692.894 228.18 691.022 228.18ZM698.661 228V220.188H695.691V219H703.017V220.188H699.921V228H698.661ZM708.196 228.18C705.46 228.18 703.498 226.074 703.498 223.5C703.498 220.926 705.46 218.82 708.196 218.82C710.932 218.82 712.894 220.926 712.894 223.5C712.894 226.074 710.932 228.18 708.196 228.18ZM708.196 227.01C710.248 227.01 711.598 225.426 711.598 223.5C711.598 221.574 710.248 219.99 708.196 219.99C706.126 219.99 704.794 221.574 704.794 223.5C704.794 225.426 706.126 227.01 708.196 227.01ZM714.881 228V219H718.679C720.605 219 721.667 219.864 721.667 221.376C721.667 222.078 721.397 222.726 720.695 223.212C721.793 223.662 722.261 224.436 722.261 225.426C722.261 226.866 721.289 228 719.039 228H714.881ZM716.141 226.848H719.201C720.281 226.848 720.965 226.326 720.965 225.372C720.965 224.418 720.281 223.896 719.201 223.896H716.141V226.848ZM716.141 222.78H718.859C719.651 222.78 720.389 222.438 720.389 221.448C720.389 220.476 719.651 220.152 718.859 220.152H716.141V222.78ZM723.935 223.608V222.312H728.345V223.608H723.935ZM730.755 228V219H732.015V222.798H737.289V219H738.549V228H737.289V223.986H732.015V228H730.755ZM745.019 228.18C742.481 228.18 740.537 226.074 740.537 223.5C740.537 220.926 742.481 218.82 745.019 218.82C746.405 218.82 747.701 219.522 748.349 220.512V219H749.609V228H748.349V226.488C747.701 227.478 746.405 228.18 745.019 228.18ZM745.145 227.01C747.107 227.01 748.457 225.444 748.457 223.5C748.457 221.556 747.107 219.99 745.145 219.99C743.183 219.99 741.833 221.556 741.833 223.5C741.833 225.444 743.183 227.01 745.145 227.01ZM752.017 223.608V222.312H756.427V223.608H752.017ZM768.265 230.664V228H758.599V230.664H757.303V226.704H757.555C758.455 226.704 759.211 225.876 759.211 222.006V215.22H767.995V226.704H769.561V230.664H768.265ZM760.579 216.516V222.276C760.579 224.724 760.255 225.948 759.733 226.704H766.627V216.516H760.579ZM775.18 228.18C772.444 228.18 770.482 226.074 770.482 223.5C770.482 220.926 772.444 218.82 775.18 218.82C777.916 218.82 779.878 220.926 779.878 223.5C779.878 226.074 777.916 228.18 775.18 228.18ZM775.18 227.01C777.232 227.01 778.582 225.426 778.582 223.5C778.582 221.574 777.232 219.99 775.18 219.99C773.11 219.99 771.778 221.574 771.778 223.5C771.778 225.426 773.11 227.01 775.18 227.01ZM781.865 228V219H783.125V222.798H788.399V219H789.659V228H788.399V223.986H783.125V228H781.865ZM800.449 219L795.463 229.746C794.743 231.312 793.969 231.942 792.673 231.942C792.259 231.942 791.989 231.924 791.719 231.852V230.718C792.007 230.772 792.241 230.772 792.601 230.772C793.231 230.772 793.753 230.466 794.257 229.368L795.067 227.604L791.035 219H792.439L795.733 226.128L799.027 219H800.449Z" fill="#94583A" fill-opacity="0.25"/>
<path d="M725 130L733 122L741 130L733 138L725 130Z" fill="#E2D0C4"/>
<path d="M177.314 341L170.132 334.826V341H168.782V328.22H170.132V333.818L176.018 328.22H177.872L171.518 334.286L179.348 341H177.314ZM183.467 341.18C180.641 341.18 178.841 339.092 178.841 336.5C178.841 333.89 180.767 331.82 183.503 331.82C185.843 331.82 187.733 333.494 187.733 336.374V336.716H180.137C180.137 338.57 181.505 340.01 183.467 340.01C184.961 340.01 185.807 339.398 186.437 338.318L187.463 338.984C186.671 340.352 185.339 341.18 183.467 341.18ZM180.245 335.6H186.419C186.185 333.98 184.979 332.99 183.449 332.99C181.955 332.99 180.533 333.962 180.245 335.6ZM190.955 344.762H189.695V332H190.955V333.512C191.603 332.522 192.899 331.82 194.285 331.82C196.823 331.82 198.767 333.926 198.767 336.5C198.767 339.074 196.823 341.18 194.285 341.18C192.899 341.18 191.603 340.478 190.955 339.488V344.762ZM194.159 340.01C196.121 340.01 197.471 338.444 197.471 336.5C197.471 334.556 196.121 332.99 194.159 332.99C192.197 332.99 190.847 334.556 190.847 336.5C190.847 338.444 192.197 340.01 194.159 340.01ZM207.331 341H206.071V336.644C205.549 337.436 204.451 337.922 203.227 337.922C201.229 337.922 199.969 336.734 199.969 334.7V332H201.229V334.592C201.229 336.248 202.201 336.752 203.497 336.752C204.649 336.752 206.071 335.942 206.071 334.16V332H207.331V341Z" fill="#94583A" fill-opacity="0.25"/>
<path d="M180 366L188 358L196 366L188 374L180 366Z" fill="#E2D0C4"/>
<path d="M677.5 505L685.5 497L693.5 505L685.5 513L677.5 505Z" fill="#E2D0C4"/>
<path d="M657.428 544V532.516H653.288V531.22H662.918V532.516H658.778V544H657.428ZM666.76 544.18C663.934 544.18 662.134 542.092 662.134 539.5C662.134 536.89 664.06 534.82 666.796 534.82C669.136 534.82 671.026 536.494 671.026 539.374V539.716H663.43C663.43 541.57 664.798 543.01 666.76 543.01C668.254 543.01 669.1 542.398 669.73 541.318L670.756 541.984C669.964 543.352 668.632 544.18 666.76 544.18ZM663.538 538.6H669.712C669.478 536.98 668.272 535.99 666.742 535.99C665.248 535.99 663.826 536.962 663.538 538.6ZM672.988 535H674.194L677.65 539.662L681.106 535H682.312V544H681.052V537.088L677.65 541.66L674.248 537.088V544H672.988V535ZM686.316 547.762H685.056V535H686.316V536.512C686.964 535.522 688.26 534.82 689.646 534.82C692.184 534.82 694.128 536.926 694.128 539.5C694.128 542.074 692.184 544.18 689.646 544.18C688.26 544.18 686.964 543.478 686.316 542.488V547.762ZM689.52 543.01C691.482 543.01 692.832 541.444 692.832 539.5C692.832 537.556 691.482 535.99 689.52 535.99C687.558 535.99 686.208 537.556 686.208 539.5C686.208 541.444 687.558 543.01 689.52 543.01ZM703.664 544.18C701.198 544.18 699.398 542.38 699.2 539.968H697.382V544H696.122V535H697.382V538.816H699.218C699.506 536.53 701.306 534.82 703.664 534.82C706.274 534.82 708.146 536.854 708.146 539.5C708.146 542.146 706.274 544.18 703.664 544.18ZM703.664 542.992C705.554 542.992 706.85 541.462 706.85 539.5C706.85 537.538 705.554 536.008 703.664 536.008C701.774 536.008 700.478 537.538 700.478 539.5C700.478 541.462 701.774 542.992 703.664 542.992ZM716.207 544L711.401 539.86V544H710.141V535H711.401V539.104L715.685 535H717.341L712.697 539.41L718.025 544H716.207Z" fill="#94583A" fill-opacity="0.25"/>
</g>
<defs>
<clipPath id="clip0_364_8889">
<rect width="868" height="868" fill="white"/>
</clipPath>
</defs>
</svg>
