<svg width="48" height="48" viewBox="0 0 48 48" fill="none" xmlns="http://www.w3.org/2000/svg">
<path d="M0 48V23.9834C0.00327539 19.2374 1.41363 14.5989 4.05277 10.6543C6.69192 6.70968 10.4414 3.63611 14.8271 1.82215C19.2128 0.00818638 24.0379 -0.464729 28.6923 0.463186C33.3468 1.3911 37.6216 3.67818 40.9764 7.0353C44.3312 10.3924 46.6153 14.6688 47.54 19.3239C48.4647 23.979 47.9885 28.8038 46.1715 33.1882C44.3545 37.5727 41.2784 41.32 37.332 43.9564C33.3855 46.5928 28.746 48 24 48H0ZM24 11.617C20.7205 11.6203 17.5761 12.924 15.2563 15.2422C12.9365 17.5604 11.6307 20.7039 11.6253 23.9834V36.3582H24C27.282 36.3582 30.4296 35.0544 32.7503 32.7337C35.071 30.413 36.3747 27.2654 36.3747 23.9834C36.3747 20.7015 35.071 17.5539 32.7503 15.2332C30.4296 12.9125 27.282 11.6087 24 11.6087V11.617Z" fill="#FC563B"/>
</svg>
