<svg xmlns="http://www.w3.org/2000/svg" xmlns:xlink="http://www.w3.org/1999/xlink" fill="none" viewBox="0 0 305 148">
  <g filter="url(#a)">
    <path fill="#000" fill-opacity=".32" d="M76 40h189v25H76z"/>
  </g>
  <path stroke="#fff" stroke-opacity=".35" d="M17 15.5h-.5v73h57V33.793l-.146-.147-18-18-.147-.146H17Z"/>
  <mask id="b" width="56" height="72" x="17" y="16" maskUnits="userSpaceOnUse" style="mask-type:alpha">
    <path fill="#D9D9D9" d="M73 88H17V16h38l18 18v54Z"/>
  </mask>
  <g mask="url(#b)">
    <g filter="url(#c)">
      <path fill="#000" fill-opacity=".15" d="M17 16h56v72H17V16Z"/>
    </g>
    <path fill="url(#d)" d="M17 16h56v72H17V16Z"/>
  </g>
  <path fill="url(#e)" d="M45 147.887 47.887 145 45 142.113 42.113 145 45 147.887Zm.5-2.887v-28.757h-1V145h1Zm0-28.757V89h-1v27.243h1Z"/>
  <path fill="#fff" d="M59 15h15v15L59 15ZM90.44 49.24l-1.5 2.94h-.34l.16-3.8h1.64c.92-2.2 1.84-6.14 1.84-13.28 0-.56-.32-.66-.9-.72l-.9-.06v-.48h12.2v.48l-.9.06c-.58.06-.9.16-.9.72v13.28h2.08l.16 3.8h-.34l-1.5-2.94c-.1-.18-.22-.24-.52-.24h-9.76c-.32 0-.42.06-.52.24Zm8.38-.86V34.46h-5.8c0 7.66-.92 11.7-1.82 13.92h7.62Zm5.896.62v-.48l.9-.06c.58-.06.9-.16.9-.72V35.1c0-.56-.32-.66-.9-.72l-.9-.06v-.48h6.32c3.52 0 6.38.74 6.38 4.02 0 3.26-2.86 4.14-6.38 4.14h-2v-.64h1.82c2.7 0 4.3-.82 4.3-3.44 0-2.58-1.6-3.46-4.3-3.46h-2.32v13.28c0 .56.3.68.92.7l1.72.04V49h-6.46Zm14.233 0v-.48l.9-.06c.58-.06.9-.16.9-.72V35.1c0-.56-.32-.66-.9-.72l-.9-.06v-.48h5.64v.48l-.9.06c-.62.06-.92.16-.92.72v10.52l8.14-9.94v-.58c0-.56-.32-.66-.9-.72l-.9-.06v-.48h5.64v.48l-.9.06c-.58.06-.9.16-.9.72v12.64c0 .56.32.66.9.72l.9.06V49h-5.64v-.48l.9-.06c.58-.06.9-.16.9-.72V36.86l-8.14 9.94v.94c0 .56.3.66.92.72l.9.06V49h-5.64Zm17.399 0v-.48l.88-.06c.58-.06.86-.16.92-.72l.8-12.64c.06-.56-.32-.66-.9-.72l-.9-.06v-.48h4.46l4.48 9.48 4.48-9.48h4.26v.48l-.9.06c-.62.06-.98.16-.92.72l.8 12.64c.06.56.3.66.92.72l.9.06V49h-5.64v-.48l.88-.06c.62-.06.98-.16.92-.72l-.8-13.06-5.56 11.76h-.12l-5.58-11.74-.8 13.04c-.06.56.3.66.88.72l.92.06V49h-4.38Zm21.054 0v-.48l.9-.06c.58-.06.9-.16.9-.72V35.1c0-.56-.32-.66-.9-.72l-.9-.06v-.48h5.98c3.44 0 5.8.82 5.8 3.44 0 2-1.66 3.38-4.22 3.64v.04c3.14 0 5.34 1.16 5.34 3.66 0 2.66-2.14 4.38-6.36 4.38h-6.54Zm3.82-8.32h2.36c2.24 0 3.46-1.16 3.46-3.16 0-2.18-1.34-3.06-3.84-3.06h-1.98v6.22Zm0 7.7h2.2c3.14 0 4.62-1.04 4.62-3.6 0-2.54-1.66-3.48-4.38-3.48h-2.44v7.08Zm23.107-13.32-6.52 12.56c-.62 1.2-1.14 1.62-1.76 1.62-.56 0-.94-.34-.94-.88 0-.86.72-1.5 2.5-1.9l.7-1.34-5.58-10.06c-.3-.5-.44-.62-1.02-.68l-.88-.06v-.48h5.84v.48l-1 .06c-.64.06-.92.22-.66.68l4.4 7.94 4.12-7.94c.24-.48-.04-.62-.66-.68l-1-.06v-.48h4.36v.48l-.88.06c-.58.06-.78.2-1.02.68Zm3.809 14.18-1.5 2.94h-.34l.16-3.8h1.64c.92-2.2 1.84-6.14 1.84-13.28 0-.56-.32-.66-.9-.72l-.9-.06v-.48h12.2v.48l-.9.06c-.58.06-.9.16-.9.72v13.28h2.08l.16 3.8h-.34l-1.5-2.94c-.1-.18-.22-.24-.52-.24h-9.76c-.32 0-.42.06-.52.24Zm8.38-.86V34.46h-5.8c0 7.66-.92 11.7-1.82 13.92h7.62Z"/>
  <g filter="url(#f)">
    <path fill="#fff" d="M96.022 70v-8.932h-5.614V70h-1.022v-9.94h7.672V70h-1.036Zm6.136.14c-1.974 0-3.486-1.638-3.486-3.64 0-2.002 1.512-3.64 3.486-3.64 1.078 0 2.086.546 2.59 1.316V63h.98v7h-.98v-1.176c-.504.77-1.512 1.316-2.59 1.316Zm.098-.91c1.526 0 2.576-1.218 2.576-2.73s-1.05-2.73-2.576-2.73-2.576 1.218-2.576 2.73 1.05 2.73 2.576 2.73Zm6.577 3.696h-.98V63h.98v1.176c.504-.77 1.512-1.316 2.59-1.316 1.974 0 3.486 1.638 3.486 3.64 0 2.002-1.512 3.64-3.486 3.64-1.078 0-2.086-.546-2.59-1.316v4.102Zm2.492-3.696c1.526 0 2.576-1.218 2.576-2.73s-1.05-2.73-2.576-2.73-2.576 1.218-2.576 2.73 1.05 2.73 2.576 2.73Zm9.853.77-3.738-3.22V70h-.98v-7h.98v3.192L120.772 63h1.288l-3.612 3.43 4.144 3.57h-1.414Zm6.079 2.926h-.98V63h.98v1.176c.504-.77 1.512-1.316 2.59-1.316 1.974 0 3.486 1.638 3.486 3.64 0 2.002-1.512 3.64-3.486 3.64-1.078 0-2.086-.546-2.59-1.316v4.102Zm2.492-3.696c1.526 0 2.576-1.218 2.576-2.73s-1.05-2.73-2.576-2.73-2.576 1.218-2.576 2.73 1.05 2.73 2.576 2.73Zm8.032.91c-1.974 0-3.486-1.638-3.486-3.64 0-2.002 1.512-3.64 3.486-3.64 1.078 0 2.086.546 2.59 1.316V63h.98v7h-.98v-1.176c-.504.77-1.512 1.316-2.59 1.316Zm.098-.91c1.526 0 2.576-1.218 2.576-2.73s-1.05-2.73-2.576-2.73-2.576 1.218-2.576 2.73 1.05 2.73 2.576 2.73Zm7.627.91c-1.176 0-2.128-.448-2.814-1.414l.784-.518c.434.63 1.106 1.064 2.016 1.064 1.246 0 1.722-.574 1.722-1.26 0-.784-.504-1.232-1.666-1.232h-1.064v-.868h1.078c.854 0 1.4-.35 1.4-1.092 0-.742-.574-1.106-1.47-1.106-.714 0-1.358.294-1.792.896l-.77-.476c.546-.784 1.484-1.274 2.604-1.274 1.512 0 2.38.77 2.38 1.904 0 .672-.28 1.218-.896 1.554.728.294 1.19.938 1.19 1.764 0 1.176-.952 2.058-2.702 2.058Zm4.321-.14v-7h2.954c1.498 0 2.324.672 2.324 1.848 0 .546-.21 1.05-.756 1.428.854.35 1.218.952 1.218 1.722 0 1.12-.756 2.002-2.506 2.002h-3.234Zm.98-.896h2.38c.84 0 1.372-.406 1.372-1.148 0-.742-.532-1.148-1.372-1.148h-2.38v2.296Zm0-3.164h2.114c.616 0 1.19-.266 1.19-1.036 0-.756-.574-1.008-1.19-1.008h-2.114v2.044Zm5.951 4.144c-.21 0-.392 0-.546-.042v-.896c.168.042.294.028.448.028.518 0 .84-.322.84-1.428V63h5.236v7h-.98v-6.076h-3.276v4.088c0 1.386-.7 2.072-1.722 2.072Zm11.133.056c-2.198 0-3.598-1.624-3.598-3.64 0-2.03 1.498-3.64 3.626-3.64 1.82 0 3.29 1.302 3.29 3.542v.266h-5.908c0 1.442 1.064 2.562 2.59 2.562 1.162 0 1.82-.476 2.31-1.316l.798.518c-.616 1.064-1.652 1.708-3.108 1.708Zm-2.506-4.34h4.802c-.182-1.26-1.12-2.03-2.31-2.03-1.162 0-2.268.756-2.492 2.03Zm12.46 4.2h-.98v-3.388c-.406.616-1.26.994-2.212.994-1.554 0-2.534-.924-2.534-2.506V63h.98v2.016c0 1.288.756 1.68 1.764 1.68.896 0 2.002-.63 2.002-2.016V63h.98v7Zm5.154.14c-2.198 0-3.598-1.624-3.598-3.64 0-2.03 1.498-3.64 3.626-3.64 1.82 0 3.29 1.302 3.29 3.542v.266h-5.908c0 1.442 1.064 2.562 2.59 2.562 1.162 0 1.82-.476 2.31-1.316l.798.518c-.616 1.064-1.652 1.708-3.108 1.708Zm-2.506-4.34h4.802c-.182-1.26-1.12-2.03-2.31-2.03-1.162 0-2.268.756-2.492 2.03Zm7.35 4.2v-7h.98v2.954h4.102V63h.98v7h-.98v-3.122h-4.102V70h-.98Zm9.065 0h-.868v-7h.98v5.446l4.2-5.446h.868v7h-.98v-5.446l-4.2 5.446Zm8.169 0h-.868v-7h.98v5.446l4.2-5.446h.868v7h-.98v-5.446l-4.2 5.446Zm2.254-8.19c-1.19 0-2.156-.812-2.156-2.156V59.5h.854v.154c0 .952.574 1.456 1.302 1.456.728 0 1.302-.504 1.302-1.456V59.5h.854v.154c0 1.344-.966 2.156-2.156 2.156Z"/>
  </g>
  <defs>
    <filter id="a" width="269" height="105" x="36" y="0" color-interpolation-filters="sRGB" filterUnits="userSpaceOnUse">
      <feFlood flood-opacity="0" result="BackgroundImageFix"/>
      <feBlend in="SourceGraphic" in2="BackgroundImageFix" result="shape"/>
      <feGaussianBlur result="effect1_foregroundBlur_1312_31680" stdDeviation="20"/>
    </filter>
    <filter id="c" width="64" height="80" x="13" y="12" color-interpolation-filters="sRGB" filterUnits="userSpaceOnUse">
      <feFlood flood-opacity="0" result="BackgroundImageFix"/>
      <feGaussianBlur in="BackgroundImageFix" stdDeviation="2"/>
      <feComposite in2="SourceAlpha" operator="in" result="effect1_backgroundBlur_1312_31680"/>
      <feBlend in="SourceGraphic" in2="effect1_backgroundBlur_1312_31680" result="shape"/>
    </filter>
    <filter id="f" width="128.871" height="21.426" x="85.386" y="59.5" color-interpolation-filters="sRGB" filterUnits="userSpaceOnUse">
      <feFlood flood-opacity="0" result="BackgroundImageFix"/>
      <feColorMatrix in="SourceAlpha" result="hardAlpha" values="0 0 0 0 0 0 0 0 0 0 0 0 0 0 0 0 0 0 127 0"/>
      <feOffset dy="4"/>
      <feGaussianBlur stdDeviation="2"/>
      <feComposite in2="hardAlpha" operator="out"/>
      <feColorMatrix values="0 0 0 0 0 0 0 0 0 0 0 0 0 0 0 0 0 0 0.25 0"/>
      <feBlend in2="BackgroundImageFix" result="effect1_dropShadow_1312_31680"/>
      <feBlend in="SourceGraphic" in2="effect1_dropShadow_1312_31680" result="shape"/>
    </filter>
    <linearGradient id="e" x1="45.5" x2="45.5" y1="89" y2="145" gradientUnits="userSpaceOnUse">
      <stop stop-color="#fff" stop-opacity=".35"/>
      <stop offset="1" stop-color="#fff"/>
    </linearGradient>
    <pattern id="d" width="1" height="1" patternContentUnits="objectBoundingBox">
      <use xlink:href="#g" transform="matrix(.0015 0 0 .00117 -.465 0)"/>
    </pattern>
  </defs>
</svg>
